<svg width="22" height="22" viewBox="0 0 22 22" fill="none" xmlns="http://www.w3.org/2000/svg">
<g clip-path="url(#clip0)">
<path d="M21.3555 7.77734H19.0871L14.1244 1.57394C13.9021 1.29606 13.4965 1.2509 13.2185 1.47331C12.9405 1.69567 12.8954 2.10125 13.1178 2.37922L17.4363 7.77734H4.56367L8.8822 2.37922C9.10456 2.10125 9.05949 1.69563 8.78157 1.47331C8.50356 1.2509 8.09798 1.29602 7.87566 1.57394L2.91289 7.77734H0.644531C0.288578 7.77734 0 8.06592 0 8.42187V9.71094C0 10.0669 0.288578 10.3555 0.644531 10.3555H21.3555C21.7114 10.3555 22 10.0669 22 9.71094V8.42187C22 8.06592 21.7114 7.77734 21.3555 7.77734Z" fill="white"/>
<path d="M3.89198 20.2005C3.97105 20.4772 4.22396 20.668 4.51172 20.668H17.4883C17.776 20.668 18.029 20.4772 18.108 20.2005L20.5526 11.6445H1.44745L3.89198 20.2005ZM13.9521 17.3394L14.5967 13.4722C14.6552 13.1211 14.9872 12.8837 15.3384 12.9424C15.6895 13.0009 15.9267 13.333 15.8682 13.6841L15.2237 17.5513C15.1711 17.8666 14.898 18.09 14.5887 18.09C14.5535 18.09 14.5178 18.0871 14.4819 18.0811C14.1308 18.0226 13.8936 17.6905 13.9521 17.3394ZM10.3555 13.5781C10.3555 13.2222 10.6441 12.9336 11 12.9336C11.356 12.9336 11.6445 13.2222 11.6445 13.5781V17.4453C11.6445 17.8013 11.356 18.0898 11 18.0898C10.6441 18.0898 10.3555 17.8013 10.3555 17.4453V13.5781ZM6.70459 12.9424C7.05577 12.8839 7.38779 13.1211 7.44632 13.4722L8.09085 17.3394C8.14937 17.6905 7.91218 18.0226 7.56104 18.0811C7.52521 18.0871 7.4895 18.09 7.45431 18.09C7.14489 18.09 6.87187 17.8666 6.81932 17.5513L6.17478 13.6841C6.11626 13.333 6.35345 13.0009 6.70459 12.9424Z" fill="white"/>
</g>
<defs>
<clipPath id="clip0">
<rect width="22" height="22" fill="white"/>
</clipPath>
</defs>
</svg>
