<svg width="27" height="27" viewBox="0 0 27 27" fill="none" xmlns="http://www.w3.org/2000/svg">
<path d="M25.875 14.6017H1.125C0.503998 14.6017 0 14.0977 0 13.4767C0 12.8557 0.503998 12.3517 1.125 12.3517H25.875C26.496 12.3517 27 12.8557 27 13.4767C27 14.0977 26.496 14.6017 25.875 14.6017Z" fill="white"/>
<path d="M25.875 5.97656H1.125C0.503998 5.97656 0 5.47257 0 4.85156C0 4.23056 0.503998 3.72656 1.125 3.72656H25.875C26.496 3.72656 27 4.23056 27 4.85156C27 5.47257 26.496 5.97656 25.875 5.97656Z" fill="white"/>
<path d="M25.875 23.2264H1.125C0.503998 23.2264 0 22.7224 0 22.1014C0 21.4804 0.503998 20.9764 1.125 20.9764H25.875C26.496 20.9764 27 21.4804 27 22.1014C27 22.7224 26.496 23.2264 25.875 23.2264Z" fill="white"/>
</svg>
