<svg width="24" height="24" viewBox="0 0 24 24" fill="none" xmlns="http://www.w3.org/2000/svg">
<g opacity="0.6">
<path d="M23.0625 0.00523376H0.9375C0.419719 0.00523376 0 0.424953 0 0.942734C0 4.57508 1.07475 7.75517 3.38227 10.9506C4.82189 12.9443 7.40452 14.4121 8.71875 15.0694V20.7612C8.71875 21.119 8.92247 21.4456 9.24375 21.6031L13.9313 23.9C14.0618 23.9639 14.2029 23.9956 14.3437 23.9956C14.5164 23.9956 14.6886 23.9479 14.8398 23.8536C15.1144 23.6824 15.2812 23.3817 15.2812 23.0581V19.1944C15.2812 18.6766 14.8615 18.2569 14.3438 18.2569C13.826 18.2569 13.4062 18.6766 13.4062 19.1944V21.5547L10.5938 20.1766V14.48C10.5938 14.1137 10.3805 13.781 10.0477 13.6281C8.29744 12.8239 6.02663 11.4099 4.90238 9.85297C3.0398 7.27367 2.07459 4.71791 1.90298 1.88023H22.097C21.9254 4.71786 20.9602 7.27367 19.0976 9.85297C17.9094 11.4984 15.6736 12.941 13.9849 13.6408C13.5066 13.839 13.2795 14.3874 13.4777 14.8658C13.6759 15.3441 14.2243 15.5712 14.7027 15.373C16.4943 14.6306 19.1185 13.0269 20.6177 10.9506C22.9253 7.75517 24 4.57508 24 0.942734C24 0.424953 23.5803 0.00523376 23.0625 0.00523376Z" fill="#333333"/>
</g>
</svg>
