<svg width="64" height="64" fill="none" xmlns="http://www.w3.org/2000/svg"><g opacity=".4" clip-path="url(#clip0)" fill="#333"><path d="M30.954 21.825h2.057v2.057h-2.057v-2.057zm3.086 9.258h2.057v2.057H34.04v-2.057zm-6.172-2.057h2.058v2.057h-2.058v-2.057zm2.058 4.114h2.057v2.057h-2.057V33.14zm5.142-9.258h2.058v2.058h-2.058v-2.058zm-6.172-5.143h2.058v2.057h-2.058V18.74zm-2.057 6.171h2.057v2.058H26.84v-2.057zm8.229-5.142h2.058v2.057h-2.058v-2.057zm-3.086 7.2h2.058v2.058h-2.058v-2.058zm-14.401 2.058h2.057v2.057h-2.057v-2.057zm-1.028-4.116h2.057v2.058h-2.057v-2.057zm3.086 8.23h2.057v2.057h-2.057V33.14zM18.61 20.796h2.058v2.058H18.61v-2.058zm25.716 8.23h2.057v2.057h-2.057v-2.057zm1.029-4.116h2.058v2.058h-2.057v-2.057zm-3.085 8.23h2.057v2.057H42.27V33.14zm1.028-12.344h2.057v2.058h-2.057v-2.058z"/><path d="M42.27 16.681c-1.192 0-2.34.233-3.428.669-.069-.074-.136-.149-.207-.22 4.575-1.05 6.72-4.492 6.72-10.735V5.366h-1.028c-.38 0-.748.01-1.107.027-.37-2.902-2.193-4.782-2.28-4.869L40.415 0l-.663.331c-.536.269-2.54 1.332-3.746 2.8C34.41 1.145 32.49.347 32.365.296l-.382-.152-.382.152c-.125.05-2.046.848-3.642 2.835C26.753 1.664 24.75.6 24.214.333L23.55 0l-.525.525c-.086.086-1.91 1.966-2.28 4.868a22.48 22.48 0 00-1.106-.028H18.61v1.029c0 6.243 2.146 9.685 6.722 10.736-.073.071-.14.146-.208.22a9.143 9.143 0 00-3.428-.67c-5.104 0-9.258 4.154-9.258 9.258v.473c0 1.182.224 2.34.663 3.439l2.961 7.404h-1.566v7.2L18.814 64h26.338l4.294-19.321.024-7.424h-1.566l2.961-7.404c.44-1.1.663-2.256.663-3.44v-.472c0-5.104-4.154-9.258-9.258-9.258zm-3.153 7.596l-1.854 12.978h-10.56L24.85 24.276a6.663 6.663 0 016.588-7.595h1.092a6.662 6.662 0 016.588 7.596zm-1.892-8.976l-.842.235a8.65 8.65 0 00-3.254-.88c.394-2.108 2.162-6.826 10.147-7.207-.211 5.004-2.01 7.303-6.05 7.852zM39.96 2.564c.437.61 1.037 1.672 1.22 3.023-1.31.191-2.449.5-3.445.894a9.875 9.875 0 00-.532-1.445c.314-.765 1.58-1.772 2.757-2.472zm-7.978-.171c.902.485 3.127 1.991 3.86 5.034a10.128 10.128 0 00-3.858 4.29 10.13 10.13 0 00-3.858-4.29c.732-3.054 2.949-4.55 3.856-5.034zm-7.97.174c1.176.7 2.44 1.705 2.754 2.47a9.705 9.705 0 00-.533 1.444 15.361 15.361 0 00-3.443-.894c.184-1.34.786-2.406 1.222-3.02zm2.873 12.764l-.144-.03c-4.04-.55-5.84-2.848-6.052-7.852 7.986.381 9.754 5.097 10.147 7.206a8.63 8.63 0 00-3.247.878l-.704-.202zM15.01 29.087a7.165 7.165 0 01-.515-2.675v-.473c0-3.97 3.23-7.2 7.2-7.2.742 0 1.459.12 2.15.337a8.657 8.657 0 00-1.034 5.492l1.813 12.687h-6.347l-3.267-8.168zm32.402 15.255l-3.91 17.6H20.463l-3.91-17.6v-5.03h30.859v5.03zm2.057-17.93c0 .92-.173 1.82-.515 2.674l-3.267 8.169H39.34l1.813-12.686a8.664 8.664 0 00-1.033-5.494 7.166 7.166 0 012.149-.336c3.97 0 7.2 3.23 7.2 7.2v.473z"/><path d="M31.983 55.77a3.09 3.09 0 003.085-3.085 3.09 3.09 0 00-3.085-3.086 3.09 3.09 0 00-3.087 3.086 3.09 3.09 0 003.087 3.086zm0-4.114a1.03 1.03 0 011.028 1.029 1.03 1.03 0 01-1.029 1.028 1.03 1.03 0 01-1.028-1.028 1.03 1.03 0 011.029-1.029zm-8.229 4.114a3.09 3.09 0 003.086-3.085 3.09 3.09 0 00-3.086-3.086 3.09 3.09 0 00-3.086 3.086 3.09 3.09 0 003.086 3.086zm0-4.114a1.03 1.03 0 011.029 1.029 1.03 1.03 0 01-1.03 1.028 1.03 1.03 0 01-1.028-1.028 1.03 1.03 0 011.029-1.029zm16.458 4.114a3.09 3.09 0 003.086-3.085 3.09 3.09 0 00-3.086-3.086 3.09 3.09 0 00-3.086 3.086 3.09 3.09 0 003.086 3.086zm0-4.114a1.03 1.03 0 011.029 1.029 1.03 1.03 0 01-1.029 1.028 1.03 1.03 0 01-1.029-1.028 1.03 1.03 0 011.029-1.029z"/></g><defs><clipPath id="clip0"><path fill="#fff" d="M0 0h64v64H0z"/></clipPath></defs></svg>