<svg width="64" height="64" fill="none" xmlns="http://www.w3.org/2000/svg"><g opacity=".4" fill="#333"><path d="M25.807 42.322h12.387V36.13H25.807v6.194zm2.064-4.129h8.258v2.065h-8.258v-2.065zM25.807 13.42v6.193h12.387v-6.194H25.807zm10.322 4.128h-8.258v-2.064h8.258v2.064z"/><path d="M59.871 3.097H4.129A4.133 4.133 0 000 7.226a4.133 4.133 0 004.129 4.129v45.419h7.226v4.13h10.322v-4.13h20.646v4.13h10.322v-4.13h7.226V11.355A4.133 4.133 0 0064 7.225a4.133 4.133 0 00-4.129-4.128zM6.194 11.355h2.064V32H6.194V11.355zM10.323 32V11.355h43.354V32H10.323zm-4.13 2.064h2.065V54.71H6.194V34.064zm13.42 24.775h-6.194v-2.065h6.194v2.065zm30.968 0h-6.194v-2.065h6.194v2.065zm7.225-4.13h-2.064v-2.064h-2.065v2.065H10.323V34.064h43.354v18.581h2.065v-18.58h2.064V54.71zm0-22.71h-2.064V11.356h2.064V32zM59.871 9.29H4.129a2.067 2.067 0 01-2.064-2.064c0-1.139.925-2.065 2.064-2.065h55.742c1.139 0 2.064.926 2.064 2.065a2.067 2.067 0 01-2.064 2.064z"/></g></svg>