<svg width="64" height="64" viewBox="0 0 64 64" fill="none" xmlns="http://www.w3.org/2000/svg">
<g opacity="0.4">
<path d="M58.8387 15.4828C57.951 15.4828 56.1342 16.0888 54.7097 16.767V7.22581C54.7097 3.24232 51.4674 0 47.4839 0H16.5161C12.5326 0 9.29032 3.24232 9.29032 7.22581V16.767C7.86581 16.0888 6.04903 15.4828 5.16129 15.4828C2.31535 15.4828 0 17.7982 0 20.6441C0 23.137 1.77652 25.2222 4.12903 25.7012V53.6764V54.7086V64H10.3226V54.7086H53.6774V64H59.871V54.7086V53.6774V25.7012C62.2235 25.2212 64 23.137 64 20.6441C64 17.7982 61.6846 15.4828 58.8387 15.4828ZM11.3548 42.3215V37.1603C11.3548 36.5905 11.8173 36.128 12.3871 36.128H29.9355C30.5053 36.128 30.9677 36.5905 30.9677 37.1603V42.3215C30.9677 42.8914 30.5053 43.3538 29.9355 43.3538H12.3871C11.8173 43.3538 11.3548 42.8914 11.3548 42.3215ZM33.0323 42.3215V37.1603C33.0323 36.5905 33.4947 36.128 34.0645 36.128H51.6129C52.1827 36.128 52.6452 36.5905 52.6452 37.1603V42.3215C52.6452 42.8914 52.1827 43.3538 51.6129 43.3538H34.0645C33.4947 43.3538 33.0323 42.8914 33.0323 42.3215ZM11.3548 7.22581C11.3548 4.37987 13.6702 2.06452 16.5161 2.06452H47.4839C50.3298 2.06452 52.6452 4.37987 52.6452 7.22581V18.1461V18.5796V34.2534C52.321 34.1378 51.9763 34.0635 51.6129 34.0635H34.0645C33.2686 34.0635 32.5492 34.3742 32 34.8686C31.4508 34.3732 30.7314 34.0635 29.9355 34.0635H12.3871C12.0237 34.0635 11.679 34.1378 11.3548 34.2534V18.5796V18.1461V7.22581ZM8.25806 61.9355H6.19355V54.7086H8.25806V61.9355ZM57.8064 61.9355H55.7419V54.7086H57.8064V61.9355ZM58.8387 23.7409H57.8064V52.6441H6.19355V23.7409H5.16129C3.45394 23.7409 2.06452 22.3515 2.06452 20.6441C2.06452 18.9368 3.45394 17.5474 5.16129 17.5474C5.95303 17.5474 8.34787 18.5053 9.29032 19.0895V37.1603V42.3215V45.4183H12.3871H29.9355H34.0645H51.6129H54.7097V42.3215V37.1603V19.0895C55.6521 18.5053 58.047 17.5474 58.8387 17.5474C60.5461 17.5474 61.9355 18.9368 61.9355 20.6441C61.9355 22.3515 60.5461 23.7409 58.8387 23.7409Z" fill="#333333"/>
<path d="M15.4834 9.29035C16.0535 9.29035 16.5157 8.82819 16.5157 8.25809C16.5157 7.68799 16.0535 7.22583 15.4834 7.22583C14.9133 7.22583 14.4512 7.68799 14.4512 8.25809C14.4512 8.82819 14.9133 9.29035 15.4834 9.29035Z" fill="#333333"/>
<path d="M23.7422 9.29035C24.3123 9.29035 24.7745 8.82819 24.7745 8.25809C24.7745 7.68799 24.3123 7.22583 23.7422 7.22583C23.1721 7.22583 22.71 7.68799 22.71 8.25809C22.71 8.82819 23.1721 9.29035 23.7422 9.29035Z" fill="#333333"/>
<path d="M32 9.29035C32.5701 9.29035 33.0323 8.82819 33.0323 8.25809C33.0323 7.68799 32.5701 7.22583 32 7.22583C31.4299 7.22583 30.9678 7.68799 30.9678 8.25809C30.9678 8.82819 31.4299 9.29035 32 9.29035Z" fill="#333333"/>
<path d="M40.2578 9.29035C40.8279 9.29035 41.2901 8.82819 41.2901 8.25809C41.2901 7.68799 40.8279 7.22583 40.2578 7.22583C39.6877 7.22583 39.2256 7.68799 39.2256 8.25809C39.2256 8.82819 39.6877 9.29035 40.2578 9.29035Z" fill="#333333"/>
<path d="M48.5157 9.29035C49.0858 9.29035 49.5479 8.82819 49.5479 8.25809C49.5479 7.68799 49.0858 7.22583 48.5157 7.22583C47.9456 7.22583 47.4834 7.68799 47.4834 8.25809C47.4834 8.82819 47.9456 9.29035 48.5157 9.29035Z" fill="#333333"/>
<path d="M19.6133 15.4839C20.1834 15.4839 20.6456 15.0218 20.6456 14.4517C20.6456 13.8816 20.1834 13.4194 19.6133 13.4194C19.0432 13.4194 18.5811 13.8816 18.5811 14.4517C18.5811 15.0218 19.0432 15.4839 19.6133 15.4839Z" fill="#333333"/>
<path d="M27.8711 15.4839C28.4412 15.4839 28.9034 15.0218 28.9034 14.4517C28.9034 13.8816 28.4412 13.4194 27.8711 13.4194C27.301 13.4194 26.8389 13.8816 26.8389 14.4517C26.8389 15.0218 27.301 15.4839 27.8711 15.4839Z" fill="#333333"/>
<path d="M36.1289 15.4839C36.699 15.4839 37.1612 15.0218 37.1612 14.4517C37.1612 13.8816 36.699 13.4194 36.1289 13.4194C35.5588 13.4194 35.0967 13.8816 35.0967 14.4517C35.0967 15.0218 35.5588 15.4839 36.1289 15.4839Z" fill="#333333"/>
<path d="M44.3868 15.4839C44.9569 15.4839 45.419 15.0218 45.419 14.4517C45.419 13.8816 44.9569 13.4194 44.3868 13.4194C43.8167 13.4194 43.3545 13.8816 43.3545 14.4517C43.3545 15.0218 43.8167 15.4839 44.3868 15.4839Z" fill="#333333"/>
<path d="M15.4834 21.6773C16.0535 21.6773 16.5157 21.2152 16.5157 20.6451C16.5157 20.075 16.0535 19.6128 15.4834 19.6128C14.9133 19.6128 14.4512 20.075 14.4512 20.6451C14.4512 21.2152 14.9133 21.6773 15.4834 21.6773Z" fill="#333333"/>
<path d="M23.7422 21.6773C24.3123 21.6773 24.7745 21.2152 24.7745 20.6451C24.7745 20.075 24.3123 19.6128 23.7422 19.6128C23.1721 19.6128 22.71 20.075 22.71 20.6451C22.71 21.2152 23.1721 21.6773 23.7422 21.6773Z" fill="#333333"/>
<path d="M32 21.6773C32.5701 21.6773 33.0323 21.2152 33.0323 20.6451C33.0323 20.075 32.5701 19.6128 32 19.6128C31.4299 19.6128 30.9678 20.075 30.9678 20.6451C30.9678 21.2152 31.4299 21.6773 32 21.6773Z" fill="#333333"/>
<path d="M40.2578 21.6773C40.8279 21.6773 41.2901 21.2152 41.2901 20.6451C41.2901 20.075 40.8279 19.6128 40.2578 19.6128C39.6877 19.6128 39.2256 20.075 39.2256 20.6451C39.2256 21.2152 39.6877 21.6773 40.2578 21.6773Z" fill="#333333"/>
<path d="M48.5157 21.6773C49.0858 21.6773 49.5479 21.2152 49.5479 20.6451C49.5479 20.075 49.0858 19.6128 48.5157 19.6128C47.9456 19.6128 47.4834 20.075 47.4834 20.6451C47.4834 21.2152 47.9456 21.6773 48.5157 21.6773Z" fill="#333333"/>
<path d="M19.6133 27.8709C20.1834 27.8709 20.6456 27.4088 20.6456 26.8387C20.6456 26.2686 20.1834 25.8064 19.6133 25.8064C19.0432 25.8064 18.5811 26.2686 18.5811 26.8387C18.5811 27.4088 19.0432 27.8709 19.6133 27.8709Z" fill="#333333"/>
<path d="M27.8711 27.8709C28.4412 27.8709 28.9034 27.4088 28.9034 26.8387C28.9034 26.2686 28.4412 25.8064 27.8711 25.8064C27.301 25.8064 26.8389 26.2686 26.8389 26.8387C26.8389 27.4088 27.301 27.8709 27.8711 27.8709Z" fill="#333333"/>
<path d="M36.1289 27.8709C36.699 27.8709 37.1612 27.4088 37.1612 26.8387C37.1612 26.2686 36.699 25.8064 36.1289 25.8064C35.5588 25.8064 35.0967 26.2686 35.0967 26.8387C35.0967 27.4088 35.5588 27.8709 36.1289 27.8709Z" fill="#333333"/>
<path d="M44.3868 27.8709C44.9569 27.8709 45.419 27.4088 45.419 26.8387C45.419 26.2686 44.9569 25.8064 44.3868 25.8064C43.8167 25.8064 43.3545 26.2686 43.3545 26.8387C43.3545 27.4088 43.8167 27.8709 44.3868 27.8709Z" fill="#333333"/>
</g>
</svg>
