<svg width="64" height="64" fill="none" xmlns="http://www.w3.org/2000/svg"><g opacity=".4"><path d="M46.938 52H17.061v-5.364c0-.939-.417-1.768-1.062-2.334V19h32v25.302a3.095 3.095 0 00-1.063 2.334V52z" stroke="#333" stroke-width="2"/><path d="M56.564 7.779C56.834 7.24 57 6.642 57 6c0-2.206-1.794-4-4-4s-4 1.794-4 4h2c0-1.103.897-2 2-2s2 .897 2 2-.897 2-2 2c-2.468 0-4.4-1.363-6.639-2.941C43.663 3.156 40.604 1 36 1c-1.641 0-3.088.806-4 2.031C31.088 1.806 29.641 1 28 1c-4.604 0-7.663 2.156-10.361 4.059C15.4 6.637 13.468 8 11 8c-1.103 0-2-.897-2-2s.897-2 2-2 2 .897 2 2h2c0-2.206-1.794-4-4-4S7 3.794 7 6c0 .643.167 1.243.438 1.782l-.012.005L10 14.193V56c0 1.371.93 2.518 2.188 2.874L13.219 63h9.562l.999-4h16.44l.999 4h9.562l1.031-4.126A2.994 2.994 0 0054 56V14.193l2.575-6.41-.011-.004zM18.791 6.693C21.367 4.878 24.03 3 28 3c1.654 0 3 1.346 3 3s-1.346 3-3 3-3-1.346-3-3V5h-2v1c0 2.757 2.243 5 5 5 1.641 0 3.088-.806 4-2.031.912 1.225 2.359 2.031 4 2.031 2.757 0 5-2.243 5-5V5h-2v1c0 1.654-1.346 3-3 3s-3-1.346-3-3 1.346-3 3-3c3.97 0 6.633 1.878 9.209 3.693C47.515 8.319 49.898 10 53 10c.189 0 .37-.03.552-.056L52.324 13H11.676l-1.228-3.056c.182.026.363.056.552.056 3.102 0 5.485-1.681 7.791-3.307zM52 43.184A2.966 2.966 0 0051 43h-2c-1.654 0-3 1.346-3 3v5H18v-5c0-1.654-1.346-3-3-3h-2c-.352 0-.686.072-1 .184V15h40v28.184zM21.219 61h-6.438l-.501-2h7.439l-.5 2zm21.562 0l-.501-2h7.439l-.501 2h-6.437zM52 56a1 1 0 01-1 1H13a1 1 0 01-1-1V46a1 1 0 011-1h2a1 1 0 011 1v7h32v-7a1 1 0 011-1h2a1 1 0 011 1v10z" fill="#333"/><path d="M35 5h2v2h-2V5zm-8 0h2v2h-2V5zm.287 18.709l1.414-1.414 15.997 15.997-1.414 1.414L27.287 23.71zm-4 3.999l1.414-1.414 15.997 15.997-1.414 1.414-15.997-15.997zm-4 3.999l1.414-1.414L36.698 46.29l-1.414 1.414-15.997-15.997z" fill="#333"/></g></svg>