<svg width="64" height="64" fill="none" xmlns="http://www.w3.org/2000/svg"><g opacity=".4" fill="#333"><path d="M61.935 57.998H64v2.064h-2.065v-2.064zm-57.805 0h55.741v2.064H4.131v-2.064zm-4.128 0h2.064v2.064H.002v-2.064z"/><path d="M18.452 32.385a40.35 40.35 0 001.041-1.563l8.379 3.81v9.657a4.133 4.133 0 01-4.13 4.13 4.135 4.135 0 01-4.046-3.313 3.094 3.094 0 001.982-2.881 3.1 3.1 0 00-3.096-3.097 3.1 3.1 0 00-3.097 3.097 3.09 3.09 0 002.131 2.927c.423 3.007 3.005 5.33 6.127 5.33a6.163 6.163 0 004.129-1.589v9.847h2.064V13.322h4.13V58.74h2.064v-9.847a6.163 6.163 0 004.128 1.59c3.122 0 5.704-2.324 6.127-5.33a3.09 3.09 0 002.131-2.928 3.1 3.1 0 00-3.096-3.097 3.1 3.1 0 00-3.097 3.097c0 1.314.825 2.432 1.982 2.88a4.134 4.134 0 01-4.047 3.313 4.133 4.133 0 01-4.128-4.129v-9.657l22.047-10.023c.22.03.436.068.662.068a5.167 5.167 0 005.16-5.161 5.166 5.166 0 00-5.16-5.161c-2.349 0-4.314 1.586-4.936 3.737L36.13 26.17V12.533l2.186-4.372L35.736 3h-7.47l-2.58 5.161 2.186 4.373V26.17l-5.008-2.276a20.67 20.67 0 00.486-1.671c.82-3.445.337-6-1.358-7.196-1.914-1.349-4.956-.614-8.387 1.977-4.194-1.515-9.055-.13-11.748 3.685a10.077 10.077 0 00-1.706 7.576 10.085 10.085 0 002.179 4.727c-1.285 4.098-.958 7.205.957 8.554.643.453 1.407.67 2.26.67 3.54.002 8.607-3.74 12.905-9.83zm.13 8.808a1.032 1.032 0 110 2.064 1.032 1.032 0 010-2.064zm26.838 0a1.032 1.032 0 110 2.064 1.032 1.032 0 010-2.064zM29.542 11.258L28.51 9.193h6.982l-1.032 2.065h-4.918zm29.297 5.161a3.1 3.1 0 013.096 3.097 3.1 3.1 0 01-3.096 3.096 3.1 3.1 0 01-3.097-3.096 3.1 3.1 0 013.097-3.097zm-5.07 4a5.14 5.14 0 001.84 3.09l-19.48 8.855v-3.926l17.64-8.018zM34.46 5.065l1.033 2.065H28.51l1.032-2.065h4.918zm-6.587 23.374v3.926l-7.315-3.325a32.22 32.22 0 001.584-3.206l5.73 2.605zM3.545 21.881c2.57-3.645 7.628-4.515 11.27-1.95h.001c-.865 2.338-2.17 4.8-3.848 7.179-1.678 2.38-3.561 4.435-5.473 6.034a8.028 8.028 0 01-3.31-5.228 8.024 8.024 0 011.36-6.035zm.93 17.98c-.965-.68-1.114-2.677-.464-5.258.099.075.19.156.294.229l3.312 2.334 1.19-1.688-1.558-1.097c1.898-1.658 3.75-3.734 5.405-6.081 1.659-2.352 2.975-4.793 3.9-7.142l1.572 1.109 1.188-1.688-3.312-2.335c-.102-.072-.21-.131-.314-.198 2.215-1.48 4.145-2.011 5.112-1.33.931.657 1.133 2.537.539 5.03-.685 2.882-2.311 6.237-4.578 9.45C12.091 37.82 6.423 41.23 4.475 39.86z"/></g></svg>