<svg width="76" height="76" fill="none" xmlns="http://www.w3.org/2000/svg"><g opacity=".4" fill="#333"><path d="M73.548 17.774h-4.903a2.44 2.44 0 00-1.651.651 3.75 3.75 0 00-2.112-.65H11.118a3.75 3.75 0 00-2.113.65 2.435 2.435 0 00-1.65-.65H2.452A2.454 2.454 0 000 20.224v35.55c0 1.351 1.1 2.45 2.452 2.45h71.096A2.454 2.454 0 0076 55.774v-35.55c0-1.351-1.1-2.45-2.452-2.45zM9.806 38.613h26.968v6.129H9.806v-6.13zm29.42 0h26.968v6.129H39.226v-6.13zM11.118 20.226h53.764c.723 0 1.312.588 1.312 1.311V34.85c0 .723-.589 1.311-1.312 1.311H11.118a1.313 1.313 0 01-1.312-1.311V21.537c0-.723.589-1.311 1.312-1.311zm62.43 35.548H2.452V20.226h4.903v24.516c0 1.352 1.1 2.452 2.451 2.452h56.388c1.352 0 2.451-1.1 2.451-2.452V20.226h4.903v35.548z"/><path d="M13.484 25.13a1.226 1.226 0 100-2.452 1.226 1.226 0 000 2.451zm4.903 8.58a1.226 1.226 0 100-2.452 1.226 1.226 0 000 2.452zm4.903-8.58a1.226 1.226 0 100-2.452 1.226 1.226 0 000 2.451zm4.904 8.58a1.226 1.226 0 100-2.452 1.226 1.226 0 000 2.452zm4.903-8.58a1.226 1.226 0 100-2.452 1.226 1.226 0 000 2.451zM38 33.71a1.226 1.226 0 100-2.452 1.226 1.226 0 000 2.452zm4.904-8.58a1.226 1.226 0 100-2.452 1.226 1.226 0 000 2.451zm4.903 8.58a1.226 1.226 0 100-2.452 1.226 1.226 0 000 2.452zm4.903-8.58a1.226 1.226 0 100-2.452 1.226 1.226 0 000 2.451zm4.902 8.58a1.226 1.226 0 100-2.452 1.226 1.226 0 000 2.452zm4.904-8.58a1.226 1.226 0 100-2.452 1.226 1.226 0 000 2.451z"/></g></svg>