<svg width="64" height="64" fill="none" xmlns="http://www.w3.org/2000/svg"><g opacity=".4"><path d="M18.58 60.806h-3.613l-3.613-4.817v-1.543l.287-.863c.495-1.484.746-3.028.746-4.59 0-2.242-.53-4.487-1.533-6.492l-.532-1.064v-4.372h2.065v3.885l.314.628a16.66 16.66 0 011.75 7.415c0 1.785-.286 3.55-.85 5.243l-.182.544v.521l2.58 3.44h.517V37.066h2.064v23.741zm30.452 0h-3.613V37.065h2.065v21.677H48l2.58-3.44v-.522l-.181-.544a16.535 16.535 0 01-.851-5.243c0-2.56.605-5.125 1.75-7.415l.314-.628v-3.886h2.065v4.373l-.532 1.063a14.588 14.588 0 00-1.533 6.493c0 1.563.252 3.107.746 4.59l.287.863v1.543l-3.613 4.817zM45.42 16.42C45.42 9.02 39.4 3 32 3h-1.032v5.161h2.064v-3.05c5.78.523 10.323 5.394 10.323 11.308 0 5.152-3.408 9.561-8.258 10.922v-2.935h-2.065v5.433h-2.064v-5.432h-2.065v5.432H26.84a2.067 2.067 0 00-2.065 2.064V35h2.065v-3.097h10.32V35h2.065v-3.097a2.067 2.067 0 00-2.065-2.064h-2.064v-.37A13.364 13.364 0 0045.42 16.42zM30.968 36.032h2.064v2.065h-2.064v-2.065z" fill="#333"/><path d="M8.258 35h47.484v2.065H8.258V35z" fill="#333"/><path d="M32 24.71c-4.57 0-8.29-3.72-8.29-8.29 0-4.572 3.72-8.291 8.29-8.291 4.571 0 8.29 3.72 8.29 8.29 0 4.57-3.719 8.29-8.29 8.29z" stroke="#333" stroke-width="2"/><path d="M35.097 36.032h4.129v2.065h-4.13v-2.065zm-10.323 0h4.13v2.065h-4.13v-2.065z" fill="#333"/></g></svg>