<svg width="64" height="64" fill="none" xmlns="http://www.w3.org/2000/svg"><g opacity=".4" fill="#333"><path d="M54.71 53.782V8.068a3.092 3.092 0 002.064-2.907V3.097A3.1 3.1 0 0053.677 0H10.322a3.1 3.1 0 00-3.096 3.097V5.16c0 1.344.866 2.48 2.064 2.907v45.714a5.17 5.17 0 00-4.129 5.057V64H58.84v-5.161a5.171 5.171 0 00-4.13-5.057zM13.42 8.258v45.42h-2.065V8.257h2.064zm2.064 22.71h33.032v2.064H15.484v-2.064zm33.032-2.065H15.484V8.258h33.032v20.645zm-33.032 6.194h33.032v18.58H15.484v-18.58zM50.58 8.258h2.065v45.42H50.58V8.257zM9.29 3.097c0-.569.463-1.032 1.032-1.032h43.355c.57 0 1.032.463 1.032 1.032V5.16c0 .57-.462 1.033-1.032 1.033H10.322c-.57 0-1.032-.464-1.032-1.033V3.097zm47.484 58.838H7.226V58.84a3.1 3.1 0 013.096-3.097h43.355a3.1 3.1 0 013.097 3.097v3.096z"/><path d="M39.226 16.516v-6.193H24.774v6.193h14.452zm-12.387-4.129H37.16v2.064H26.84v-2.064zm-2.065 24.774v6.194h14.452V37.16H24.774zm12.387 4.13H26.84v-2.065h10.32v2.064z"/></g></svg>