<svg width="64" height="64" fill="none" xmlns="http://www.w3.org/2000/svg"><g opacity=".4"><path d="M7.226 42.839h1.032v9.29h5.054l1.032-9.29h1.14v-6.194H7.226v6.194zm4.236 7.226h-1.14v-7.226h1.944l-.804 7.226zM9.29 38.71h4.13v2.064H9.29V38.71zm47.484-2.065h-8.258v6.194h1.14l1.032 9.29h5.053v-9.29h1.033v-6.194zM50.58 38.71h4.13v2.064h-4.13V38.71zm3.097 11.355h-1.14l-.803-7.226h1.943v7.226zm-24.774-7.226h1.141l1.032 9.29h4.946l1.032-9.29h1.14v-6.194h-9.29v6.194zm5.269 7.226h-1.248l-.803-7.226h2.855l-.804 7.226zM30.968 38.71h5.161v2.064h-5.161V38.71z" fill="#333"/><path d="M53.677 37.71H10.323C5.183 37.71 1 33.527 1 28.387v-6.194c0-5.14 4.183-9.322 9.323-9.322h43.354c5.14 0 9.323 4.183 9.323 9.322v6.194c0 5.14-4.183 9.323-9.323 9.323z" stroke="#333" stroke-width="2"/><path d="M48.516 17.032H8.258v2.065h40.258v-2.065zm7.225 0h-5.16v2.065h5.16v-2.065z" fill="#333"/></g></svg>