<svg width="64" height="64" fill="none" xmlns="http://www.w3.org/2000/svg"><g opacity=".4" fill="#333"><path d="M58.839 15.483c-.888 0-2.705.606-4.13 1.284V7.226C54.71 3.242 51.468 0 47.485 0H16.516C12.533 0 9.29 3.242 9.29 7.226v9.541c-1.424-.678-3.241-1.284-4.129-1.284A5.167 5.167 0 000 20.644a5.17 5.17 0 004.129 5.057V64h6.194v-9.291h43.354V64h6.194V25.701A5.17 5.17 0 0064 20.644a5.167 5.167 0 00-5.161-5.161zM11.355 42.322V37.16c0-.57.462-1.032 1.032-1.032h17.549c.57 0 1.032.462 1.032 1.032v5.162c0 .57-.463 1.032-1.032 1.032H12.387c-.57 0-1.032-.463-1.032-1.032zm21.677 0V37.16c0-.57.463-1.032 1.033-1.032h17.548c.57 0 1.032.462 1.032 1.032v5.162c0 .57-.462 1.032-1.032 1.032H34.065c-.57 0-1.033-.463-1.033-1.032zM11.355 7.226a5.167 5.167 0 015.161-5.161h30.968a5.167 5.167 0 015.161 5.16v27.028a3.063 3.063 0 00-1.032-.19H34.065c-.796 0-1.516.311-2.065.806a3.072 3.072 0 00-2.064-.806H12.387c-.363 0-.708.075-1.032.19V7.226zm-3.097 54.71H6.194v-7.227h2.064v7.226zm49.548 0h-2.064v-7.227h2.064v7.226zM58.84 23.74h-1.033v28.903H6.194V23.741H5.16a3.1 3.1 0 01-3.096-3.097 3.1 3.1 0 013.096-3.097c.792 0 3.187.958 4.13 1.543v26.328h45.42V19.09c.942-.585 3.337-1.543 4.129-1.543a3.1 3.1 0 013.096 3.097 3.1 3.1 0 01-3.096 3.097z"/><path d="M15.483 9.29a1.032 1.032 0 100-2.064 1.032 1.032 0 000 2.064zm8.259 0a1.032 1.032 0 100-2.064 1.032 1.032 0 000 2.064zm8.258 0a1.032 1.032 0 100-2.064 1.032 1.032 0 000 2.064zm8.258 0a1.032 1.032 0 100-2.064 1.032 1.032 0 000 2.064zm8.258 0a1.032 1.032 0 100-2.064 1.032 1.032 0 000 2.064zm-28.903 6.194a1.032 1.032 0 100-2.065 1.032 1.032 0 000 2.065zm8.258 0a1.032 1.032 0 100-2.065 1.032 1.032 0 000 2.065zm8.258 0a1.032 1.032 0 100-2.065 1.032 1.032 0 000 2.065zm8.258 0a1.032 1.032 0 100-2.064 1.032 1.032 0 000 2.064zm-28.904 6.193a1.032 1.032 0 100-2.064 1.032 1.032 0 000 2.064zm8.259 0a1.032 1.032 0 100-2.064 1.032 1.032 0 000 2.064zm8.258 0a1.032 1.032 0 100-2.064 1.032 1.032 0 000 2.064zm8.258 0a1.032 1.032 0 100-2.064 1.032 1.032 0 000 2.064zm8.258 0a1.032 1.032 0 100-2.064 1.032 1.032 0 000 2.064zM19.613 27.87a1.032 1.032 0 100-2.064 1.032 1.032 0 000 2.065zm8.258 0a1.032 1.032 0 100-2.064 1.032 1.032 0 000 2.065zm8.258 0a1.032 1.032 0 100-2.064 1.032 1.032 0 000 2.065zm8.258 0a1.032 1.032 0 100-2.063 1.032 1.032 0 000 2.064z"/></g></svg>