<svg width="64" height="64" fill="none" xmlns="http://www.w3.org/2000/svg"><g opacity=".4"><path d="M45.419 0H18.58a6.2 6.2 0 00-6.193 6.194v4.129c0 3.046 2.212 5.58 5.113 6.093l-1.037 20.745h5.163l.568-11.355h19.611l.568 11.355h5.163L46.5 16.416c2.901-.513 5.113-3.047 5.113-6.093v-4.13A6.2 6.2 0 0045.42 0zM19.663 35.097h-1.03l.929-18.58h1.03l-.929 18.58zm2.996-18.58H41.34l.155 3.096H22.504l.155-3.097zm-.362 7.225l.104-2.065h19.198l.103 2.065H22.297zm22.04 11.355l-.93-18.58h1.03l.93 18.58h-1.03zm5.211-24.774a4.133 4.133 0 01-4.129 4.129H18.58a4.133 4.133 0 01-4.129-4.13V6.195a4.133 4.133 0 014.13-4.13h26.838a4.133 4.133 0 014.129 4.13v4.129zm-7.226 29.935H15.483v21.677c0 1.14.926 2.065 2.065 2.065h2.064a2.067 2.067 0 002.065-2.065V47.484h20.645v14.451c0 1.14.926 2.065 2.065 2.065h2.064a2.067 2.067 0 002.065-2.065V40.258h-6.194zm-22.71 21.677h-2.064V42.323h2.064v19.613zm2.065-16.516v-3.096h20.645v3.096H21.677zm24.774-3.096v19.612h-2.064V42.323h2.064z" fill="#333"/><path d="M21.16 5.161a2.583 2.583 0 00-2.58 2.581 2.583 2.583 0 002.58 2.58 2.583 2.583 0 002.581-2.58 2.583 2.583 0 00-2.58-2.58zm0 3.097a.518.518 0 01-.515-.516c0-.284.232-.516.516-.516.284 0 .516.232.516.516a.518.518 0 01-.516.516zm21.679-3.097a2.583 2.583 0 00-2.581 2.581 2.583 2.583 0 002.58 2.58 2.583 2.583 0 002.581-2.58 2.583 2.583 0 00-2.58-2.58zm0 3.097a.518.518 0 01-.517-.516.518.518 0 011.032 0 .518.518 0 01-.515.516z" fill="#333"/><path d="M49.58 41.322H14.42v-5.225h35.16v5.225z" stroke="#333" stroke-width="2"/></g></svg>