<svg width="64" height="64" fill="none" xmlns="http://www.w3.org/2000/svg"><g opacity=".4"><path d="M58 29c-3.401 0-5.127.531-6.796 1.044-1.598.492-3.107.956-6.207.956-3.101 0-4.61-.464-6.208-.956C37.12 29.531 35.394 29 31.993 29c-3.399 0-5.124.531-6.791 1.044-1.597.492-3.105.956-6.203.956-3.099 0-4.608-.464-6.205-.956C11.125 29.531 9.4 29 6 29" stroke="#333" stroke-width="2"/><path d="M49 7h-.616c-4.021-3.864-9.277-6-14.869-6h-3.029c-5.592 0-10.849 2.136-14.869 6H15C9.486 7 5 11.486 5 17v37c0 1.654 1.346 3 3 3h1v3c0 1.654 1.346 3 3 3h2c1.654 0 3-1.346 3-3v-3h30v3c0 1.654 1.346 3 3 3h2c1.654 0 3-1.346 3-3v-3h1c1.654 0 3-1.346 3-3V17c0-5.514-4.486-10-10-10zM30.485 3h3.029a19.35 19.35 0 0113.263 5.21L43 15.764V13c0-1.654-1.346-3-3-3H26c-2.757 0-5 2.243-5 5v.764L17.223 8.21A19.346 19.346 0 0130.485 3zM41 13v8c0 1.654-1.346 3-3 3H24c-.551 0-1-.448-1-1v-8c0-1.654 1.346-3 3-3h14c.551 0 1 .448 1 1zM15 9h.382l4 8H7c0-4.411 3.589-8 8-8zm0 51c0 .552-.449 1-1 1h-2c-.551 0-1-.448-1-1v-3h4v3zm38 0c0 .552-.449 1-1 1h-2c-.551 0-1-.448-1-1v-3h4v3zm4-6c0 .552-.449 1-1 1H8c-.551 0-1-.448-1-1v-3h50v3zM7.101 49A5.009 5.009 0 0112 45h40a5.01 5.01 0 014.899 4H7.101zM57 45.111A6.973 6.973 0 0052 43H12c-1.958 0-3.728.81-5 2.111V19h14v4c0 1.654 1.346 3 3 3h14c2.757 0 5-2.243 5-5v-2h14v26.111zM44.618 17l4-8H49c4.411 0 8 3.589 8 8H44.618z" fill="#333"/><path d="M29 35c0 1.654 1.346 3 3 3v-2a1.001 1.001 0 010-2v-2c-1.654 0-3 1.346-3 3zm-17 0v2a1.001 1.001 0 010 2c-.551 0-1-.448-1-1H9c0 1.654 1.346 3 3 3s3-1.346 3-3-1.346-3-3-3zm40 5v-2a1.001 1.001 0 010-2c.551 0 1 .448 1 1h2c0-1.654-1.346-3-3-3s-3 1.346-3 3 1.346 3 3 3zm-14-5v2a1.001 1.001 0 010 2c-.551 0-1-.448-1-1h-2c0 1.654 1.346 3 3 3s3-1.346 3-3-1.346-3-3-3zm-16 4a1.001 1.001 0 010-2v-2c-1.654 0-3 1.346-3 3s1.346 3 3 3 3-1.346 3-3h-2c0 .552-.449 1-1 1z" fill="#333"/></g></svg>