<svg width="76" height="76" viewBox="0 0 76 76" fill="none" xmlns="http://www.w3.org/2000/svg">
<g opacity="0.4">
<path d="M73.5484 17.7742H68.6452C68.0077 17.7742 67.4304 18.0255 66.994 18.4251C66.3909 18.0157 65.664 17.7742 64.8819 17.7742H11.1181C10.3348 17.7742 9.60787 18.0157 9.00478 18.4251C8.56961 18.0255 7.99226 17.7742 7.35484 17.7742H2.45161C1.09955 17.7742 0 18.8737 0 20.2258V55.7742C0 57.1262 1.09955 58.2258 2.45161 58.2258H73.5484C74.9005 58.2258 76 57.1262 76 55.7742V20.2258C76 18.8737 74.9005 17.7742 73.5484 17.7742ZM9.80645 38.6129H11.1181H36.7742V44.7419H9.80645V38.6129ZM39.2258 38.6129H64.8819H66.1936V44.7419H39.2258V38.6129ZM11.1181 20.2258H64.8819C65.6052 20.2258 66.1936 20.8142 66.1936 21.5374V34.8497C66.1936 35.5729 65.6052 36.1613 64.8819 36.1613H39.2258H36.7742H11.1181C10.3948 36.1613 9.80645 35.5729 9.80645 34.8497V21.5374C9.80645 20.8142 10.3948 20.2258 11.1181 20.2258ZM73.5484 55.7742H2.45161V20.2258H7.35484V21.5374V34.8497V38.6129V44.7419C7.35484 46.094 8.45439 47.1935 9.80645 47.1935H36.7742H39.2258H66.1936C67.5456 47.1935 68.6452 46.094 68.6452 44.7419V38.6129V34.8497V21.5374V20.2258H73.5484V55.7742Z" fill="#333333"/>
<path d="M13.4836 25.1291C14.1606 25.1291 14.7094 24.5803 14.7094 23.9033C14.7094 23.2263 14.1606 22.6775 13.4836 22.6775C12.8066 22.6775 12.2578 23.2263 12.2578 23.9033C12.2578 24.5803 12.8066 25.1291 13.4836 25.1291Z" fill="#333333"/>
<path d="M18.3869 33.7097C19.0639 33.7097 19.6127 33.1609 19.6127 32.4839C19.6127 31.8069 19.0639 31.2581 18.3869 31.2581C17.7099 31.2581 17.1611 31.8069 17.1611 32.4839C17.1611 33.1609 17.7099 33.7097 18.3869 33.7097Z" fill="#333333"/>
<path d="M23.2903 25.1291C23.9673 25.1291 24.5161 24.5803 24.5161 23.9033C24.5161 23.2263 23.9673 22.6775 23.2903 22.6775C22.6133 22.6775 22.0645 23.2263 22.0645 23.9033C22.0645 24.5803 22.6133 25.1291 23.2903 25.1291Z" fill="#333333"/>
<path d="M28.1936 33.7097C28.8706 33.7097 29.4194 33.1609 29.4194 32.4839C29.4194 31.8069 28.8706 31.2581 28.1936 31.2581C27.5166 31.2581 26.9678 31.8069 26.9678 32.4839C26.9678 33.1609 27.5166 33.7097 28.1936 33.7097Z" fill="#333333"/>
<path d="M33.0969 25.1291C33.7739 25.1291 34.3227 24.5803 34.3227 23.9033C34.3227 23.2263 33.7739 22.6775 33.0969 22.6775C32.4199 22.6775 31.8711 23.2263 31.8711 23.9033C31.8711 24.5803 32.4199 25.1291 33.0969 25.1291Z" fill="#333333"/>
<path d="M38.0002 33.7097C38.6772 33.7097 39.226 33.1609 39.226 32.4839C39.226 31.8069 38.6772 31.2581 38.0002 31.2581C37.3232 31.2581 36.7744 31.8069 36.7744 32.4839C36.7744 33.1609 37.3232 33.7097 38.0002 33.7097Z" fill="#333333"/>
<path d="M42.9035 25.1291C43.5805 25.1291 44.1293 24.5803 44.1293 23.9033C44.1293 23.2263 43.5805 22.6775 42.9035 22.6775C42.2265 22.6775 41.6777 23.2263 41.6777 23.9033C41.6777 24.5803 42.2265 25.1291 42.9035 25.1291Z" fill="#333333"/>
<path d="M47.8069 33.7097C48.4839 33.7097 49.0327 33.1609 49.0327 32.4839C49.0327 31.8069 48.4839 31.2581 47.8069 31.2581C47.1299 31.2581 46.5811 31.8069 46.5811 32.4839C46.5811 33.1609 47.1299 33.7097 47.8069 33.7097Z" fill="#333333"/>
<path d="M52.7092 25.1291C53.3862 25.1291 53.935 24.5803 53.935 23.9033C53.935 23.2263 53.3862 22.6775 52.7092 22.6775C52.0322 22.6775 51.4834 23.2263 51.4834 23.9033C51.4834 24.5803 52.0322 25.1291 52.7092 25.1291Z" fill="#333333"/>
<path d="M57.6125 33.7097C58.2895 33.7097 58.8383 33.1609 58.8383 32.4839C58.8383 31.8069 58.2895 31.2581 57.6125 31.2581C56.9355 31.2581 56.3867 31.8069 56.3867 32.4839C56.3867 33.1609 56.9355 33.7097 57.6125 33.7097Z" fill="#333333"/>
<path d="M62.5158 25.1291C63.1928 25.1291 63.7416 24.5803 63.7416 23.9033C63.7416 23.2263 63.1928 22.6775 62.5158 22.6775C61.8388 22.6775 61.29 23.2263 61.29 23.9033C61.29 24.5803 61.8388 25.1291 62.5158 25.1291Z" fill="#333333"/>
</g>
</svg>
