<svg width="64" height="64" fill="none" xmlns="http://www.w3.org/2000/svg"><g opacity=".4"><path d="M6.161 33.065V6.16h16.58v26.904H6.162z" stroke="#333" stroke-width="2"/><path d="M28.903 18.58V0H0v64h64V18.581H28.903zm33.032 2.065v5.161H28.904v-5.16h33.032zm-33.032 7.226h15.484v18.58H28.903v-18.58zM26.84 2.065V37.16H2.065V2.065h24.774zM2.065 39.225h24.774v7.227H2.065v-7.226zm0 9.291h24.774v7.226H2.065v-7.226zm59.87 13.42H2.066v-4.13h59.87v4.13zm0-6.194H28.904v-7.226h33.032v7.226zm-15.483-9.29V27.87h15.483v18.58H46.453z" fill="#333"/><path d="M17.548 51.613h-6.193v2.064h6.193v-2.064zm0-9.291h-6.193v2.065h6.193v-2.065zm30.968 9.291h-6.194v2.064h6.194v-2.064zm0-28.903h-6.194v2.064h6.194V22.71zm-6.194 11.355h-2.064v4.129h2.064v-4.13zm8.259 0h-2.064v4.129h2.064v-4.13z" fill="#333"/></g></svg>