<svg width="140" height="140" fill="none" xmlns="http://www.w3.org/2000/svg"><path opacity=".05" fill-rule="evenodd" clip-rule="evenodd" d="M58.808 3.035c12.35-1.19 21.733 10.827 32.799 16.927 13.9 7.663 33.568 8 40.246 23.343 6.658 15.297-3.781 32.615-8.939 48.586-5.016 15.532-7.051 35.259-20.535 42.675-13.454 7.399-28.882-3.756-43.571-7.419-10.929-2.725-22.05-4.082-31.156-11.213-9.143-7.159-16.55-16.95-19.81-28.698-3.218-11.597-2.04-24.115 2.027-35.391 3.896-10.798 12.246-18.11 20.099-25.942 8.99-8.967 16.702-21.698 28.84-22.868z" fill="#0B9EC7"/><path opacity=".05" fill-rule="evenodd" clip-rule="evenodd" d="M70.9.397c14.268 2.135 21.716 18.833 33.173 28.346 11.081 9.2 27.188 12.509 32.781 26.417 5.73 14.251 3.166 31.835-3.928 45.337-6.518 12.404-20.688 15.862-32.013 23.066-9.907 6.303-18.56 15.71-30.013 16.393-11.775.702-21.844-7.152-32.497-12.666-13.518-6.997-34.31-7.982-37.965-23.804-3.725-16.128 17.378-26.301 22.803-41.845 4.973-14.247-1.911-32.305 7.134-43.93C39.998 5.348 56.165-1.808 70.9.398z" fill="#0B9EC7"/><path d="M76.513 45.684l1.823 1.737h11.03l-3.127-1.737h-9.726zm-9.726 0l-1.824 1.737h10.074l-1.824-1.737h-6.426zm-26.313 1.737h6.165l3.56-1.737h-5.557l-4.168 1.737zm23.447 5.037c0 3.56 2.518 6.426 6.079 6.426 3.56 0 6.079-2.865 6.079-6.426v-2.432H63.92v2.432z" fill="#007AAD"/><path d="M93.707 56.018a8.945 8.945 0 01-15.979 1.042A9.032 9.032 0 0170 61.49a9.205 9.205 0 01-7.728-4.343 8.945 8.945 0 01-15.98-1.215l-.607.52c.086.087 0 .261 0 .522v21.71h48.631v-21.71c0-.26-.087-.434 0-.521l-.608-.435z" fill="#0B9EC7"/><path d="M48.29 52.458a6.513 6.513 0 1013.026 0v-2.432H48.288v2.432zm15.197-6.774h-8.51l-3.735 1.737h10.421l1.824-1.737z" fill="#007AAD"/><path d="M44.295 43.079h52.887c.26 0 .694-.087.868.087l2.345 1.302v-2.605a3.388 3.388 0 00-3.3-3.126h-54.19a3.387 3.387 0 00-3.3 3.126v3.126l3.908-1.91c.174-.087.521 0 .782 0zm52.626 14.763v21.71a1.998 1.998 0 01-1.563 1.738H44.642a1.997 1.997 0 01-1.563-1.737v-21.71a7.384 7.384 0 01-2.258.433l-1.215-.173v24.316a3.474 3.474 0 003.3 3.213h54.189a3.474 3.474 0 003.3-3.213V58.103l-1.216.173a7.383 7.383 0 01-2.258-.434z" fill="#0B9EC7"/><path d="M94.315 50.026v1.13a4.342 4.342 0 108.684 0v-1.13h-8.684z" fill="#007AAD"/><path d="M79.553 88.237H60.447v6.079h19.106v-6.08zm6.947 8.684H52.632v4.342H86.5v-4.342z" fill="#0B9EC7"/><path d="M85.198 58.884a6.513 6.513 0 006.513-6.426v-2.432H78.685v2.432a6.513 6.513 0 006.513 6.426zm11.637-13.2h-6.34l2.953 1.737h6.86l-3.474-1.737zm-51.151 5.471v-1.129H37v1.13a4.342 4.342 0 108.684 0z" fill="#007AAD"/></svg>