<svg width="140" height="140" fill="none" xmlns="http://www.w3.org/2000/svg"><g clip-path="url(#clip0)"><path opacity=".05" fill-rule="evenodd" clip-rule="evenodd" d="M136.965 58.808c1.19 12.351-10.827 21.734-16.927 32.8-7.663 13.9-8 33.567-23.343 40.245-15.297 6.659-32.615-3.78-48.586-8.938-15.532-5.017-35.259-7.051-42.675-20.536-7.399-13.454 3.756-28.882 7.419-43.57 2.725-10.93 4.082-22.05 11.213-31.156 7.16-9.143 16.95-16.551 28.698-19.81C64.36 4.623 76.879 5.802 88.155 9.87c10.798 3.895 18.11 12.246 25.942 20.098 8.967 8.99 21.698 16.703 22.868 28.84z" fill="#0B9EC7"/><path opacity=".05" fill-rule="evenodd" clip-rule="evenodd" d="M139.603 70.9c-2.135 14.268-18.833 21.716-28.346 33.173-9.201 11.081-12.509 27.188-26.417 32.781-14.251 5.73-31.835 3.166-45.337-3.928-12.404-6.518-15.862-20.688-23.066-32.013C10.134 91.006.727 82.353.044 70.9-.658 59.125 7.196 49.056 12.71 38.403 19.707 24.886 20.692 4.093 36.514.438 52.642-3.287 62.815 17.816 78.36 23.241c14.247 4.973 32.305-1.911 43.929 7.134 12.365 9.622 19.521 25.79 17.315 40.525z" fill="#0B9EC7"/><path d="M77.09 77.09h23.719v7.476h-23.72V77.09zm0 22.816h19.85v1.16a1.934 1.934 0 103.868 0V88.434h-23.72v11.472zm0-34.16h23.719v7.477h-23.72v-7.477z" fill="#007AAD"/><path d="M100.938 37H39.062a1.934 1.934 0 100 3.867h61.876a1.934 1.934 0 000-3.867zM57.496 99.906h15.727V44.734H57.496v55.172zm5.42-31.834a1.928 1.928 0 110 3.856 1.928 1.928 0 010-3.856z" fill="#0B9EC7"/><path d="M77.09 44.734h23.719V61.88h-23.72V44.734z" fill="#007AAD"/><path d="M39.191 101.066a1.934 1.934 0 103.868 0v-1.16h10.57V44.734H39.19v56.332zm9.153-32.994a1.928 1.928 0 110 3.856 1.928 1.928 0 010-3.856z" fill="#0B9EC7"/></g><defs><clipPath id="clip0"><path fill="#fff" transform="rotate(90 70 70)" d="M0 0h140v140H0z"/></clipPath></defs></svg>