<svg width="140" height="140" fill="none" xmlns="http://www.w3.org/2000/svg"><g clip-path="url(#clip0)"><path opacity=".05" fill-rule="evenodd" clip-rule="evenodd" d="M3.035 81.192c-1.19-12.351 10.827-21.734 16.927-32.8 7.663-13.9 8-33.567 23.343-40.245 15.297-6.659 32.615 3.78 48.586 8.938 15.532 5.017 35.259 7.051 42.675 20.536 7.399 13.454-3.756 28.882-7.419 43.57-2.725 10.93-4.082 22.051-11.213 31.156-7.159 9.143-16.95 16.551-28.698 19.811-11.597 3.218-24.115 2.04-35.391-2.028-10.798-3.895-18.11-12.246-25.942-20.098-8.967-8.991-21.698-16.703-22.868-28.84z" fill="#0B9EC7"/><path opacity=".05" fill-rule="evenodd" clip-rule="evenodd" d="M.397 69.1C2.532 54.832 19.23 47.384 28.743 35.927c9.2-11.081 12.509-27.188 26.417-32.781 14.25-5.73 31.835-3.166 45.337 3.928 12.404 6.518 15.862 20.688 23.066 32.013 6.303 9.907 15.71 18.56 16.393 30.013.702 11.775-7.152 21.844-12.666 32.497-6.997 13.518-7.982 34.311-23.804 37.965-16.128 3.725-26.301-17.378-41.845-22.803-14.247-4.972-32.305 1.911-43.93-7.134C5.348 100.003-1.808 83.835.398 69.1z" fill="#0B9EC7"/><path d="M61.455 77.479a5.51 5.51 0 00-5.508 5.517 5.509 5.509 0 0011.016 0 5.51 5.51 0 00-5.508-5.517zm0 8.271a2.757 2.757 0 01-2.754-2.754 2.752 2.752 0 012.754-2.754 2.752 2.752 0 012.754 2.754 2.757 2.757 0 01-2.754 2.754zM103 73.404v5.881a2.657 2.657 0 01-2.657 2.657H97.5a7.299 7.299 0 00-7.217-6.234c-3.658 0-6.695 2.71-7.209 6.234H68.665c-.513-3.525-3.55-6.234-7.208-6.234-3.658 0-6.696 2.71-7.209 6.234h-3.56a2.657 2.657 0 01-2.657-2.657v-5.881H103zm-12.71 4.075a5.518 5.518 0 00-5.517 5.517 5.516 5.516 0 005.517 5.508 5.514 5.514 0 005.508-5.508 5.516 5.516 0 00-5.508-5.517zm0 8.271a2.757 2.757 0 01-2.754-2.754 2.752 2.752 0 012.754-2.754 2.757 2.757 0 012.754 2.754 2.763 2.763 0 01-2.754 2.754zm11.663-18.27l-10.44-10.326a3.55 3.55 0 00-2.49-1.027h-5.269v-1.975a2.653 2.653 0 00-2.656-2.657H50.686a2.659 2.659 0 00-2.657 2.657v.416l-10.781 1.243 19.104 2.488L37 60.22l19.284 2.742L37 64.635l11.03 2.08v5.22h54.968v-1.94a3.56 3.56 0 00-1.045-2.515zm-4.552.346H87.297a.416.416 0 01-.417-.416v-7.803c0-.23.186-.416.417-.416h1.921a.45.45 0 01.293.115l8.174 7.802a.416.416 0 01-.284.718z" fill="#0B9EC7"/><path d="M61.455 77.479a5.51 5.51 0 00-5.508 5.517 5.509 5.509 0 0011.016 0 5.51 5.51 0 00-5.508-5.517zm0 8.271a2.757 2.757 0 01-2.754-2.754 2.752 2.752 0 012.754-2.754 2.752 2.752 0 012.754 2.754 2.757 2.757 0 01-2.754 2.754zM103 73.404v5.882a2.657 2.657 0 01-2.657 2.656H97.5a7.3 7.3 0 00-7.217-6.234c-3.657 0-6.695 2.71-7.209 6.234H68.665c-.513-3.524-3.55-6.234-7.208-6.234-3.658 0-6.695 2.71-7.209 6.234h-3.56a2.657 2.657 0 01-2.657-2.656v-5.882H103zm-12.71 4.075a5.518 5.518 0 00-5.517 5.517 5.516 5.516 0 005.517 5.509 5.514 5.514 0 005.508-5.509 5.516 5.516 0 00-5.508-5.517zm0 8.271a2.757 2.757 0 01-2.754-2.754 2.752 2.752 0 012.754-2.754 2.757 2.757 0 012.754 2.754 2.763 2.763 0 01-2.754 2.754z" fill="#007AAD"/></g><defs><clipPath id="clip0"><path fill="#fff" transform="rotate(-90 70 70)" d="M0 0h140v140H0z"/></clipPath></defs></svg>