<svg width="36" height="36" fill="none" xmlns="http://www.w3.org/2000/svg"><g opacity=".4" fill="#333"><path d="M34.875 20.813v-2.25a.562.562 0 00-.563-.563H27v-.563a1.693 1.693 0 00-1.688-1.687h-.562v-1.125h2.813a1.693 1.693 0 001.687-1.688V2.813a1.693 1.693 0 00-1.688-1.688H8.438A1.693 1.693 0 006.75 2.813v10.124a1.693 1.693 0 001.688 1.688h2.812v1.125h-.563A1.693 1.693 0 009 17.438V18H1.687a.563.563 0 00-.562.563v2.25a.562.562 0 00.563.562h1.051l-1.608 12.87a.544.544 0 00.135.439.552.552 0 00.421.191h1.125a.563.563 0 00.54-.405l3.82-13.095H9v1.688a.562.562 0 00.563.562h1.687v1.125a.562.562 0 00.563.563h4.5v3.375h-3.938a.562.562 0 00-.563.562v2.351a1.687 1.687 0 101.126 0v-1.788h4.5V31.6a1.687 1.687 0 101.125 0v-1.788h4.5V31.6a1.687 1.687 0 101.125 0v-2.35a.562.562 0 00-.563-.563h-3.938v-3.375h4.5a.562.562 0 00.563-.562v-1.125h1.688a.562.562 0 00.562-.563v-1.687h1.828l3.82 13.095a.562.562 0 00.54.405h1.124a.552.552 0 00.422-.191.544.544 0 00.135-.439l-1.608-12.87h1.051a.562.562 0 00.563-.563zM2.391 33.75h-.068L3.87 21.375h2.132L2.39 33.75zM9 20.25H2.25v-1.125H9v1.125zm2.25 2.25h-1.125v-5.063a.562.562 0 01.563-.562h.562V22.5zm1.125 11.25a.562.562 0 110-1.125.562.562 0 010 1.125zm11.25-1.125a.562.562 0 110 1.125.562.562 0 010-1.125zM18 33.75a.562.562 0 110-1.125.562.562 0 010 1.125zm.563-5.063h-1.125v-3.375h1.125v3.375zm5.062-4.5h-11.25v-11.25a.562.562 0 01.563-.562h10.124a.562.562 0 01.563.563v11.25zm-9-12.937v-1.125a3.375 3.375 0 016.75 0v1.125h-6.75zm8.438 0H22.5v-1.125a4.5 4.5 0 10-9 0v1.125h-.563a1.693 1.693 0 00-1.687 1.688v.562H8.437a.563.563 0 01-.562-.563V2.813a.563.563 0 01.563-.563h19.124a.562.562 0 01.563.563v10.124a.562.562 0 01-.563.563H24.75v-.563a1.693 1.693 0 00-1.688-1.687zm2.812 11.25H24.75v-5.625h.563a.562.562 0 01.562.563V22.5zm7.802 11.25h-.068L30 21.375h2.131l1.547 12.375zm.073-13.5H27v-1.125h6.75v1.125z"/><path d="M25.875 6.188H27v-2.25a.563.563 0 00-.563-.563h-2.25V4.5h1.688v1.688zM27 7.313h-1.125v1.125H27V7.312z"/></g></svg>