<svg width="36" height="36" fill="none" xmlns="http://www.w3.org/2000/svg"><g opacity=".4" fill="#333"><path d="M33 0H3a.6.6 0 00-.6.6v34.8a.6.6 0 00.6.6h30a.6.6 0 00.6-.6V.6A.6.6 0 0033 0zM15.6 34.8h-12V1.2h12v33.6zm16.8 0H16.8v-3.6h15.6v3.6zm0-4.8H16.8v-3.6h15.6V30zm-12.527-5.824a.605.605 0 01.424-.176h8.607c.159 0 .311.064.424.176a.596.596 0 010 .848.605.605 0 01-.424.176h-8.607a.6.6 0 01-.424-1.024zm.103-2.4a.605.605 0 01.424-.176h8.606a.6.6 0 110 1.2H20.4a.6.6 0 01-.424-1.024zM32.4 25.2h-1.806a1.74 1.74 0 00-.307-1.74 1.8 1.8 0 00-1.28-3.06H20.4a1.79 1.79 0 00-1.384 2.94 1.768 1.768 0 00-.41 1.86H16.8V9.6H18v1.8a.6.6 0 101.2 0V9.6h1.2v1.8a.6.6 0 101.2 0V9.6h1.2v1.8a.6.6 0 101.2 0V9.6h1.2v1.8a.6.6 0 101.2 0V9.6h1.2v1.8a.6.6 0 101.2 0V9.6h1.8a.6.6 0 000-1.2h-1.8v-.6a.6.6 0 00-1.2 0v.6h-1.2v-.6a.6.6 0 00-1.2 0v.6H24v-.6a.6.6 0 00-1.2 0v.6h-1.2v-.6a.6.6 0 00-1.2 0v.6h-1.2v-.6a.6.6 0 00-1.2 0v.6h-1.2V6h15.6v19.2zm0-20.4H16.8V1.2h15.6v3.6z"/><path d="M25.8 32.4h-2.4a.6.6 0 000 1.2h2.4a.6.6 0 000-1.2zm0-4.8h-2.4a.6.6 0 000 1.2h2.4a.6.6 0 100-1.2zm-12.6-12a.6.6 0 00-.6.6v3a.6.6 0 001.2 0v-3a.6.6 0 00-.6-.6zM25.8 2.4h-2.4a.6.6 0 000 1.2h2.4a.6.6 0 100-1.2zm-15.761.176a.6.6 0 00-.864 0l-4.2 4.2a.6.6 0 00.849.848l4.2-4.2a.6.6 0 00.015-.848zm2.985.6a.6.6 0 00-.848 0l-7.2 7.2a.6.6 0 10.849.848l7.2-7.2a.6.6 0 000-.848z"/></g></svg>