<svg width="36" height="36" fill="none" xmlns="http://www.w3.org/2000/svg"><g opacity=".4" fill="#333"><path d="M14.823 25.725h-1.416a.486.486 0 110-.973h1.416a.487.487 0 010 .973z"/><path d="M34.151 25.725H23.079a.487.487 0 010-.973h10.975v-2.13H1.946v2.13h8.056a.486.486 0 110 .973H1.848a.876.876 0 01-.875-.875v-2.326a.876.876 0 01.875-.875h32.303a.876.876 0 01.876.875v2.326a.875.875 0 01-.876.875z"/><path d="M19.674 25.725h-1.445a.486.486 0 110-.973h1.445a.486.486 0 110 .973zm12.282 7.751h-3.101a.486.486 0 01-.487-.486v-7.754a.486.486 0 01.487-.486h3.101a.487.487 0 01.487.486v7.754a.487.487 0 01-.486.486zm-2.615-.973h2.129v-6.78h-2.129v6.78zm-22.195.973H4.044a.486.486 0 01-.486-.486v-7.754a.486.486 0 01.486-.486h3.102a.487.487 0 01.486.486v7.754a.486.486 0 01-.486.486zm-2.615-.973h2.128v-6.78H4.531v6.78zM30.405 7.115a.487.487 0 01-.486-.487V4.561a1.064 1.064 0 00-2.129 0v2.067a.487.487 0 01-.973 0V4.561a2.037 2.037 0 014.075 0v2.067a.487.487 0 01-.487.487zm0 15.507h-3.101a.486.486 0 01-.487-.487v-6.519a.486.486 0 11.973 0v6.033h2.129v-6.033a.487.487 0 01.973 0v6.52a.486.486 0 01-.487.486zM8.696 7.115a.486.486 0 01-.486-.487V4.561a1.064 1.064 0 00-2.129 0v2.067a.486.486 0 11-.973 0V4.561a2.037 2.037 0 014.075 0v2.067a.486.486 0 01-.487.487zm0 15.507H5.595a.486.486 0 01-.487-.487v-6.519a.487.487 0 01.973 0v6.033H8.21v-6.033a.487.487 0 01.973 0v6.52a.486.486 0 01-.487.486z"/><path d="M31.698 16.103H4.302A1.005 1.005 0 013.3 15.1V7.146a1.005 1.005 0 011.003-1.004h27.396A1.005 1.005 0 0132.7 7.146V15.1a1.004 1.004 0 01-1.003 1.002zM4.302 7.115l-.03.03v7.956l27.426.03.03-7.985-27.426-.031z"/><path d="M32.215 11.612H3.785a.487.487 0 110-.973h28.43a.486.486 0 110 .973z"/></g></svg>