<svg width="36" height="36" fill="none" xmlns="http://www.w3.org/2000/svg"><path d="M33.354 21.857v-5.94a2.324 2.324 0 00-2.321-2.321h-20.65a.529.529 0 100 1.057h20.65c.697 0 1.264.567 1.264 1.264v5.92h-2.374v-1.21a2.308 2.308 0 00-2.306-2.306h-5.564a2.308 2.308 0 00-2.305 2.306v1.21h-3.496v-1.21a2.308 2.308 0 00-2.305-2.306H8.383a2.308 2.308 0 00-2.306 2.306v1.21H3.703v-5.92c0-.697.567-1.264 1.264-1.264h3.3a.529.529 0 100-1.057h-3.3a2.324 2.324 0 00-2.321 2.32v5.94A2.978 2.978 0 000 24.813v7.95c0 .291.237.528.529.528h7.738a.529.529 0 100-1.057h-7.21V26.72h27.015a.529.529 0 100-1.058H1.057v-.85a1.92 1.92 0 011.917-1.918h30.052a1.92 1.92 0 011.917 1.917v.851h-4.756a.529.529 0 100 1.058h4.756v5.512h-24.56a.529.529 0 100 1.057H35.47a.529.529 0 00.529-.529v-7.949a2.978 2.978 0 00-2.646-2.956zm-12.549-1.23c0-.689.56-1.249 1.248-1.249h5.564c.689 0 1.249.56 1.249 1.249v1.211h-8.06v-1.211zm-13.67 0c0-.689.56-1.249 1.248-1.249h5.564c.688 0 1.248.56 1.248 1.249v1.211h-8.06v-1.211zm6.641-8.735h2.832a.529.529 0 100-1.057h-1.63l2.02-2.204c.304-.332.06-.886-.39-.886h-2.566a.529.529 0 100 1.058h1.364l-2.02 2.203c-.304.333-.06.886.39.886zm6.142-3.146h4.563a.529.529 0 100-1.058h-3.362l3.751-4.092c.305-.333.06-.886-.39-.886h-4.295a.534.534 0 00-.529.529c0 .288.24.528.529.528h3.094L19.528 7.86c-.305.332-.06.886.39.886z" opacity=".4" fill="#333"/></svg>