<svg width="36" height="36" fill="none" xmlns="http://www.w3.org/2000/svg"><g opacity=".4" fill="#000"><path d="M21.551 28.228a.71.71 0 100-1.42.71.71 0 000 1.42zm-7.102 0a.71.71 0 100-1.42.71.71 0 000 1.42zM29.648 0H6.351a1.95 1.95 0 00-1.948 1.948v23.857a.527.527 0 101.055 0V1.948c0-.493.4-.893.893-.893h23.297c.493 0 .893.4.893.893v7.417a.527.527 0 101.055 0V1.948A1.95 1.95 0 0029.648 0z"/><path d="M31.069 11.313a.527.527 0 00-.528.527v19.94c0 .492-.4.892-.893.892H6.351a.894.894 0 01-.893-.893v-3.5a.527.527 0 10-1.055 0v3.5a1.95 1.95 0 001.948 1.948h.325v1.746c0 .29.236.527.528.527h2.272a.527.527 0 00.528-.527v-1.746h15.992v1.746c0 .29.236.527.527.527h2.273a.527.527 0 00.527-.527v-1.746h.325a1.95 1.95 0 001.948-1.948V11.84a.527.527 0 00-.527-.526zM8.949 34.945H7.731v-1.218h1.218v1.218zm19.32 0H27.05v-1.218h1.218v1.218z"/><path d="M29.323 2.8a.527.527 0 00-.528-.527H7.203a.527.527 0 00-.527.527v19.035c0 .292.236.528.527.528h21.592a.527.527 0 00.528-.527V2.8zM7.73 11.71h20.538v1.218H7.73V11.71zm4.83-5.5V5.6h1.218v5.054H12.56V6.21zm4.546-.284V5.6h1.786v5.054h-1.786V5.925zm5.114 0V5.6h1.218v5.054H22.22V5.925zm3.491 4.729h-1.218V6.737h1.218v3.917zm-4.546 0h-1.218V6.453h1.218v4.201zm-5.114 0h-1.218V6.453h1.218v4.201zm-4.545 0h-1.219V6.737h1.219v3.917zm16.762-7.326v7.326h-1.502V6.21a.527.527 0 00-.528-.528h-1.745v-.609a.527.527 0 00-.527-.527h-2.273a.527.527 0 00-.528.527v.325h-1.218v-.325a.527.527 0 00-.527-.527h-2.841a.527.527 0 00-.527.527v.325h-1.219v-.325a.527.527 0 00-.527-.527h-2.273a.527.527 0 00-.527.527v.61H9.76a.527.527 0 00-.527.527v4.444H7.73V3.328h20.537zM11.79 21.308h-1.218v-3.917h1.218v3.917zm1.054-5.053h1.219v5.053h-1.219v-5.053zm2.273.852h1.218v4.201h-1.218v-4.201zm2.273-.852h1.218v5.053H17.39v-5.053zm2.273.852h1.218v4.201h-1.218v-4.201zm2.273 4.201v-5.053h1.218v5.053h-1.218zm2.273 0v-3.917h1.218v3.917h-1.218zm2.273 0v-4.444a.527.527 0 00-.528-.528H24.21v-.609a.527.527 0 00-.528-.527H21.41a.527.527 0 00-.528.527v.325h-1.218v-.325a.527.527 0 00-.527-.527h-2.273a.527.527 0 00-.527.527v.325h-1.219v-.325a.527.527 0 00-.527-.527h-2.273a.527.527 0 00-.527.527v.61h-1.746a.527.527 0 00-.527.527v4.444H7.731v-7.326h20.537v7.326h-1.786zM6.676 30.927c0 .291.236.527.527.527h9.66a.527.527 0 00.527-.527v-6.819a.527.527 0 00-.527-.527h-9.66a.527.527 0 00-.527.527v6.819zm1.054-6.291h8.605V30.4H7.73v-5.764zm21.06-1.055h-9.66a.527.527 0 00-.526.527v6.819c0 .291.236.527.527.527h9.66a.527.527 0 00.527-.527v-6.819a.527.527 0 00-.527-.527zm-.527 6.819h-8.605v-5.764h8.605V30.4z"/></g></svg>