<svg width="36" height="36" fill="none" xmlns="http://www.w3.org/2000/svg"><g opacity=".4" clip-path="url(#clip0)" fill="#333"><path d="M35.574 8.69a1.624 1.624 0 00-1.194-.525h-.481a2.4 2.4 0 00-2.405 2.202l-.52 5.926a1.004 1.004 0 01-1.006.922h-4.501a2.62 2.62 0 00-2.616 2.616v.26c0 .871.709 1.58 1.58 1.58h.965l-.95 3.103-.002.007-.727 2.372a.527.527 0 001.009.31l.612-2.001h7.233l.613 2a.527.527 0 101.008-.309l-1.724-5.63c.303-.085.595-.207.87-.364a.527.527 0 00-.525-.915 2.82 2.82 0 01-1.402.372h-6.98a.526.526 0 01-.526-.525v-.26c0-.861.7-1.562 1.562-1.562h4.502c1.078 0 1.962-.81 2.056-1.883l.52-5.926A1.352 1.352 0 0133.9 9.22h.48a.56.56 0 01.418.183.56.56 0 01.146.431l-.72 8.207a2.834 2.834 0 01-.117.595.527.527 0 001.007.313 3.9 3.9 0 00.16-.816l.72-8.207a1.625 1.625 0 00-.419-1.236zM26.5 21.671h4.912l.837 2.736h-6.587l.838-2.736zm-15.967-4.456H6.03c-.527 0-.96-.395-1.006-.92l-.52-5.927A2.4 2.4 0 002.1 8.166h-.48A1.624 1.624 0 00.005 9.928l.72 8.206a3.869 3.869 0 001.244 2.52c.45.413.985.708 1.561.872l-1.724 5.628a.527.527 0 001.009.31l.612-2.001h7.233l.613 2a.527.527 0 101.008-.309l-.726-2.372-.002-.007-.95-3.103h.965c.871 0 1.58-.709 1.58-1.58v-.26a2.62 2.62 0 00-2.616-2.617zM3.75 24.408l.838-2.736H9.5l.837 2.736H3.751zm8.343-4.316c0 .29-.236.525-.525.525h-6.98a2.805 2.805 0 01-2.812-2.576l-.72-8.206a.56.56 0 01.146-.431.56.56 0 01.417-.184h.48c.71 0 1.293.533 1.355 1.24l.52 5.927A2.053 2.053 0 006.03 18.27h4.502c.86 0 1.561.7 1.561 1.562v.26z"/><path d="M22.005 26.096a1.899 1.899 0 00-1.838-1.42h-.326v-9.601h6.493c.374 0 .724-.166.96-.456.237-.29.33-.667.254-1.033a2.392 2.392 0 00-2.334-1.903H14.25a.527.527 0 100 1.055h10.964c.628 0 1.175.446 1.301 1.06a.182.182 0 01-.038.154.182.182 0 01-.143.068H9.666a.182.182 0 01-.143-.068.182.182 0 01-.038-.154 1.333 1.333 0 011.302-1.06h.99a.527.527 0 100-1.055h-.99c-1.126 0-2.108.8-2.335 1.903-.075.367.017.743.254 1.033.236.29.586.456.96.456h6.494v9.6h-.326a1.9 1.9 0 00-1.838 1.42l-.124.477c-.079.304-.014.622.179.871.192.25.483.392.798.392h6.302c.315 0 .606-.143.799-.392a.998.998 0 00.178-.871l-.123-.476zm-4.79-11.021h1.571v9.6h-1.571v-9.6zm-2.307 11.706l.109-.42a.844.844 0 01.817-.631h4.333c.384 0 .72.26.817.631l.109.42h-6.185z"/></g><defs><clipPath id="clip0"><path fill="#fff" d="M0 0h36v36H0z"/></clipPath></defs></svg>