<svg width="27" height="27" fill="none" xmlns="http://www.w3.org/2000/svg"><path d="M24.686 20.762a16.06 16.06 0 00-.218-1.706 13.45 13.45 0 00-.42-1.716 8.475 8.475 0 00-.705-1.6 6.035 6.035 0 00-1.063-1.385 4.691 4.691 0 00-1.528-.96 5.279 5.279 0 00-1.95-.353c-.275 0-.542.113-1.057.449-.317.206-.687.445-1.1.71-.354.225-.833.436-1.425.627a5.655 5.655 0 01-1.743.282 5.66 5.66 0 01-1.742-.282c-.592-.19-1.07-.402-1.424-.627-.41-.262-.78-.501-1.102-.71-.514-.336-.781-.449-1.057-.449-.702 0-1.358.119-1.95.353a4.685 4.685 0 00-1.527.96 6.03 6.03 0 00-1.063 1.386 8.488 8.488 0 00-.705 1.6 13.45 13.45 0 00-.42 1.715 15.95 15.95 0 00-.218 1.706 23.107 23.107 0 00-.054 1.595c0 1.41.448 2.55 1.331 3.392C4.42 26.578 5.573 27 6.978 27h13c1.404 0 2.558-.421 3.431-1.252.884-.84 1.332-1.982 1.332-3.392 0-.544-.018-1.08-.055-1.594zm-2.368 3.84c-.576.549-1.342.816-2.34.816h-13c-.999 0-1.764-.267-2.34-.816-.566-.538-.84-1.273-.84-2.245 0-.506.016-1.006.05-1.485.032-.47.098-.988.197-1.537.097-.542.221-1.051.369-1.512a6.91 6.91 0 01.574-1.3c.228-.403.491-.747.781-1.025.271-.26.613-.472 1.016-.632a3.642 3.642 0 011.246-.24c.056.03.154.086.314.19.325.212.7.454 1.115.718.467.298 1.069.567 1.788.8a7.24 7.24 0 002.23.358c.744 0 1.494-.12 2.228-.358.72-.233 1.322-.502 1.79-.8.424-.271.788-.506 1.114-.718.16-.104.258-.16.313-.19.455.012.874.093 1.247.24.403.16.744.373 1.016.632.29.278.553.622.781 1.024.24.422.433.86.574 1.3.148.462.272.971.37 1.513.098.55.165 1.067.197 1.537.034.478.05.977.05 1.485 0 .973-.274 1.707-.84 2.245zm-9.01-11.596c1.787 0 3.334-.64 4.598-1.905 1.264-1.264 1.905-2.811 1.905-4.598s-.64-3.334-1.905-4.598C16.642.64 15.095 0 13.308 0S9.974.64 8.71 1.905C7.446 3.169 6.805 4.716 6.805 6.503s.64 3.334 1.905 4.598c1.265 1.264 2.811 1.905 4.598 1.905zm-3.48-9.982c.97-.97 2.109-1.442 3.48-1.442 1.37 0 2.509.472 3.48 1.442.97.97 1.44 2.108 1.44 3.479 0 1.37-.47 2.509-1.44 3.479-.971.97-2.11 1.442-3.48 1.442s-2.509-.472-3.48-1.442c-.97-.97-1.441-2.108-1.441-3.48 0-1.37.472-2.508 1.442-3.478z" fill="#0B9EC7"/></svg>