<svg width="27" height="27" fill="none" xmlns="http://www.w3.org/2000/svg"><path d="M13.5 13.5a.528.528 0 100-1.056.528.528 0 000 1.055z" fill="#0B9EC7"/><path d="M24.89 9.28h-3.118l-4.797-6.6a1.582 1.582 0 00-2.748 1.568.548.548 0 00.04.063l3.763 4.97H8.97l3.763-4.97a.561.561 0 00.04-.062 1.581 1.581 0 00-2.748-1.569l-4.797 6.6H2.109A2.113 2.113 0 000 11.39c0 .917.595 1.716 1.434 1.999.09.069.201.11.323.11a.526.526 0 01.52.433l1.793 9.87a1.581 1.581 0 001.556 1.299h15.748a1.58 1.58 0 001.556-1.299l1.794-9.87a.526.526 0 01.52-.433.524.524 0 00.324-.112A2.115 2.115 0 0027 11.39c0-1.163-.946-2.11-2.11-2.11zm-9.755-5.57a.527.527 0 01.936-.486c.01.019.022.037.035.054l4.363 6.004h-1.116L15.135 3.71zm-4.239-.432a.558.558 0 00.035-.053.527.527 0 01.936.485L7.648 9.28H6.531l4.363-6.004zm13.996 9.168H15.61a.527.527 0 00-.527.527c0 .291.236.522.527.522h8.142a1.65 1.65 0 00-.064.244l-1.794 9.875a.527.527 0 01-.52.433H5.627a.527.527 0 01-.519-.433l-1.794-9.87a1.59 1.59 0 00-.064-.244h8.142a.527.527 0 100-1.054H2.109a1.056 1.056 0 010-2.11h22.782a1.056 1.056 0 010 2.11z" fill="#0B9EC7"/><path d="M18.773 22.464c.873 0 1.582-.71 1.582-1.582v-4.219a1.582 1.582 0 10-3.164 0v4.22c0 .872.71 1.581 1.582 1.581zm-.527-5.8a.528.528 0 011.055 0v4.218a.528.528 0 01-1.055 0v-4.219zM13.5 15.081c-.872 0-1.582.71-1.582 1.582v4.22c0 .872.71 1.581 1.582 1.581.872 0 1.582-.71 1.582-1.582v-4.219c0-.874-.708-1.582-1.582-1.582zm.527 5.801a.528.528 0 01-1.054 0v-4.219a.528.528 0 011.054 0v4.22zm-5.8-5.801c-.873 0-1.582.71-1.582 1.582v4.22c0 .872.71 1.581 1.582 1.581.872 0 1.582-.71 1.582-1.582v-4.219c0-.874-.708-1.582-1.582-1.582zm.527 5.801a.528.528 0 01-1.055 0v-4.219a.528.528 0 011.055 0v4.22z" fill="#0B9EC7"/></svg>