<svg width="30" height="30" viewBox="0 0 30 30" fill="none" xmlns="http://www.w3.org/2000/svg">
<path d="M24.8438 3.75H19.6875V2.8125C19.6875 1.25918 18.4283 0 16.875 0H13.125C11.5717 0 10.3125 1.25918 10.3125 2.8125V3.75H5.15625C3.86186 3.75 2.8125 4.79936 2.8125 6.09375V7.96875C2.8125 8.48654 3.23221 8.90625 3.75 8.90625H26.25C26.7678 8.90625 27.1875 8.48654 27.1875 7.96875V6.09375C27.1875 4.79936 26.1381 3.75 24.8438 3.75ZM12.1875 2.8125C12.1875 2.2957 12.6082 1.875 13.125 1.875H16.875C17.3918 1.875 17.8125 2.2957 17.8125 2.8125V3.75H12.1875V2.8125Z" fill="#FF5D46"/>
<path d="M4.59178 10.7812C4.4245 10.7812 4.2912 10.9211 4.29917 11.0882L5.07261 27.3211C5.14409 28.8234 6.37807 30 7.88159 30H22.1187C23.6222 30 24.8562 28.8234 24.9277 27.3211L25.7011 11.0882C25.7091 10.9211 25.5758 10.7812 25.4085 10.7812H4.59178ZM18.7501 13.125C18.7501 12.607 19.1697 12.1875 19.6876 12.1875C20.2056 12.1875 20.6251 12.607 20.6251 13.125V25.3125C20.6251 25.8305 20.2056 26.25 19.6876 26.25C19.1697 26.25 18.7501 25.8305 18.7501 25.3125V13.125ZM14.0626 13.125C14.0626 12.607 14.4822 12.1875 15.0001 12.1875C15.5181 12.1875 15.9376 12.607 15.9376 13.125V25.3125C15.9376 25.8305 15.5181 26.25 15.0001 26.25C14.4822 26.25 14.0626 25.8305 14.0626 25.3125V13.125ZM9.37514 13.125C9.37514 12.607 9.79468 12.1875 10.3126 12.1875C10.8306 12.1875 11.2501 12.607 11.2501 13.125V25.3125C11.2501 25.8305 10.8306 26.25 10.3126 26.25C9.79468 26.25 9.37514 25.8305 9.37514 25.3125V13.125Z" fill="#FF5D46"/>
</svg>
