<svg width="36" height="36" fill="none" xmlns="http://www.w3.org/2000/svg"><g opacity=".4" clip-path="url(#clip0)"><path d="M36 6.101a2.864 2.864 0 00-2.86-2.86 2.863 2.863 0 00-2.86 2.86c0 .836.36 1.59.935 2.113v.761c-.86-.155-2.493-.595-3.42-1.785a2.219 2.219 0 00-1.888-.841 5.895 5.895 0 01-1.044-.027.528.528 0 10-.126 1.048c.392.047.807.059 1.233.033.39-.023.761.14.992.436 1.221 1.57 3.304 2.062 4.253 2.21v1.22H4.79v-1.22c.95-.148 3.032-.64 4.253-2.21.23-.296.603-.46.993-.436 1.906.112 3.42-.493 4.264-1.708a.534.534 0 00.03-.05c.025-.045.642-1.129 2.344-1.597a5.015 5.015 0 012.656 0c1.702.468 2.319 1.552 2.342 1.594.01.019.02.036.032.053.138.198.294.381.464.546a.528.528 0 10.734-.76 2.6 2.6 0 01-.317-.37c-.136-.233-.969-1.53-2.975-2.082a6.07 6.07 0 00-3.216 0c-2.006.552-2.839 1.848-2.975 2.082-.448.633-1.386 1.353-3.32 1.238a2.222 2.222 0 00-1.89.841c-.928 1.193-2.568 1.633-3.425 1.786v-.762a2.853 2.853 0 00.935-2.113 2.863 2.863 0 00-2.86-2.86A2.863 2.863 0 000 6.101c0 .836.36 1.59.935 2.113v23.187c0 1.061.864 1.925 1.925 1.925A1.927 1.927 0 004.785 31.4v-1h26.43v1c0 1.061.863 1.925 1.925 1.925a1.927 1.927 0 001.925-1.925V8.214A2.853 2.853 0 0036 6.101zm-32.271 25.3a.87.87 0 01-1.737 0V8.826a2.846 2.846 0 001.737 0V31.4zM2.86 7.905c-.995 0-1.803-.81-1.803-1.804 0-.995.809-1.804 1.803-1.804.995 0 1.804.81 1.804 1.804 0 .995-.81 1.804-1.804 1.804zm22.881 4.42h1.289v13.943h-1.29V12.325zm-3.243 0h2.187v9.8h-2.187v-9.8zm0 10.857h2.187v3.086h-2.187v-3.086zm-2.345-10.857h1.289v13.943h-1.29V12.325zm-3.243 0h2.186v9.8H16.91v-9.8zm0 10.857h2.186v3.086H16.91v-3.086zm-5.588-10.857h2.186v6.313a.528.528 0 101.057 0v-6.313h1.289v13.943h-1.29v-5.236a.528.528 0 00-1.056 0v1.094h-2.186v-9.8zm0 10.857h2.186v3.086h-2.186v-3.086zM8.976 12.325h1.29v13.943h-1.29V12.325zm-4.19 0H7.92v9.8H4.785v-9.8zM7.92 23.182v3.086H4.791v-3.086H7.92zm23.295 6.163H4.79v-2.02h26.424v2.02zm0-3.077h-3.129v-3.086h3.129v3.086zm0-4.142h-3.129v-9.8h3.129v9.8zM33.14 4.297a1.804 1.804 0 11-.002 3.606 1.804 1.804 0 01.002-3.606zm.868 27.104a.87.87 0 01-1.737 0V8.826a2.847 2.847 0 001.737 0V31.4z" fill="#333"/></g><defs><clipPath id="clip0"><path fill="#fff" d="M0 0h36v36H0z"/></clipPath></defs></svg>