<svg width="27" height="27" fill="none" xmlns="http://www.w3.org/2000/svg"><path d="M19.459 1.615A7.53 7.53 0 0013.5 4.533a7.53 7.53 0 00-5.959-2.918C3.383 1.615 0 4.998 0 9.155c0 1.86.682 3.645 1.92 5.028 1.232 1.376 11.604 11.202 11.604 11.202s10.293-9.79 11.556-11.202A7.528 7.528 0 0027 9.156c0-4.158-3.383-7.541-7.541-7.541zM3.099 13.128a5.948 5.948 0 01-1.517-3.972 5.966 5.966 0 015.959-5.96 5.954 5.954 0 015.261 3.16l.698 1.308.698-1.309a5.954 5.954 0 015.261-3.158 5.966 5.966 0 015.959 5.959c0 1.468-.539 2.88-1.517 3.972-1.04 1.162-8.332 8.143-10.401 10.122-2.627-2.51-9.427-9.034-10.4-10.122z" fill="#0B9EC7"/><path d="M7.917 12.03l-1.738-1.712a2.024 2.024 0 011.415-3.465V5.271A3.608 3.608 0 003.99 8.875c0 .976.384 1.89 1.08 2.572l1.736 1.71 1.11-1.127zm.013 2.243l1.11-1.126 1.132 1.115-1.11 1.127-1.132-1.116z" fill="#0B9EC7"/></svg>