<svg width="17" height="17" fill="none" xmlns="http://www.w3.org/2000/svg"><g clip-path="url(#clip0)"><path d="M7.528.055C3.694.483.58 3.527.076 7.352c-.715 5.42 3.717 10.03 9.084 9.623 1.974-.15 3.822-1.032 5.27-2.382l.125-.116a.354.354 0 00.017-.5l-.483-.519a.354.354 0 00-.5-.017l-.26.241a7.08 7.08 0 01-6.052 1.798c-3.162-.539-5.592-3.223-5.839-6.42-.326-4.228 3.085-7.762 7.272-7.64 3.861.112 6.873 3.407 6.873 7.27v.519c0 .828-.713 1.492-1.558 1.41-.736-.072-1.275-.733-1.275-1.473V6.021a.354.354 0 00-.354-.354h-.709a.352.352 0 00-.319.206A3.882 3.882 0 008.5 4.605 3.9 3.9 0 004.604 8.5 3.9 3.9 0 008.5 12.396a3.894 3.894 0 003.245-1.744 2.821 2.821 0 002.616 1.384C15.865 11.935 17 10.616 17 9.109V8.5C17 3.494 12.648-.516 7.528.055zM8.5 10.98A2.482 2.482 0 016.02 8.5 2.482 2.482 0 018.5 6.021a2.482 2.482 0 012.48 2.48A2.482 2.482 0 018.5 10.98z" fill="#0B9EC7"/></g><defs><clipPath id="clip0"><path fill="#fff" d="M0 0h17v17H0z"/></clipPath></defs></svg>