<svg width="36" height="36" fill="none" xmlns="http://www.w3.org/2000/svg"><g opacity=".4" clip-path="url(#clip0)"><path d="M34.2 21h-1.8v-6a3.003 3.003 0 00-3-3h-9.6a3.003 3.003 0 00-3 3v6H15a1.802 1.802 0 00-1.8 1.8v6a2.995 2.995 0 002.81 2.981l-.862 3.019H9.54a3.005 3.005 0 00-2.94-2.4H5.4V4.777a3.577 3.577 0 017.119-.506l.01.073a1.789 1.789 0 00-1.082 1.957l.164.969-1.604 2.755a1.201 1.201 0 001.237 1.787L17 10.839a1.2 1.2 0 00.581-2.094l-2.42-2.075-.164-.969a1.796 1.796 0 00-1.264-1.418l-.026-.181a4.777 4.777 0 00-9.506.675V32.4H3v-.6a.6.6 0 10-1.2 0v.854A3.002 3.002 0 000 35.4a.6.6 0 00.6.6h34.8a.6.6 0 000-1.2h-1.347l-.863-3.019a2.995 2.995 0 002.81-2.98v-6a1.802 1.802 0 00-1.8-1.8zM16.8 9.656l-5.756.973 1.572-2.7 1.812-.306 2.376 2.032H16.8zm-2.886-3.163l-1.183.2-.1-.592a.601.601 0 011.183-.2l.1.592zM19.8 13.2h9.6a1.802 1.802 0 011.8 1.8v6.11A1.796 1.796 0 0030 22.8v1.215a2.97 2.97 0 00-1.8-.616h-2.151l1.375-1.375a.6.6 0 00-.848-.849L25.2 22.552v-2.751a.6.6 0 00-1.2 0v2.751l-1.376-1.376a.6.6 0 00-.848.849l1.376 1.375H21a2.97 2.97 0 00-1.8.616V22.8a1.796 1.796 0 00-1.2-1.69V15a1.802 1.802 0 011.8-1.8zm8.4 11.4a1.802 1.802 0 011.8 1.8v.6H19.2v-.6a1.802 1.802 0 011.8-1.8h7.2zm.852 7.2l1.714 2.999H18.434l1.714-3h8.904zM30 30.6H19.2v-2.4H30v2.4zm-15.6-1.8v-6a.6.6 0 01.6-.6h2.4a.6.6 0 01.6.6v7.8h-1.8a1.802 1.802 0 01-1.8-1.8zm-13.096 6c.255-.718.934-1.2 1.697-1.2h3.6c.762 0 1.442.481 1.697 1.2H1.304zm15.092 0l.857-3h1.514l-1.714 3h-.657zm15.752 0l-1.714-3h1.513l.857 3h-.656zm2.652-6a1.802 1.802 0 01-1.8 1.8h-1.8v-7.8a.6.6 0 01.6-.6h2.4c.331.001.6.27.6.6v6z" fill="#333"/></g><defs><clipPath id="clip0"><path fill="#fff" d="M0 0h36v36H0z"/></clipPath></defs></svg>