<svg width="21" height="21" viewBox="0 0 21 21" fill="none" xmlns="http://www.w3.org/2000/svg">
<path d="M12.809 14.859L12.6536 15.4941C12.1876 15.678 11.8153 15.818 11.5381 15.9142C11.2606 16.0108 10.9382 16.0588 10.5708 16.0588C10.0067 16.0588 9.56783 15.9206 9.25486 15.6461C8.94189 15.3705 8.78535 15.0213 8.78535 14.5976C8.78535 14.4336 8.79671 14.2649 8.82033 14.093C8.84414 13.9209 8.882 13.7271 8.93382 13.5105L9.51622 11.4491C9.56803 11.2517 9.61207 11.0647 9.64735 10.8879C9.68312 10.7121 9.70036 10.5504 9.70036 10.4048C9.70036 10.1415 9.64585 9.95741 9.53734 9.85388C9.42883 9.75065 9.22178 9.69824 8.91439 9.69824C8.76383 9.69824 8.60909 9.72235 8.45136 9.76898C8.29293 9.81581 8.15751 9.86105 8.04382 9.9031L8.19956 9.26759C8.58109 9.11225 8.94577 8.97923 9.29462 8.86883C9.64346 8.75813 9.97307 8.70273 10.2848 8.70273C10.8451 8.70273 11.2775 8.83814 11.5811 9.10896C11.8847 9.37999 12.0364 9.73132 12.0364 10.1643C12.0364 10.2538 12.0265 10.4117 12.0051 10.6373C11.9841 10.8633 11.9452 11.0705 11.8884 11.2589L11.3085 13.312C11.2609 13.4769 11.2182 13.6654 11.181 13.8776C11.1427 14.0883 11.1243 14.2493 11.1243 14.3574C11.1243 14.63 11.1851 14.8161 11.307 14.915C11.4297 15.014 11.6412 15.0632 11.9415 15.0632C12.0825 15.0632 12.2429 15.0382 12.4212 14.9891C12.5989 14.94 12.7285 14.8968 12.809 14.859ZM12.956 6.2395C12.956 6.59721 12.8212 6.90271 12.5503 7.15391C12.2801 7.406 11.9544 7.53214 11.5735 7.53214C11.1914 7.53214 10.865 7.406 10.5916 7.15391C10.3188 6.90261 10.1821 6.59721 10.1821 6.2395C10.1821 5.88249 10.3188 5.57649 10.5916 5.3221C10.8645 5.06812 11.1915 4.94118 11.5735 4.94118C11.9543 4.94118 12.2801 5.06842 12.5503 5.3221C12.8214 5.57649 12.956 5.88259 12.956 6.2395Z" fill="#0B9EC7"/>
<circle cx="10.5" cy="10.5" r="9.75" stroke="#0B9EC7" stroke-width="1.5"/>
</svg>
