<svg width="86" height="37" fill="none" xmlns="http://www.w3.org/2000/svg"><g clip-path="url(#clip0)" fill="#333"><path d="M36.051 14.68c-1.236-.067-1.395-.093-1.765-.345-.143-.093-.48-.16-1.001-.203-.866-.067-1.27-.21-1.27-.472 0-.143-.059-.168-.437-.168-.757 0-1.329-.102-1.329-.22 0-.21.95-.412 2.49-.539.597-.05 1.555-.21 2.38-.405 1.328-.311 1.37-.328 1.168-.455-.362-.236-.807-1.003-1.362-2.318-.597-1.433-.673-1.55-1.564-2.554-1.018-1.146-1.22-1.517-.841-1.517.117 0-.11-.278-.833-.986-1.328-1.323-1.555-1.787-.84-1.686.184.025.327.034.327.017s-.193-.253-.429-.523c-.74-.843-.84-1.256-.252-1.053l.252.092-.193-.311c-.235-.38-.404-.852-.336-.953.025-.042.117-.076.21-.076.092 0 1.825.936 3.843 2.074 4.187 2.368 4.188 2.36 5.028 3.877.286.506.715 1.273.959 1.703l.437.792.463-1.045c.748-1.703.723-1.585.765-3.035.033-1.416.084-1.55.412-1.138.151.194.151.177.151-.986 0-1.003.017-1.188.126-1.188.068 0 .194.135.27.295l.15.295V.915c0-.733.043-.868.236-.75.194.118 2.296 5.159 2.346 5.623.068.64-.075 1.129-1 3.312-.463 1.121-.79 2.015-.757 2.048.042.043.277.093.53.118.37.034.832-.059 2.514-.497 1.135-.295 2.346-.649 2.69-.775.833-.304 1.498-.27 2.22.118.303.16.614.26.808.26.395 0 .589.068.589.203 0 .177-.387.304-1.16.38-.405.042-.8.11-.875.134-.118.051-.152.017-.152-.16 0-.219-.201-.388-.47-.388-.085 0-.236-.1-.328-.219-.169-.219-.177-.219-.37-.059-.27.22-.185.557.184.759l.27.143-.631.06c-.959.092-3.322.935-5.029 1.795-.773.387-1.749.843-2.17 1.011-1.437.573-3.59.784-6.424.65zM3.131 36.933c-.53-.093-.967-.27-1.16-.497-.21-.228-.295-1.063-.942-9.5a2485.97 2485.97 0 00-.816-10.477c-.202-2.487-.252-3.431-.185-3.54.345-.548 4.516-.978 5.76-.59.664.21.841.379.925.876.034.228.11 3.49.16 7.24.05 3.76.092 7.022.11 7.25.016.379.117.11 1.126-2.908 1.177-3.54 1.858-5.884 2.783-9.567l.572-2.276.378-.186c.455-.236 1.993-.505 3.271-.581 1.573-.085 2.776.168 3.036.657.118.22.227 3.819.311 10.562l.06 4.72.74-2.217c.403-1.213.983-3.076 1.286-4.13.47-1.635 2.388-8.724 2.388-8.825 0-.085.53-.295 1.127-.455 1.009-.27 2.278-.38 3.01-.262.664.101.916.22 1.127.557.134.202.134.261-.085 1.154-.748 3.052-6.29 18.721-7.618 21.528l-.404.86-.58.169c-1.883.564-4.784.674-5.676.21a1.063 1.063 0 01-.353-.312c-.202-.312-.42-3.464-.656-9.482-.05-1.492-.126-2.69-.16-2.655-.033.042-.479 1.433-.992 3.11-1.564 5.108-2.438 7.628-2.976 8.589-.152.278-.27.363-.64.489-1.126.37-3.918.649-4.927.489zm24.343-.127c-2.245-.657-3.506-2.739-3.195-5.31.353-3 1.707-4.745 4.398-5.664.336-.118 1.657-.498 2.951-.843 2.237-.607 3.692-1.088 4.037-1.34.117-.093.168-.262.202-.7.05-.75-.068-1.104-.53-1.526-.665-.606-1.657-.741-2.531-.328-.454.21-.665.446-1.127 1.23-.345.599-.42.675-.925.928-.959.472-2.632.674-3.246.387-.403-.194-.538-.421-.538-.919 0-1.29 1.018-2.747 2.817-4.02 1.614-1.155 3.557-1.753 5.626-1.753 1.614.008 2.716.227 3.817.767 1.556.758 2.245 1.905 2.346 3.91.059 1.172 0 1.703-.807 7.241-.488 3.355-.648 4.602-.589 4.796.042.144.185.397.311.557.362.455.438.632.438 1.045 0 .758-.648 1.264-1.951 1.534-.841.169-2.262.169-2.826 0-.84-.253-1.16-.7-1.53-2.133l-.093-.37-.437.413c-1.009.96-2.144 1.643-3.27 1.972-.774.228-2.759.303-3.348.126zm5.164-4.383c.597-.295 1.37-.944 1.816-1.525l.37-.48.277-1.729c.16-.952.27-1.753.244-1.77-.017-.017-.395.169-.832.421-.437.253-1.396.776-2.145 1.147-1.824.927-2.388 1.5-2.514 2.537-.059.54.009.776.328 1.096.606.607 1.59.733 2.456.303zm12.512 4.35c-.236-.093-.513-.228-.597-.304-.236-.21-.27-.548-.723-6.288-.253-3.194-.85-10.326-1.018-12.028-.042-.48-.033-.531.152-.65.117-.075.504-.218.874-.32.555-.151.9-.177 2.178-.185 1.673-.008 2.279.11 2.53.497.17.262.253 1.964.38 7.797.05 2.529.1 4.603.117 4.62.034.033 1.27-3.718 1.598-4.873.168-.581.664-2.453 1.093-4.164.48-1.862.85-3.169.933-3.27.328-.362 1.842-.657 3.372-.657 1.682 0 2.313.236 2.414.91.092.59.622 10.25.647 11.691.009.422.009.422.337-.548.53-1.534 1.177-3.886 2.135-7.755.74-3.026.908-3.599 1.068-3.725.589-.439 2.977-.717 4.188-.49.647.127.874.254.908.532.101.868-5.205 14.844-6.845 18.021-.353.674-.412.75-.782.91-.723.312-1.841.447-3.246.414-1.58-.051-2.026-.22-2.17-.827-.092-.404-.604-8.05-.646-9.693-.009-.067-.244.632-.539 1.56-.916 2.933-1.858 5.42-2.758 7.274-.429.893-.538 1.053-.807 1.188-.605.304-1.514.456-2.96.49-1.194.024-1.446.008-1.833-.127zm23.082.025c-1.413-.388-2.464-1.39-2.985-2.84-.193-.548-.219-.734-.219-1.754.009-.944.042-1.273.219-1.947.429-1.61 1.287-2.866 2.455-3.608.925-.581 1.564-.809 4.533-1.61 2.463-.665 2.985-.834 3.767-1.197.546-.244.563-.26.614-.632.084-.657.05-.986-.143-1.332-.673-1.188-2.582-1.382-3.481-.354a7.63 7.63 0 00-.606.894c-.311.531-.395.615-.874.843-.942.455-2.573.657-3.213.396-.445-.185-.571-.455-.53-1.13.051-.91.488-1.71 1.447-2.68 2.085-2.074 4.49-3 7.492-2.874 3.078.126 4.911 1.256 5.466 3.355.185.7.236 1.87.135 2.941-.06.531-.404 3.035-.774 5.555-.74 5.083-.731 4.821-.185 5.521.395.514.454 1.037.177 1.526-.395.683-1.783 1.096-3.498 1.037-1.69-.06-2.153-.405-2.548-1.88l-.185-.708-.673.59c-1.245 1.07-2.279 1.627-3.523 1.88-.782.16-2.304.168-2.868.008zm5.23-4.425c.556-.278 1.657-1.265 1.96-1.753.134-.228.252-.742.454-1.99.151-.927.26-1.702.252-1.72-.017-.016-.37.17-.773.405a61.39 61.39 0 01-2.136 1.138c-.766.396-1.547.843-1.74 1.012a2.993 2.993 0 00-.606.817c-.564 1.121-.219 1.998.908 2.318.538.152 1.084.076 1.681-.227zM84.008 21.28c-.395-.202-.639-.632-.647-1.163-.009-.573.218-.961.706-1.206.454-.236.774-.244 1.236-.025.488.22.698.582.698 1.206 0 .548-.135.843-.488 1.112-.302.228-1.135.27-1.505.076zm1.026-.329c.227-.1.236-.11.059-.118-.126-.008-.252-.11-.379-.32l-.184-.32-.026.32c-.025.244-.059.312-.193.312-.143 0-.16-.067-.16-.733 0-.666-.008-.725-.135-.607-.067.076-.15.286-.176.472-.059.43.151.843.504.994.328.144.379.144.69 0zm.521-1.003c-.058-.438-.445-.809-.84-.809-.48 0-.53.143-.068.186.236.025.48.092.555.151.16.135.168.582 0 .64-.16.068-.16.16.017.422l.135.22.126-.236c.075-.144.1-.355.075-.574zm-.664-.151c-.059-.169-.403-.194-.403-.034 0 .093.075.135.218.135.135 0 .202-.042.185-.101z"/></g><defs><clipPath id="clip0"><path fill="#fff" d="M0 0h86v37H0z"/></clipPath></defs></svg>