<svg width="48" height="29" fill="none" xmlns="http://www.w3.org/2000/svg"><path d="M46.316 0H1.684C.754 0 0 .742 0 1.657v25.686C0 28.258.754 29 1.684 29h44.632c.93 0 1.684-.742 1.684-1.657V1.657C48 .742 47.246 0 46.316 0z" fill="#fff"/><path d="M34.308 12.188H32.26a.403.403 0 00-.3.237l-.842 5.21a.154.154 0 00.045.133.161.161 0 00.135.045h1.082a.163.163 0 00.135-.044.157.157 0 00.045-.133l.241-1.48a.27.27 0 01.101-.18.279.279 0 01.2-.058h.662a2.13 2.13 0 001.606-.473 2.037 2.037 0 00.74-1.48 1.526 1.526 0 00-.24-1.303 2.456 2.456 0 00-1.565-.474h.002zm.239 1.954c-.12.71-.662.71-1.203.71h-.362l.241-1.361c0-.06.06-.119.18-.119h.12c.362 0 .723 0 .903.237.12.059.12.237.12.533z" fill="#139AD6"/><path d="M19.62 12.188h-2.046a.402.402 0 00-.3.237l-.843 5.211a.154.154 0 00.046.133.16.16 0 00.134.044h.963a.403.403 0 00.3-.237l.241-1.42a.27.27 0 01.102-.18.279.279 0 01.199-.058h.662a2.13 2.13 0 001.607-.473 2.037 2.037 0 00.74-1.48 1.528 1.528 0 00-.241-1.303 2.34 2.34 0 00-1.565-.474h.001zm.24 1.954c-.12.71-.662.71-1.203.71h-.3l.24-1.361c0-.06.06-.119.18-.119h.12c.362 0 .723 0 .903.237a.628.628 0 01.06.533zm5.959-.059h-.966c-.06 0-.18.06-.18.119l-.06.296-.06-.119a1.417 1.417 0 00-1.143-.414 2.334 2.334 0 00-1.477.576 2.265 2.265 0 00-.75 1.378 1.738 1.738 0 00.361 1.48 1.539 1.539 0 001.263.474 1.951 1.951 0 001.385-.533l-.06.296a.154.154 0 00.046.133.16.16 0 00.134.045h.903a.403.403 0 00.3-.237l.542-3.315c-.06-.059-.18-.177-.24-.177l.002-.002zm-1.387 1.895a1.141 1.141 0 01-.397.678 1.173 1.173 0 01-.747.27.972.972 0 01-.662-.238 1.246 1.246 0 01-.18-.71c.02-.19.092-.37.207-.523a1.09 1.09 0 011.538-.188c.169.199.255.452.242.71" fill="#263B80"/><path d="M40.417 14.083h-.965c-.06 0-.18.06-.18.119l-.06.296-.06-.119a1.418 1.418 0 00-1.144-.414 2.333 2.333 0 00-1.476.576 2.264 2.264 0 00-.75 1.378 1.736 1.736 0 00.361 1.48 1.539 1.539 0 001.263.474 1.951 1.951 0 001.385-.533l-.06.296a.155.155 0 00.107.171.16.16 0 00.073.007h.903a.403.403 0 00.3-.237l.542-3.315c-.06-.059-.12-.177-.241-.177l.002-.002zm-1.386 1.895a1.142 1.142 0 01-.397.678c-.21.174-.474.269-.747.27a.972.972 0 01-.662-.238 1.248 1.248 0 01-.18-.71c.02-.19.091-.37.207-.523a1.09 1.09 0 011.538-.188.68.68 0 01.241.71" fill="#139AD6"/><path d="M31.016 14.083h-1.023a.316.316 0 00-.24.118l-1.325 2.014-.602-1.895a.281.281 0 00-.3-.177h-.963c-.12 0-.18.118-.18.237l1.083 3.138-1.023 1.421c-.06.119 0 .296.12.296h.963a.317.317 0 00.24-.118l3.31-4.679c.18-.177.06-.355-.06-.355z" fill="#263B80"/><path d="M41.562 12.365l-.842 5.33a.155.155 0 00.046.132.161.161 0 00.134.045h.843a.402.402 0 00.3-.237l.842-5.211a.155.155 0 00-.045-.133.16.16 0 00-.135-.044h-.962c-.06-.06-.12 0-.18.118z" fill="#139AD6"/><path d="M12.032 10.47a3.034 3.034 0 00-2.29-.705H6.736a.52.52 0 00-.421.354L5.11 17.816a.27.27 0 00.241.294h1.864l.482-2.879v.118a.506.506 0 01.42-.353h.904c1.746 0 3.07-.705 3.49-2.644v-.177a2.009 2.009 0 00-.48-1.704" fill="#263B80"/><path d="M12.453 12.128v.177c-.421 2.014-1.746 2.665-3.49 2.665h-.904a.52.52 0 00-.42.355l-.603 3.613a.214.214 0 00.064.174.221.221 0 00.177.063h1.565a.34.34 0 00.241-.076.33.33 0 00.12-.22v-.059l.3-1.835v-.119a.33.33 0 01.12-.22.34.34 0 01.242-.075h.24c1.505 0 2.709-.593 3.01-2.37a2.144 2.144 0 00-.301-1.776.614.614 0 00-.361-.295" fill="#139AD6"/><path d="M12.032 11.992c-.06 0-.12-.058-.18-.058a.225.225 0 01-.18-.06 3.233 3.233 0 00-.783-.058H8.54a.225.225 0 00-.18.059.33.33 0 00-.18.296l-.482 3.079v.118a.507.507 0 01.421-.355h.903c1.746 0 3.07-.711 3.49-2.665a.213.213 0 01.06-.177c-.12-.06-.18-.119-.3-.119-.18-.059-.18-.059-.241-.059" fill="#232C65"/></svg>