<svg width="48" height="29" fill="none" xmlns="http://www.w3.org/2000/svg"><path d="M46.316 0H1.684C.754 0 0 .742 0 1.657v25.686C0 28.258.754 29 1.684 29h44.632c.93 0 1.684-.742 1.684-1.657V1.657C48 .742 47.246 0 46.316 0z" fill="#fff"/><path d="M38.134 14.5a8.218 8.218 0 01-2.466 5.86 8.491 8.491 0 01-5.955 2.426 8.491 8.491 0 01-5.954-2.427 8.218 8.218 0 01-2.467-5.858c0-2.198.887-4.306 2.466-5.86a8.491 8.491 0 015.955-2.426c2.233 0 4.375.873 5.955 2.427a8.219 8.219 0 012.466 5.859z" fill="#FFB600"/><path d="M29.713 6.215c2.232.006 4.37.88 5.948 2.433a8.24 8.24 0 012.473 5.853 8.218 8.218 0 01-2.466 5.858 8.491 8.491 0 01-5.955 2.427 8.491 8.491 0 01-5.954-2.427 8.218 8.218 0 01-2.467-5.858" fill="#F7981D"/><path d="M29.713 6.215c2.232.006 4.37.88 5.948 2.433a8.24 8.24 0 012.473 5.853 8.163 8.163 0 01-.64 3.171 8.272 8.272 0 01-1.825 2.69 8.425 8.425 0 01-2.732 1.795 8.535 8.535 0 01-3.224.63" fill="#FF8500"/><path d="M18.196 6.215a8.49 8.49 0 00-5.942 2.458 8.217 8.217 0 00-2.435 5.871 8.22 8.22 0 002.498 5.846 8.493 8.493 0 005.968 2.396 8.598 8.598 0 005.66-2.148c.304-.27.587-.564.845-.877h-1.738a10.13 10.13 0 01-.624-.833h2.986c.19-.277.353-.57.49-.876h-3.965a5.18 5.18 0 01-.356-.877h4.631a8.58 8.58 0 00.446-2.63 11.133 11.133 0 00-.179-1.754h-5.164c.053-.297.128-.59.223-.876h4.632a5.18 5.18 0 00-.357-.877h-3.92c.146-.301.31-.594.49-.877h2.985a4.177 4.177 0 00-.669-.876h-1.649c.26-.3.543-.578.847-.833a8.297 8.297 0 00-5.66-2.149c.002-.088.002-.088-.043-.088z" fill="#FF5050"/><path d="M9.866 14.5a8.16 8.16 0 00.64 3.172 8.271 8.271 0 001.825 2.69 8.42 8.42 0 002.733 1.795 8.533 8.533 0 003.223.629 8.597 8.597 0 005.66-2.149c.304-.27.587-.563.846-.876h-1.739a10.11 10.11 0 01-.624-.833h2.986c.19-.277.353-.57.49-.876H21.94a5.185 5.185 0 01-.356-.877h4.631c.285-.85.436-1.737.446-2.63a11.142 11.142 0 00-.178-1.754h-5.165c.053-.297.128-.59.223-.877h4.632a5.18 5.18 0 00-.357-.876h-3.92c.146-.302.31-.594.49-.877h2.985a4.178 4.178 0 00-.669-.876h-1.649c.26-.299.543-.577.847-.832a8.297 8.297 0 00-5.66-2.149h-.043" fill="#E52836"/><path d="M18.37 22.786a8.598 8.598 0 005.66-2.149c.304-.27.587-.563.846-.876h-1.738a10.13 10.13 0 01-.623-.833H25.5c.19-.277.353-.57.49-.877h-3.966a5.172 5.172 0 01-.356-.876H26.3c.285-.85.435-1.737.445-2.63a11.144 11.144 0 00-.178-1.754h-5.17a6.33 6.33 0 01.223-.877h4.632a5.18 5.18 0 00-.356-.876h-3.921c.146-.302.31-.594.49-.877h2.985a4.177 4.177 0 00-.668-.877h-1.65c.26-.299.543-.577.847-.832a8.297 8.297 0 00-5.659-2.149h-.039" fill="#CB2026"/><path d="M21.348 16.605l.134-.746a1.963 1.963 0 01-.223.044c-.312 0-.357-.176-.312-.263l.267-1.534h.49l.134-.833h-.446l.09-.526h-.891s-.535 2.893-.535 3.244a.646.646 0 00.175.54.67.67 0 00.538.206c.2-.002.398-.047.579-.132zm.328-1.404a1.373 1.373 0 00.407 1.134 1.421 1.421 0 001.152.4c.318.02.637-.024.936-.131l.179-.833a2.706 2.706 0 01-.936.22c-.98 0-.802-.702-.802-.702h1.827c.063-.26.108-.523.134-.789a1.169 1.169 0 00-.35-.926 1.21 1.21 0 00-.942-.345c-.936-.088-1.605.877-1.605 1.972zm1.56-1.27c.49 0 .4.57.4.613h-.98c0-.044.09-.614.58-.614zm5.698 2.673l.178-.965a2.218 2.218 0 01-.757.22c-.625 0-.891-.482-.891-1.009 0-1.052.534-1.622 1.158-1.622.288.01.566.1.802.263l.134-.92a3.174 3.174 0 00-1.025-.22c-1.025 0-2.05.876-2.05 2.542 0 1.097.535 1.842 1.6 1.842a4.06 4.06 0 00.85-.131zm-12.53-3.464a3.204 3.204 0 00-1.07.175l-.133.745a2.67 2.67 0 01.98-.175c.312 0 .58.044.58.306 0 .176-.045.22-.045.22h-.405c-.758 0-1.6.307-1.6 1.315 0 .789.535.964.846.964a1.35 1.35 0 00.936-.394l-.045.35h.802l.356-2.41a1.023 1.023 0 00-.336-.83 1.061 1.061 0 00-.866-.267zm.179 1.972c0 .132-.09.833-.624.833a.353.353 0 01-.255-.1.343.343 0 01-.101-.25c0-.22.134-.527.801-.527a.715.715 0 00.178.044zm1.893 1.58a1.16 1.16 0 00.94-.26 1.126 1.126 0 00.393-.88c0-1.097-1.07-.877-1.07-1.315 0-.22.179-.307.49-.307.134 0 .624.044.624.044l.134-.789a3.436 3.436 0 00-.846-.088c-.669 0-1.337.263-1.337 1.14 0 1.009 1.115.921 1.115 1.316 0 .262-.312.306-.535.306a2.957 2.957 0 01-.802-.132l-.134.79c.047.087.27.175 1.028.175zm17.922-4.252l-.182 1.184a1.232 1.232 0 00-.842-.438c-.802 0-1.516.965-1.516 2.105 0 .701.357 1.446 1.114 1.446a1.205 1.205 0 00.847-.35l-.045.306h.891l.669-4.208-.936-.045zm-.4 2.32c0 .483-.224 1.097-.714 1.097-.312 0-.49-.263-.49-.702 0-.702.312-1.14.713-1.14.312 0 .49.223.49.745zm-24.485 1.889l.535-3.157.09 3.157h.623l1.159-3.157-.49 3.157h.936l.713-4.209h-1.471l-.891 2.587-.045-2.587H11.38l-.713 4.209h.846zm13.927-.002c.266-1.447.31-2.63.935-2.411.05-.35.155-.69.311-1.009h-.178c-.401 0-.713.527-.713.527l.089-.483h-.846l-.579 3.42h.98v-.044zm5.568-3.507a3.202 3.202 0 00-1.07.176l-.133.745c.312-.119.645-.179.98-.175.311 0 .58.044.58.306 0 .176-.045.22-.045.22h-.406c-.757 0-1.6.306-1.6 1.315 0 .789.535.964.847.964a1.35 1.35 0 00.935-.394l-.044.35h.801l.357-2.41a1.008 1.008 0 00-.33-.837 1.046 1.046 0 00-.872-.26zm.223 1.973c0 .132-.09.832-.624.832a.352.352 0 01-.331-.215.338.338 0 01-.025-.135c0-.22.134-.526.802-.526.133.044.133.044.177.044h.001zm1.78 1.534c.267-1.447.312-2.63.936-2.411a3.4 3.4 0 01.311-1.009h-.178c-.4 0-.713.527-.713.527l.089-.483h-.846l-.58 3.42h.98l.001-.044z" fill="#fff"/><path d="M19.965 15.99a.648.648 0 00.176.542.67.67 0 00.538.205c.23 0 .457-.044.668-.132l.134-.746a1.963 1.963 0 01-.223.044c-.312 0-.356-.176-.312-.263l.267-1.534h.49l.134-.833h-.445l.089-.526m.643 2.454c0 1.227.4 1.535 1.114 1.535.318.02.636-.025.936-.132l.178-.833a2.706 2.706 0 01-.935.22c-.98 0-.802-.702-.802-.702h1.827c.063-.26.108-.523.133-.789a1.171 1.171 0 00-.35-.926 1.21 1.21 0 00-.941-.345c-.937-.088-1.16.877-1.16 1.972zm1.114-1.27c.49 0 .58.57.58.613h-1.16c0-.044.09-.614.58-.614zm5.698 2.673l.179-.965a2.217 2.217 0 01-.758.22c-.624 0-.89-.482-.89-1.009 0-1.052.534-1.622 1.158-1.622.287.01.566.1.802.263l.133-.92a3.175 3.175 0 00-1.024-.22c-1.025 0-1.6.876-1.6 2.542 0 1.097.089 1.842 1.158 1.842.285-.014.567-.058.842-.131zm-13.735-2.5c.312-.12.645-.179.98-.176.312 0 .58.044.58.307 0 .176-.045.22-.045.22h-.405c-.758 0-1.6.306-1.6 1.314 0 .79.535.965.846.965a1.35 1.35 0 00.936-.395l-.045.351h.802l.356-2.411c0-1.008-.89-1.052-1.247-1.052l-1.158.877zm1.827 1.008a1.438 1.438 0 01-.43.546 1.47 1.47 0 01-.64.286.354.354 0 01-.254-.1.343.343 0 01-.102-.25c0-.22.134-.526.802-.526.206.032.415.047.624.044zm.467 1.492c.336.075.68.105 1.025.088a1.161 1.161 0 00.943-.258 1.125 1.125 0 00.393-.882c0-1.097-1.07-.877-1.07-1.315 0-.22.18-.307.491-.307.134 0 .624.044.624.044l.134-.789a3.436 3.436 0 00-.846-.088c-.669 0-.891.263-.891 1.14 0 1.009.668.921.668 1.316 0 .262-.311.306-.535.306m17.789-2.235a1.232 1.232 0 00-.846-.439c-.802 0-1.07.965-1.07 2.105 0 .702-.09 1.447.669 1.447a1.205 1.205 0 00.846-.35l-.045.306h.891l.669-4.209-1.114 1.14zm-.045 1.14c0 .482-.4 1.096-.89 1.096-.312 0-.49-.263-.49-.702 0-.702.31-1.14.712-1.14a.69.69 0 01.502.227.668.668 0 01.166.518zm-24.662 1.885l.535-3.157.09 3.157h.623l1.159-3.157-.49 3.157h.936l.713-4.209h-1.115l-1.247 2.587-.045-2.587h-.49l-1.515 4.209h.846zm12.991-.002h.935c.268-1.447.312-2.63.936-2.411a3.4 3.4 0 01.312-1.009h-.179c-.4 0-.713.527-.713.527l.09-.483m3.92.833a2.67 2.67 0 01.98-.176c.311 0 .58.044.58.307 0 .176-.045.22-.045.22h-.406c-.757 0-1.6.306-1.6 1.314 0 .79.535.965.847.965a1.35 1.35 0 00.935-.395l-.044.351h.801l.357-2.411c0-1.008-.891-1.052-1.248-1.052l-1.157.877zm1.825 1.008a1.438 1.438 0 01-.43.546 1.47 1.47 0 01-.64.286.354.354 0 01-.254-.1.343.343 0 01-.101-.25c0-.22.134-.526.801-.526.207.03.416.046.625.044zm.447 1.535h.936c.267-1.447.311-2.63.935-2.411a3.4 3.4 0 01.312-1.009h-.179c-.4 0-.713.527-.713.527l.09-.483" fill="#DCE5E5"/></svg>