<svg width="48" height="29" fill="none" xmlns="http://www.w3.org/2000/svg"><path d="M46.316 0H1.684C.754 0 0 .742 0 1.657v25.686C0 28.258.754 29 1.684 29h44.632c.93 0 1.684-.742 1.684-1.657V1.657C48 .742 47.246 0 46.316 0z" fill="#fff"/><path d="M23.955 20.61a8.237 8.237 0 002.04-2.767 8.118 8.118 0 000-6.686 8.237 8.237 0 00-2.04-2.767 8.414 8.414 0 00-3.539-1.894 8.505 8.505 0 00-4.028-.048 8.422 8.422 0 00-3.585 1.809 8.24 8.24 0 00-2.312 3.246 8.116 8.116 0 00.92 7.642 8.331 8.331 0 003.019 2.625 8.482 8.482 0 003.915.935 8.245 8.245 0 005.61-2.095z" fill="#07A9E2"/><path d="M9.93 14.501a8.184 8.184 0 002.483 5.815 8.454 8.454 0 005.932 2.388 8.197 8.197 0 005.61-2.138 8.188 8.188 0 002.04-2.756 8.07 8.07 0 000-6.669 8.188 8.188 0 00-2.04-2.755 8.494 8.494 0 00-5.61-2.133" fill="#009DDD"/><path d="M23.954 8.391a8.494 8.494 0 00-5.614-2.138h-.4a10.169 10.169 0 00-3.17 3.594 9.988 9.988 0 00-1.149 4.621 9.988 9.988 0 001.124 4.628 10.168 10.168 0 003.15 3.61h.4a8.197 8.197 0 005.61-2.139 8.233 8.233 0 002.035-2.752 8.114 8.114 0 00.025-6.66 8.23 8.23 0 00-2.014-2.768l.003.004z" fill="#0284CC"/><path d="M29.702 6.251a8.392 8.392 0 00-6.497 3.011h1.692c.233.273.441.565.623.873h-2.983a8.57 8.57 0 00-.49.872h3.963a7.1 7.1 0 01.356.873h-4.631c-.09.306-.178.567-.267.872h5.164c.128.574.187 1.16.178 1.746a7.365 7.365 0 01-.445 2.618h-4.632c.1.299.218.59.356.873h3.963c-.136.305-.3.596-.49.872H22.58c.182.308.39.6.623.873h1.692a7.878 7.878 0 01-.842.872 8.61 8.61 0 005.655 2.139 8.453 8.453 0 005.928-2.416 8.182 8.182 0 002.455-5.833 8.182 8.182 0 00-2.455-5.832 8.453 8.453 0 00-5.928-2.416l-.005.003z" fill="#FF2957"/><path d="M29.702 6.252a8.392 8.392 0 00-6.497 3.011h1.692c.233.273.441.565.623.873h-2.983c-.18.28-.344.572-.49.872h3.963a7.1 7.1 0 01.356.873h-4.631c-.09.305-.178.567-.267.872h5.164c.128.573.187 1.16.178 1.746a7.366 7.366 0 01-.445 2.618h-4.632c.1.298.218.59.356.873h3.963c-.136.304-.3.596-.49.872H22.58c.182.308.39.6.623.873h1.692a7.878 7.878 0 01-.842.872 8.61 8.61 0 005.655 2.139 8.462 8.462 0 003.2-.617 8.355 8.355 0 002.714-1.777 8.205 8.205 0 001.816-2.664 8.098 8.098 0 00.64-3.145" fill="#ED1C2E"/><path d="M24.007 20.602a8.219 8.219 0 002.04-2.763 8.1 8.1 0 000-6.68 8.219 8.219 0 00-2.04-2.762v12.205z" fill="#0466B5"/><path d="M35.18 16.288a.26.26 0 01.164-.243.27.27 0 01.291.057.261.261 0 01-.188.449.29.29 0 01-.184-.082.28.28 0 01-.083-.181zm.267.219c.133 0 .177-.088.177-.219a.16.16 0 00-.107-.166.166.166 0 00-.07-.009.206.206 0 00-.148.043.2.2 0 00-.075.132.28.28 0 00.223.219zm0-.132h-.045v-.219h.134l.044.044c0 .044 0 .044-.044.044l.044.088h-.044l-.045-.088h-.044v.132-.001zm0-.132h.044V16.2h-.044v.044z" fill="#fff"/><path d="M24.048 8.39a7.88 7.88 0 00-.842.872h1.692c.232.273.44.565.623.873h-2.983c-.18.28-.344.572-.49.872h3.963a7.1 7.1 0 01.356.873h-4.631c-.09.305-.178.567-.267.872h5.164c.128.573.187 1.16.178 1.746a7.368 7.368 0 01-.445 2.618h-4.632c.1.298.218.59.356.873h3.963c-.136.304-.3.596-.49.872H22.58c.182.308.39.6.623.873h1.692a7.878 7.878 0 01-.842.872 8.61 8.61 0 005.655 2.139h.4a10.157 10.157 0 003.141-3.595 9.977 9.977 0 001.13-4.608 9.977 9.977 0 00-1.13-4.608 10.156 10.156 0 00-3.14-3.595h-.401a8.115 8.115 0 00-5.66 2.05z" fill="#D1094B"/><path d="M17.276 16.56h-1.069l.623-3.199-1.424 3.198h-.935l-.178-3.198-.623 3.198h-.936l.802-4.206h1.647l.09 2.629 1.157-2.628h1.694l-.848 4.205z" fill="#fff"/><path d="M16.299 14.716l.623-1.358-.49 2.541c.038.239.098.473.178.701h.713l.801-4.206h-1.558a8.338 8.338 0 00-.312 2.147c.044.046.044.092.044.175zm12.691 1.799c-.244.082-.5.127-.758.131-.534 0-.802-.262-.802-.746a.843.843 0 01.045-.306l.045-.35.044-.263.49-2.585h1.024l-.133.79h.533l-.134.788h-.533l-.267 1.402a.435.435 0 01-.045.132c0 .175.134.262.356.262.134 0 .223 0 .267-.043l-.134.788h.002zm3.07-3.331c-.09-.043-.09-.043-.135-.043-.044 0-.089 0-.089-.044h-.134c-.357 0-.579.131-.89.569l.089-.525h-.935l-.623 3.417h1.068c.357-2.103.534-2.454 1.024-2.454h.134l.134.044.356-.963zm-7.215 1.053c0 .438.268.744.802.92.446.174.49.218.49.394 0 .219-.178.306-.623.306-.316 0-.631-.045-.935-.131l-.134.789h.045l.178.043h.267c.19.032.384.047.578.044 1.113 0 1.647-.35 1.647-1.139 0-.482-.222-.746-.758-.964-.445-.174-.49-.218-.49-.35 0-.175.178-.263.534-.263.254-.005.507.01.758.044l.134-.789a6.68 6.68 0 00-.935-.043c-1.158 0-1.558.525-1.558 1.139zm-4.138 2.322h-.842v-.35a1.487 1.487 0 01-1.113.393.9.9 0 01-.677-.254.873.873 0 01-.258-.665c0-.829.668-1.314 1.825-1.314h.446a.577.577 0 00.044-.22c0-.218-.178-.306-.667-.306a4.554 4.554 0 00-.842.088l-.134.044h-.09l.134-.746a4.72 4.72 0 011.247-.175c.89 0 1.38.35 1.38 1.007.002.237-.028.473-.09.701l-.222 1.226-.044.22-.045.174v.132l-.045.044h-.007zm-.758-1.534h-.222c-.579 0-.89.175-.89.525a.317.317 0 00.094.258.327.327 0 00.262.093.8.8 0 00.576-.273.773.773 0 00.182-.603h-.002zm4.186 1.445c-.35.087-.708.13-1.069.132-1.158 0-1.78-.526-1.78-1.534a1.81 1.81 0 01.464-1.4 1.89 1.89 0 011.361-.614 1.25 1.25 0 01.974.303 1.212 1.212 0 01.406.922c-.008.28-.053.56-.134.829h-2.092v.131c0 .395.311.613.89.613a2.23 2.23 0 001.068-.218l-.089.828v.008zm-.534-2.015v-.175a.422.422 0 00-.142-.33.437.437 0 00-.348-.108.71.71 0 00-.449.185.69.69 0 00-.219.428h1.158z" fill="#DCE5E5"/><path d="M35.357 15.024a1.803 1.803 0 01-.682 1.23 1.865 1.865 0 01-1.366.39 1.51 1.51 0 01-1.202-.403 1.458 1.458 0 01-.446-1.17 1.878 1.878 0 01.564-1.461 1.94 1.94 0 011.484-.555 1.544 1.544 0 011.173.404 1.496 1.496 0 01.475 1.13v.438-.003zm-1.114-.438c0-.351-.134-.658-.578-.658-.534 0-.842.614-.842 1.184 0 .438.222.745.578.745.203-.043.388-.145.53-.292a1.01 1.01 0 00.272-.536c.035-.144.05-.291.044-.439l-.004-.005z" fill="#fff"/><path d="M31.706 15.462c.052-.32.082-.641.09-.964v-.088c-.055.23-.084.465-.09.701a.473.473 0 000 .35z" fill="#fff"/></svg>