<svg width="48" height="29" fill="none" xmlns="http://www.w3.org/2000/svg"><path d="M46.316 0H1.684C.754 0 0 .742 0 1.657v25.686C0 28.258.754 29 1.684 29h44.632c.93 0 1.684-.742 1.684-1.657V1.657C48 .742 47.246 0 46.316 0z" fill="#fff"/><path d="M6.315 9.34v.166c3.615.855 6.124 3.017 7.118 5.502l-1.044-4.787a1.22 1.22 0 00-.5-.681 1.254 1.254 0 00-.828-.202l-4.746.002z" fill="#F7981D"/><path d="M18.982 19.659l1.78-10.321h2.88l-1.782 10.32h-2.878zM32.15 9.605a7.605 7.605 0 00-2.582-.433c-2.847 0-4.853 1.4-4.87 3.406-.016 1.483 1.432 2.31 2.527 2.804 1.12.505 1.498.829 1.493 1.28-.007.692-.896 1.009-1.724 1.009a6.171 6.171 0 01-2.712-.542l-.371-.166-.404 2.31a9.31 9.31 0 003.21.551c3.03 0 4.993-1.384 5.016-3.526.01-1.174-.758-2.072-2.419-2.804-1.01-.477-1.624-.796-1.617-1.28 0-.429.522-.887 1.65-.887a5.426 5.426 0 012.156.395l.258.12.392-2.237h-.004zm4.958-.265a1.45 1.45 0 00-.898.191c-.27.159-.479.4-.595.688l-4.268 9.446h3.05l.59-1.582h3.643l.337 1.582h2.712l-2.373-10.32h-2.198V9.34zm-1.31 6.674c.238-.594 1.147-2.884 1.147-2.884-.017.027.237-.597.382-.984l.195.889.667 2.983h-2.39v-.004zm-22.111.398l-.253-1.415a8.114 8.114 0 00-3.986-4.328l2.545 8.989h3.05l4.575-10.321h-3.05l-2.881 7.075z" fill="#293688"/></svg>