<svg width="30" height="30" fill="none" xmlns="http://www.w3.org/2000/svg"><path d="M18 7h-6a5 5 0 00-5 5v6a5 5 0 005 5h6a5 5 0 005-5v-6a5 5 0 00-5-5zm3.5 11c0 1.93-1.57 3.5-3.5 3.5h-6c-1.93 0-3.5-1.57-3.5-3.5v-6c0-1.93 1.57-3.5 3.5-3.5h6c1.93 0 3.5 1.57 3.5 3.5v6z" fill="#fff"/><path d="M15 11a4 4 0 100 8 4 4 0 000-8zm0 6.5a2.503 2.503 0 01-2.5-2.5c0-1.379 1.122-2.5 2.5-2.5s2.5 1.121 2.5 2.5c0 1.378-1.122 2.5-2.5 2.5zm4.299-6.267a.533.533 0 100-1.066.533.533 0 000 1.066z" fill="#fff"/><path d="M29.25 15c0 7.87-6.38 14.25-14.25 14.25S.75 22.87.75 15 7.13.75 15 .75 29.25 7.13 29.25 15z" stroke="#fff" stroke-width="1.5"/></svg>