<svg width="30" height="30" fill="none" xmlns="http://www.w3.org/2000/svg"><path d="M29.25 15c0 7.87-6.38 14.25-14.25 14.25S.75 22.87.75 15 7.13.75 15 .75 29.25 7.13 29.25 15z" stroke="#fff" stroke-width="1.5"/><path d="M19 7.003L16.925 7c-2.33 0-3.837 1.546-3.837 3.938v1.815h-2.086a.326.326 0 00-.326.326v2.631c0 .18.146.326.326.326h2.086v6.638c0 .18.146.326.326.326h2.722c.18 0 .326-.146.326-.326v-6.638h2.44c.18 0 .326-.146.326-.326v-2.63a.327.327 0 00-.326-.327h-2.44v-1.539c0-.74.177-1.115 1.14-1.115H19c.18 0 .326-.147.326-.327V7.33A.326.326 0 0019 7.003z" fill="#fff"/></svg>