<svg width="30" height="30" fill="none" xmlns="http://www.w3.org/2000/svg"><path d="M29.25 15c0 7.87-6.38 14.25-14.25 14.25S.75 22.87.75 15 7.13.75 15 .75 29.25 7.13 29.25 15z" stroke="#fff" stroke-width="1.5"/><path d="M15.5 7C11.38 7 8 10.38 8 14.5a7.45 7.45 0 001.062 3.841L8 22l3.659-1.062A7.45 7.45 0 0015.5 22c4.12 0 7.5-3.38 7.5-7.5S19.62 7 15.5 7zm4.69 10.669l-.35.349c-.494.494-1.629.454-2.358.314-2.426-.469-5.254-3.21-5.8-5.584-.27-1.176-.12-2.199.27-2.589l.348-.349a.494.494 0 01.698 0l1.396 1.396a.489.489 0 01.144.35.488.488 0 01-.144.348l-.349.35a.989.989 0 000 1.395l2.305 2.275a.987.987 0 001.396 0l.35-.349a.516.516 0 01.698 0l1.395 1.396a.493.493 0 010 .698z" fill="#fff"/></svg>