<svg width="20" height="20" viewBox="0 0 20 20" fill="none" xmlns="http://www.w3.org/2000/svg">
<g clip-path="url(#clip0)">
<path d="M19.9713 7.70553C19.9024 7.49338 19.7191 7.33877 19.4984 7.30674L13.2983 6.40577L10.5254 0.787538C10.4268 0.587539 10.223 0.460938 10 0.460938C9.77699 0.460938 9.57332 0.587539 9.47461 0.787538L6.70165 6.40577L0.501673 7.30674C0.281009 7.33877 0.0976117 7.49338 0.0287057 7.70549C-0.0402394 7.91764 0.0172604 8.15049 0.176986 8.30615L4.66322 12.6793L3.60432 18.8545C3.56658 19.0743 3.65697 19.2964 3.8374 19.4275C3.93947 19.5017 4.06037 19.5394 4.18185 19.5394C4.27513 19.5394 4.36873 19.5172 4.45443 19.4721L10 16.5566L15.5453 19.4721C15.7428 19.5759 15.982 19.5586 16.1624 19.4275C16.3428 19.2964 16.4333 19.0742 16.3956 18.8544L15.3363 12.6793L19.823 8.30611C19.9827 8.15049 20.0403 7.91764 19.9713 7.70553Z" fill="#333333"/>
</g>
<defs>
<clipPath id="clip0">
<rect width="20" height="20" fill="white"/>
</clipPath>
</defs>
</svg>
