<svg width="27" height="21" viewBox="0 0 27 21" fill="none" xmlns="http://www.w3.org/2000/svg">
<path d="M21.2962 19.8874L3.79532 2.38649C3.35621 1.94737 3.35621 1.23461 3.79532 0.795495C4.23444 0.35638 4.9472 0.35638 5.38632 0.795495L22.8872 18.2964C23.3263 18.7355 23.3263 19.4483 22.8872 19.8874C22.4481 20.3265 21.7353 20.3265 21.2962 19.8874Z" fill="white"/>
<path d="M22.8874 2.38652L5.38649 19.8874C4.94737 20.3265 4.23461 20.3265 3.7955 19.8874C3.35638 19.4483 3.35638 18.7355 3.7955 18.2964L21.2964 0.795531C21.7355 0.356416 22.4483 0.356417 22.8874 0.795532C23.3265 1.23465 23.3265 1.94741 22.8874 2.38652Z" fill="white"/>
</svg>
