<svg width="14" height="13" viewBox="0 0 14 13" fill="none" xmlns="http://www.w3.org/2000/svg">
<path d="M13.3886 0.0995749C12.7569 -0.258011 12.0522 0.431619 11.6392 0.840288C10.6916 1.81088 9.88974 2.93472 8.99067 3.95639C7.99445 5.08023 7.07112 6.20407 6.0506 7.30241C5.46744 7.91542 4.83569 8.5795 4.44693 9.34576C3.57219 8.45175 2.81895 7.48116 1.84703 6.68941C1.14238 6.12749 -0.0239244 5.71882 0.000373684 7.07254C0.0489699 8.83496 1.53115 10.7251 2.62457 11.9255C3.08623 12.4363 3.69368 12.9727 4.39833 12.9982C5.24876 13.0493 6.12349 11.9766 6.63375 11.3891C7.53282 10.3674 8.26177 9.21801 9.08786 8.17083C10.157 6.79158 11.2504 5.43782 12.2952 4.03302C12.9513 3.16459 15.0166 1.01904 13.3886 0.0995749ZM1.06945 6.97037C1.04515 6.97037 1.02085 6.97037 0.972258 6.99587C0.875066 6.97037 0.802171 6.94478 0.704979 6.8937C0.777873 6.84262 0.899364 6.86816 1.06945 6.97037Z" fill="#007AAD"/>
</svg>
