<svg width="64" height="64" viewBox="0 0 64 64" fill="none" xmlns="http://www.w3.org/2000/svg">
<g opacity="0.4">
<path d="M25.8066 42.3225H38.1937V36.1289H25.8066V42.3225ZM27.8712 38.1934H36.1292V40.2579H27.8712V38.1934Z" fill="#333333"/>
<path d="M25.8066 13.4192V19.6127H38.1937V13.4192H25.8066ZM36.1292 17.5482H27.8712V15.4837H36.1292V17.5482Z" fill="#333333"/>
<path d="M59.871 3.09668H4.12903C1.85187 3.09668 0 4.94855 0 7.22571C0 9.50287 1.85187 11.3547 4.12903 11.3547V31.9999V33.0322V56.7741H11.3548V60.9031H21.6774V56.7741H42.3226V60.9031H52.6452V56.7741H59.871V33.0322V31.9999V11.3547C62.1481 11.3547 64 9.50287 64 7.22571C64 4.94855 62.1481 3.09668 59.871 3.09668ZM6.19355 11.3547H8.25806V31.9999H6.19355V11.3547ZM10.3226 31.9999V11.3547H53.6774V31.9999H10.3226ZM6.19355 34.0644H8.25806V54.7096H6.19355V34.0644ZM19.6129 58.8386H13.4194V56.7741H19.6129V58.8386ZM50.5806 58.8386H44.3871V56.7741H50.5806V58.8386ZM57.8064 54.7096H55.7419V52.6451H53.6774V54.7096H52.6452H42.3226H21.6774H11.3548H10.3226V34.0644H53.6774V52.6451H55.7419V34.0644H57.8064V54.7096ZM57.8064 31.9999H55.7419V11.3547H57.8064V31.9999ZM59.871 9.29023H4.12903C2.99045 9.29023 2.06452 8.36429 2.06452 7.22571C2.06452 6.08713 2.99045 5.1612 4.12903 5.1612H59.871C61.0095 5.1612 61.9355 6.08713 61.9355 7.22571C61.9355 8.36429 61.0095 9.29023 59.871 9.29023Z" fill="#333333"/>
</g>
</svg>
