<svg width="64" height="64" viewBox="0 0 64 64" fill="none" xmlns="http://www.w3.org/2000/svg">
<g opacity="0.4">
<path d="M18.5803 60.8064H14.9674L11.3545 55.9888V54.4455L11.6413 53.5826C12.1358 52.0992 12.3868 50.5549 12.3868 48.9934C12.3868 46.7509 11.857 44.506 10.854 42.5014L10.3223 41.4369V37.0645H12.3868V40.95L12.7008 41.5776C13.8465 43.8679 14.4513 46.4324 14.4513 48.9934C14.4513 50.7782 14.1655 52.5423 13.6005 54.2358L13.419 54.7802V55.3013L15.9997 58.7419H16.5158V37.0645H18.5803V60.8064Z" fill="#333333"/>
<path d="M49.0319 60.8064H45.4189V37.0645H47.4835V58.7419H47.9996L50.5802 55.3013V54.7802L50.3988 54.2358C49.8338 52.5423 49.548 50.7782 49.548 48.9934C49.548 46.4334 50.1528 43.8679 51.2985 41.5776L51.6125 40.95V37.0645H53.677V41.4369L53.1453 42.5004C52.1422 44.506 51.6125 46.7509 51.6125 48.9934C51.6125 50.5559 51.8635 52.1002 52.358 53.5826L52.6448 54.4455V55.9888L49.0319 60.8064Z" fill="#333333"/>
<path d="M45.4196 16.4194C45.4196 9.02016 39.3994 3 32.0002 3H30.968V8.16129H33.0325V5.11089C38.8122 5.63407 43.3551 10.5055 43.3551 16.4194C43.3551 21.5706 39.9468 25.9803 35.097 27.3407V24.4057H33.0325V29.8387H30.968V24.4068H28.9034V29.8387H26.8389C25.7003 29.8387 24.7744 30.7646 24.7744 31.9032V35H26.8389V31.9032H37.1615V35H39.226V31.9032C39.226 30.7646 38.3001 29.8387 37.1615 29.8387H35.097V29.4693C41.1262 28.0519 45.4196 22.7036 45.4196 16.4194Z" fill="#333333"/>
<path d="M30.9678 36.0322H33.0323V38.0967H30.9678V36.0322Z" fill="#333333"/>
<path d="M8.25781 35H55.7417V37.0645H8.25781V35Z" fill="#333333"/>
<path d="M32.0003 24.7096C27.4296 24.7096 23.71 20.9899 23.71 16.4192C23.71 11.8485 27.4296 8.12891 32.0003 8.12891C36.571 8.12891 40.2906 11.8485 40.2906 16.4192C40.2906 20.9899 36.571 24.7096 32.0003 24.7096Z" stroke="#333333" stroke-width="2"/>
<path d="M35.0967 36.0322H39.2257V38.0967H35.0967V36.0322Z" fill="#333333"/>
<path d="M24.7744 36.0322H28.9034V38.0967H24.7744V36.0322Z" fill="#333333"/>
</g>
</svg>
