<svg width="64" height="64" viewBox="0 0 64 64" fill="none" xmlns="http://www.w3.org/2000/svg">
<g opacity="0.4">
<path d="M6.16113 33.0646V6.16138H22.7418V33.0646H6.16113Z" stroke="#333333" stroke-width="2"/>
<path d="M28.9032 18.5806V0H0V46.4516V48.5161V55.7419V57.8064V64H64V57.8064V55.7419V48.5161V46.4516V18.5806H28.9032ZM61.9355 20.6452V25.8064H28.9032V20.6452H61.9355ZM28.9032 27.871H44.3871V46.4516H28.9032V27.871ZM26.8387 2.06452V18.5806V37.1613H2.06452V2.06452H26.8387ZM2.06452 39.2258H26.8387V46.4516H2.06452V39.2258ZM2.06452 48.5161H26.8387V55.7419H2.06452V48.5161ZM61.9355 61.9355H2.06452V57.8064H61.9355V61.9355ZM61.9355 55.7419H28.9032V48.5161H61.9355V55.7419ZM46.4516 46.4516V27.871H61.9355V46.4516H46.4516Z" fill="#333333"/>
<path d="M17.548 51.6128H11.3545V53.6773H17.548V51.6128Z" fill="#333333"/>
<path d="M17.548 42.3225H11.3545V44.387H17.548V42.3225Z" fill="#333333"/>
<path d="M48.5158 51.6128H42.3223V53.6773H48.5158V51.6128Z" fill="#333333"/>
<path d="M48.5158 22.7097H42.3223V24.7742H48.5158V22.7097Z" fill="#333333"/>
<path d="M42.3223 34.0645H40.2578V38.1935H42.3223V34.0645Z" fill="#333333"/>
<path d="M50.5811 34.0645H48.5166V38.1935H50.5811V34.0645Z" fill="#333333"/>
</g>
</svg>
