<svg width="58" height="58" viewBox="0 0 58 58" fill="none" xmlns="http://www.w3.org/2000/svg">
<g clip-path="url(#clip0)">
<path d="M15.5158 36.5034C16.0574 36.191 16.2428 35.4975 15.9304 34.9559C15.6176 34.4147 14.9246 34.2289 14.383 34.5413C13.8413 34.8541 13.6555 35.5476 13.9683 36.0887C14.2807 36.6304 14.9742 36.8162 15.5158 36.5034Z" fill="white"/>
<path d="M10.8732 44.3215L16.578 54.2031C17.809 56.3377 20.5782 57.128 22.7682 55.862C24.9351 54.6097 25.6799 51.841 24.4263 49.6723L21.0278 43.7852L23.9709 42.086C24.5125 41.7727 24.6984 41.0802 24.3855 40.5385L22.9124 37.987C23.0881 37.953 24.2431 37.7264 44.6102 33.731C47.1281 33.5943 48.6366 30.8406 47.3648 28.6391L43.6 22.1184L46.0059 18.4743C46.2422 18.1159 46.2563 17.6553 46.0417 17.2836L43.7761 13.3594C43.5615 12.9877 43.1539 12.77 42.7269 12.7952L38.3687 13.0568L34.1892 5.81738C33.5839 4.76865 32.4993 4.13365 31.2886 4.11861C31.274 4.11816 31.2599 4.11816 31.2453 4.11816C30.0753 4.11816 29.0133 4.7005 28.384 5.68507L13.5858 24.5367L3.96527 30.091C0.181409 32.2747 -1.12929 37.129 1.06288 40.9231C3.06566 44.3923 7.28804 45.757 10.8732 44.3215ZM22.4646 50.8055C23.0903 51.8879 22.72 53.2729 21.6345 53.9C20.5455 54.5296 19.1587 54.1429 18.5401 53.0707L12.876 43.259L16.8001 40.9934C23.3554 52.349 22.3593 50.6237 22.4646 50.8055ZM19.895 41.8227L18.7622 39.8606L20.7243 38.7278L21.8571 40.6899L19.895 41.8227ZM42.1641 15.0985L43.7296 17.8101L42.3335 19.9244L39.6351 15.2503L42.1641 15.0985ZM30.2788 6.92718C30.5828 6.42981 31.0652 6.37848 31.2607 6.38379C31.4541 6.386 31.936 6.44618 32.2267 6.94975L45.4028 29.7719C45.832 30.5149 45.3103 31.449 44.4496 31.4703C44.2952 31.4738 44.2239 31.5017 43.8283 31.5756L29.8907 7.43474C30.1832 7.05861 30.2209 7.02232 30.2788 6.92718ZM28.3831 9.35521L41.4782 32.0367L21.715 35.913L15.7058 25.5049L28.3831 9.35521ZM3.02495 39.7902C2.52757 38.9296 2.26472 37.9525 2.26472 36.964C2.26472 34.9435 3.35063 33.062 5.09808 32.0531L13.9274 26.9554L19.5914 36.7657L10.7621 41.8638C8.05711 43.425 4.58655 42.4948 3.02495 39.7902Z" fill="white"/>
<path d="M12.0059 37.2213C11.6931 36.6797 11.0001 36.4939 10.4585 36.8067L8.4964 37.9395C7.95566 38.2519 7.26137 38.0657 6.94896 37.5249C6.63611 36.9833 5.94315 36.7974 5.40152 37.1103C4.8599 37.4231 4.67404 38.1161 4.98689 38.6577C5.91925 40.2729 7.99903 40.8424 9.62921 39.9016L11.5913 38.7688C12.1329 38.4559 12.3188 37.7634 12.0059 37.2213Z" fill="white"/>
<path d="M55.654 18.274L51.2772 17.1014C50.6727 16.9394 50.0514 17.2979 49.8895 17.9023C49.7275 18.5068 50.0864 19.1276 50.6908 19.2896L55.0681 20.4622C55.6761 20.6255 56.2943 20.2613 56.4554 19.6613C56.6173 19.0568 56.2584 18.4356 55.654 18.274Z" fill="white"/>
<path d="M56.3164 6.54175L50.0041 10.0544C49.4576 10.3588 49.2607 11.0487 49.5651 11.5952C49.8687 12.1412 50.5581 12.339 51.1059 12.0341L57.4178 8.52152C57.9647 8.21708 58.1612 7.52721 57.8567 6.98072C57.5527 6.43378 56.8629 6.23731 56.3164 6.54175Z" fill="white"/>
<path d="M44.6553 2.42578L43.4813 6.80303C43.3193 7.40749 43.6778 8.02833 44.2822 8.19073C44.8862 8.35224 45.5075 7.9947 45.6699 7.38979L46.8434 3.01254C47.0054 2.40808 46.647 1.7868 46.0425 1.62484C45.4385 1.46289 44.8172 1.82132 44.6553 2.42578Z" fill="white"/>
</g>
<defs>
<clipPath id="clip0">
<rect width="58" height="58" fill="white"/>
</clipPath>
</defs>
</svg>
