<svg width="28" height="28" viewBox="0 0 28 28" fill="none" xmlns="http://www.w3.org/2000/svg">
<path d="M7 0C6.0375 0 5.25 0.7875 5.25 1.75V26.25C5.25 27.2125 6.0375 28 7 28H24.5C25.4625 28 26.25 27.2125 26.25 26.25V7L19.25 0H7Z" fill="#E2E5E7"/>
<path d="M22.75 22.75C22.75 23.2312 22.3563 23.625 21.875 23.625H2.625C2.14375 23.625 1.75 23.2312 1.75 22.75V14C1.75 13.5187 2.14375 13.125 2.625 13.125H21.875C22.3563 13.125 22.75 13.5187 22.75 14V22.75Z" fill="#F15642"/>
<path d="M21.875 23.625H5.25V24.5H21.875C22.3563 24.5 22.75 24.1063 22.75 23.625V22.75C22.75 23.2313 22.3563 23.625 21.875 23.625Z" fill="#CAD1D8"/>
<path d="M5.56398 16.5786C5.56398 16.3476 5.74598 16.0956 6.0391 16.0956H7.65523C8.56523 16.0956 9.38423 16.7046 9.38423 17.8718C9.38423 18.9778 8.56523 19.5938 7.65523 19.5938H6.4871V20.5178C6.4871 20.8258 6.2911 21 6.0391 21C5.8081 21 5.56398 20.8258 5.56398 20.5178V16.5786ZM6.4871 16.9767V18.7197H7.65523C8.12423 18.7197 8.49523 18.3058 8.49523 17.8718C8.49523 17.3827 8.12423 16.9767 7.65523 16.9767H6.4871Z" fill="white"/>
<path d="M10.7544 20.9999C10.5234 20.9999 10.2714 20.8739 10.2714 20.5668V16.5926C10.2714 16.3414 10.5234 16.1586 10.7544 16.1586H12.3565C15.5538 16.1586 15.4838 20.9999 12.4195 20.9999H10.7544ZM11.1954 17.0126V20.1468H12.3565C14.2456 20.1468 14.3296 17.0126 12.3565 17.0126H11.1954Z" fill="white"/>
<path d="M16.6178 17.0686V18.1807H18.4019C18.6539 18.1807 18.9059 18.4327 18.9059 18.6768C18.9059 18.9078 18.6539 19.0968 18.4019 19.0968H16.6178V20.566C16.6178 20.811 16.4436 20.9991 16.1986 20.9991C15.8906 20.9991 15.7025 20.811 15.7025 20.566V16.5917C15.7025 16.3406 15.8915 16.1577 16.1986 16.1577H18.6548C18.9628 16.1577 19.1448 16.3406 19.1448 16.5917C19.1448 16.8157 18.9628 17.0677 18.6548 17.0677H16.6178V17.0686Z" fill="white"/>
<path d="M26.25 12.25L21 7H26.25V12.25Z" fill="#CAD1D8"/>
<path d="M21 7H26.25L19.25 0V5.25C19.25 6.2125 20.0375 7 21 7Z" fill="#B0B7BD"/>
</svg>
