<svg width="36" height="36" viewBox="0 0 36 36" fill="none" xmlns="http://www.w3.org/2000/svg">
<g opacity="0.4">
<path d="M34.875 20.8125V18.5625C34.875 18.4133 34.8157 18.2702 34.7102 18.1648C34.6048 18.0593 34.4617 18 34.3125 18H27V17.4375C26.9987 16.9904 26.8204 16.5619 26.5043 16.2457C26.1881 15.9296 25.7596 15.7513 25.3125 15.75H24.75V14.625H27.5625C28.0096 14.6237 28.4381 14.4454 28.7543 14.1293C29.0704 13.8131 29.2487 13.3846 29.25 12.9375V2.8125C29.2487 2.36536 29.0704 1.93691 28.7543 1.62073C28.4381 1.30455 28.0096 1.12634 27.5625 1.125H8.4375C7.99036 1.12634 7.56191 1.30455 7.24573 1.62073C6.92955 1.93691 6.75134 2.36536 6.75 2.8125V12.9375C6.75134 13.3846 6.92955 13.8131 7.24573 14.1293C7.56191 14.4454 7.99036 14.6237 8.4375 14.625H11.25V15.75H10.6875C10.2404 15.7513 9.81191 15.9296 9.49573 16.2457C9.17955 16.5619 9.00134 16.9904 9 17.4375V18H1.6875C1.53832 18 1.39524 18.0593 1.28975 18.1648C1.18426 18.2702 1.125 18.4133 1.125 18.5625V20.8125C1.125 20.9617 1.18426 21.1048 1.28975 21.2102C1.39524 21.3157 1.53832 21.375 1.6875 21.375H2.73937L1.13062 34.245C1.11982 34.3236 1.12631 34.4035 1.14963 34.4793C1.17295 34.5551 1.21253 34.6249 1.26562 34.6838C1.31788 34.7443 1.38268 34.7928 1.45552 34.8258C1.52837 34.8588 1.60752 34.8756 1.6875 34.875H2.8125C2.93421 34.875 3.05263 34.8355 3.15 34.7625C3.24737 34.6895 3.31842 34.5868 3.3525 34.47L7.17188 21.375H9V23.0625C9 23.2117 9.05926 23.3548 9.16475 23.4602C9.27024 23.5657 9.41332 23.625 9.5625 23.625H11.25V24.75C11.25 24.8992 11.3093 25.0423 11.4148 25.1477C11.5202 25.2532 11.6633 25.3125 11.8125 25.3125H16.3125V28.6875H12.375C12.2258 28.6875 12.0827 28.7468 11.9773 28.8523C11.8718 28.9577 11.8125 29.1008 11.8125 29.25V31.6012C11.4372 31.7339 11.1209 31.995 10.9195 32.3384C10.718 32.6818 10.6445 33.0853 10.7118 33.4776C10.7791 33.8699 10.983 34.2259 11.2873 34.4824C11.5917 34.739 11.9769 34.8797 12.375 34.8797C12.7731 34.8797 13.1583 34.739 13.4627 34.4824C13.767 34.2259 13.9709 33.8699 14.0382 33.4776C14.1055 33.0853 14.032 32.6818 13.8305 32.3384C13.6291 31.995 13.3128 31.7339 12.9375 31.6012V29.8125H17.4375V31.6012C17.0622 31.7339 16.7459 31.995 16.5445 32.3384C16.343 32.6818 16.2695 33.0853 16.3368 33.4776C16.4041 33.8699 16.608 34.2259 16.9123 34.4824C17.2167 34.739 17.6019 34.8797 18 34.8797C18.3981 34.8797 18.7833 34.739 19.0877 34.4824C19.392 34.2259 19.5959 33.8699 19.6632 33.4776C19.7305 33.0853 19.657 32.6818 19.4555 32.3384C19.2541 31.995 18.9378 31.7339 18.5625 31.6012V29.8125H23.0625V31.6012C22.6872 31.7339 22.3709 31.995 22.1695 32.3384C21.968 32.6818 21.8945 33.0853 21.9618 33.4776C22.0291 33.8699 22.233 34.2259 22.5373 34.4824C22.8417 34.739 23.2269 34.8797 23.625 34.8797C24.0231 34.8797 24.4083 34.739 24.7127 34.4824C25.017 34.2259 25.2209 33.8699 25.2882 33.4776C25.3555 33.0853 25.282 32.6818 25.0805 32.3384C24.8791 31.995 24.5628 31.7339 24.1875 31.6012V29.25C24.1875 29.1008 24.1282 28.9577 24.0227 28.8523C23.9173 28.7468 23.7742 28.6875 23.625 28.6875H19.6875V25.3125H24.1875C24.3367 25.3125 24.4798 25.2532 24.5852 25.1477C24.6907 25.0423 24.75 24.8992 24.75 24.75V23.625H26.4375C26.5867 23.625 26.7298 23.5657 26.8352 23.4602C26.9407 23.3548 27 23.2117 27 23.0625V21.375H28.8281L32.6475 34.47C32.6816 34.5868 32.7526 34.6895 32.85 34.7625C32.9474 34.8355 33.0658 34.875 33.1875 34.875H34.3125C34.3925 34.8756 34.4716 34.8588 34.5445 34.8258C34.6173 34.7928 34.6821 34.7443 34.7344 34.6838C34.7875 34.6249 34.8271 34.5551 34.8504 34.4793C34.8737 34.4035 34.8802 34.3236 34.8694 34.245L33.2606 21.375H34.3125C34.4617 21.375 34.6048 21.3157 34.7102 21.2102C34.8157 21.1048 34.875 20.9617 34.875 20.8125ZM2.39062 33.75H2.32313L3.87 21.375H6.00187L2.39062 33.75ZM9 20.25H2.25V19.125H9V20.25ZM11.25 22.5H10.125V17.4375C10.125 17.2883 10.1843 17.1452 10.2898 17.0398C10.3952 16.9343 10.5383 16.875 10.6875 16.875H11.25V22.5ZM12.375 33.75C12.2637 33.75 12.155 33.717 12.0625 33.6552C11.97 33.5934 11.8979 33.5055 11.8553 33.4028C11.8127 33.3 11.8016 33.1869 11.8233 33.0778C11.845 32.9686 11.8986 32.8684 11.9773 32.7898C12.0559 32.7111 12.1561 32.6575 12.2653 32.6358C12.3744 32.6141 12.4875 32.6252 12.5903 32.6678C12.693 32.7104 12.7809 32.7825 12.8427 32.875C12.9045 32.9675 12.9375 33.0762 12.9375 33.1875C12.9375 33.3367 12.8782 33.4798 12.7727 33.5852C12.6673 33.6907 12.5242 33.75 12.375 33.75ZM23.625 32.625C23.7363 32.625 23.845 32.658 23.9375 32.7198C24.03 32.7816 24.1021 32.8695 24.1447 32.9722C24.1873 33.075 24.1984 33.1881 24.1767 33.2972C24.155 33.4064 24.1014 33.5066 24.0227 33.5852C23.9441 33.6639 23.8439 33.7175 23.7347 33.7392C23.6256 33.7609 23.5125 33.7498 23.4097 33.7072C23.307 33.6646 23.2191 33.5925 23.1573 33.5C23.0955 33.4075 23.0625 33.2988 23.0625 33.1875C23.0625 33.0383 23.1218 32.8952 23.2273 32.7898C23.3327 32.6843 23.4758 32.625 23.625 32.625ZM18 33.75C17.8887 33.75 17.78 33.717 17.6875 33.6552C17.595 33.5934 17.5229 33.5055 17.4803 33.4028C17.4377 33.3 17.4266 33.1869 17.4483 33.0778C17.47 32.9686 17.5236 32.8684 17.6023 32.7898C17.6809 32.7111 17.7811 32.6575 17.8903 32.6358C17.9994 32.6141 18.1125 32.6252 18.2153 32.6678C18.318 32.7104 18.4059 32.7825 18.4677 32.875C18.5295 32.9675 18.5625 33.0762 18.5625 33.1875C18.5625 33.3367 18.5032 33.4798 18.3977 33.5852C18.2923 33.6907 18.1492 33.75 18 33.75ZM18.5625 28.6875H17.4375V25.3125H18.5625V28.6875ZM23.625 24.1875H12.375V12.9375C12.375 12.7883 12.4343 12.6452 12.5398 12.5398C12.6452 12.4343 12.7883 12.375 12.9375 12.375H23.0625C23.2117 12.375 23.3548 12.4343 23.4602 12.5398C23.5657 12.6452 23.625 12.7883 23.625 12.9375V24.1875ZM14.625 11.25V10.125C14.625 9.22989 14.9806 8.37145 15.6135 7.73851C16.2464 7.10558 17.1049 6.75 18 6.75C18.8951 6.75 19.7536 7.10558 20.3865 7.73851C21.0194 8.37145 21.375 9.22989 21.375 10.125V11.25H14.625ZM23.0625 11.25H22.5V10.125C22.5 8.93153 22.0259 7.78693 21.182 6.94302C20.3381 6.09911 19.1935 5.625 18 5.625C16.8065 5.625 15.6619 6.09911 14.818 6.94302C13.9741 7.78693 13.5 8.93153 13.5 10.125V11.25H12.9375C12.4904 11.2513 12.0619 11.4296 11.7457 11.7457C11.4296 12.0619 11.2513 12.4904 11.25 12.9375V13.5H8.4375C8.28832 13.5 8.14524 13.4407 8.03975 13.3352C7.93426 13.2298 7.875 13.0867 7.875 12.9375V2.8125C7.875 2.66332 7.93426 2.52024 8.03975 2.41475C8.14524 2.30926 8.28832 2.25 8.4375 2.25H27.5625C27.7117 2.25 27.8548 2.30926 27.9602 2.41475C28.0657 2.52024 28.125 2.66332 28.125 2.8125V12.9375C28.125 13.0867 28.0657 13.2298 27.9602 13.3352C27.8548 13.4407 27.7117 13.5 27.5625 13.5H24.75V12.9375C24.7487 12.4904 24.5704 12.0619 24.2543 11.7457C23.9381 11.4296 23.5096 11.2513 23.0625 11.25ZM25.875 22.5H24.75V16.875H25.3125C25.4617 16.875 25.6048 16.9343 25.7102 17.0398C25.8157 17.1452 25.875 17.2883 25.875 17.4375V22.5ZM33.6769 33.75H33.6094L29.9981 21.375H32.13L33.6769 33.75ZM33.75 20.25H27V19.125H33.75V20.25Z" fill="#333333"/>
<path d="M25.875 6.1875H27V3.9375C27 3.78832 26.9407 3.64524 26.8352 3.53975C26.7298 3.43426 26.5867 3.375 26.4375 3.375H24.1875V4.5H25.875V6.1875Z" fill="#333333"/>
<path d="M27 7.3125H25.875V8.4375H27V7.3125Z" fill="#333333"/>
</g>
</svg>
