<svg width="20" height="20" viewBox="0 0 20 20" fill="none" xmlns="http://www.w3.org/2000/svg">
<path d="M10 0C5.86426 0 2.5 3.36465 2.5 7.5C2.5 13.033 9.41977 19.6094 9.71438 19.8869C9.79492 19.9621 9.89746 20 10 20C10.1025 20 10.2051 19.9621 10.2857 19.8869C10.5802 19.6094 17.5 13.033 17.5 7.5C17.5 3.36465 14.1357 0 10 0ZM10 11.6667C7.70262 11.6667 5.83332 9.79738 5.83332 7.5C5.83332 5.20262 7.70266 3.33332 10 3.33332C12.2973 3.33332 14.1667 5.20266 14.1667 7.5C14.1667 9.79734 12.2974 11.6667 10 11.6667Z" fill="#0B9EC7"/>
</svg>
