<svg width="23" height="23" viewBox="0 0 23 23" fill="none" xmlns="http://www.w3.org/2000/svg">
<g clip-path="url(#clip0)">
<path d="M22.4091 17.8752L18.5983 14.0643C17.8085 13.2745 16.5301 13.2744 15.7402 14.0643L14.7874 15.0171C13.9993 15.8051 12.7173 15.805 11.9262 15.014L7.93614 11.0767C7.14812 10.2887 7.14812 9.00664 7.93614 8.21862L8.88884 7.26592C9.67686 6.47794 9.67686 5.19583 8.88884 4.40781L5.07807 0.596993C4.29005 -0.191027 3.00785 -0.190937 2.21996 0.596993L1.26735 1.5497C0.0307387 2.78626 -0.332949 5.51266 0.318194 8.66483C0.733182 10.6738 1.92707 14.5417 5.2605 17.8751C8.58719 21.2018 12.4237 22.3435 14.4145 22.728C16.6028 23.1506 19.8914 23.2508 21.4564 21.686L22.4092 20.7332C23.197 19.9453 23.197 18.6631 22.4091 17.8752ZM3.17275 1.5497C3.43546 1.28704 3.86275 1.28699 4.1255 1.5497L7.93632 5.36051C8.19902 5.62321 8.19902 6.05055 7.93632 6.31326L7.46234 6.78723L2.69874 2.02371L3.17275 1.5497ZM14.6701 21.4051C12.8306 21.0499 9.28595 19.9952 6.2132 16.9225C3.12797 13.8371 2.02222 10.2537 1.63768 8.39229C1.12831 5.92661 1.34039 4.07318 1.83498 3.06532L6.55703 7.78741C5.69045 9.09486 5.83285 10.8788 6.98667 12.0326L10.9767 15.9698C12.1272 17.1203 13.9101 17.2635 15.2187 16.3963L19.9446 21.1222C18.5045 21.8525 16.2649 21.7131 14.6701 21.4051ZM21.4564 19.7805L20.9824 20.2545L16.2189 15.4911L16.6928 15.0171C16.9561 14.7538 17.3822 14.7538 17.6455 15.0171L21.4564 18.8279C21.719 19.0905 21.719 19.5179 21.4564 19.7805Z" fill="#0B9EC7"/>
<path d="M12.8944 0.00518799C12.5223 0.00518799 12.2207 0.306793 12.2207 0.678836C12.2207 1.05088 12.5223 1.35248 12.8944 1.35248C17.7233 1.35248 21.6519 5.28113 21.6519 10.11C21.6519 10.4821 21.9535 10.7837 22.3256 10.7837C22.6976 10.7837 22.9992 10.4821 22.9992 10.11C22.9992 4.53821 18.4662 0.00518799 12.8944 0.00518799Z" fill="#0B9EC7"/>
<path d="M12.8944 2.6998C12.5223 2.6998 12.2207 3.0014 12.2207 3.37345C12.2207 3.74549 12.5223 4.0471 12.8944 4.0471C16.2374 4.0471 18.9573 6.76693 18.9573 10.11C18.9573 10.4821 19.2589 10.7837 19.6309 10.7837C20.003 10.7837 20.3046 10.4821 20.3046 10.11C20.3046 6.02402 16.9804 2.6998 12.8944 2.6998Z" fill="#0B9EC7"/>
<path d="M12.8944 5.39444C12.5223 5.39444 12.2207 5.69605 12.2207 6.06809C12.2207 6.44013 12.5223 6.74174 12.8944 6.74174C14.7516 6.74174 16.2626 8.25273 16.2626 10.11C16.2626 10.4821 16.5642 10.7837 16.9363 10.7837C17.3083 10.7837 17.6099 10.4821 17.6099 10.11C17.61 7.50986 15.4945 5.39444 12.8944 5.39444Z" fill="#0B9EC7"/>
<path d="M12.8944 8.08908C12.5223 8.08908 12.2207 8.39069 12.2207 8.76273C12.2207 9.13477 12.5223 9.43638 12.8944 9.43638C13.2658 9.43638 13.568 9.73857 13.568 10.11C13.568 10.4821 13.8696 10.7837 14.2416 10.7837C14.6137 10.7837 14.9153 10.4821 14.9153 10.11C14.9153 8.99565 14.0087 8.08908 12.8944 8.08908Z" fill="#0B9EC7"/>
</g>
<defs>
<clipPath id="clip0">
<rect width="23" height="23" fill="white"/>
</clipPath>
</defs>
</svg>
