<svg width="36" height="36" viewBox="0 0 36 36" fill="none" xmlns="http://www.w3.org/2000/svg">
<g opacity="0.4">
<path d="M14.8231 25.7254H13.4074C13.2784 25.7254 13.1546 25.6742 13.0634 25.5829C12.9722 25.4917 12.9209 25.368 12.9209 25.2389C12.9209 25.1099 12.9722 24.9862 13.0634 24.8949C13.1546 24.8037 13.2784 24.7524 13.4074 24.7524H14.8231C14.9521 24.7524 15.0758 24.8037 15.1671 24.8949C15.2583 24.9862 15.3095 25.1099 15.3095 25.2389C15.3095 25.368 15.2583 25.4917 15.1671 25.5829C15.0758 25.6742 14.9521 25.7254 14.8231 25.7254Z" fill="#333333"/>
<path d="M34.151 25.7254H23.0786C22.9496 25.7254 22.8258 25.6741 22.7346 25.5829C22.6434 25.4917 22.5921 25.3679 22.5921 25.2389C22.5921 25.1099 22.6434 24.9862 22.7346 24.8949C22.8258 24.8037 22.9496 24.7524 23.0786 24.7524H34.0537V22.6216H1.94563V24.7524H10.0018C10.1309 24.7524 10.2546 24.8037 10.3458 24.8949C10.4371 24.9862 10.4883 25.1099 10.4883 25.2389C10.4883 25.3679 10.4371 25.4917 10.3458 25.5829C10.2546 25.6741 10.1309 25.7254 10.0018 25.7254H1.84833C1.61609 25.7254 1.39336 25.6331 1.22914 25.4689C1.06491 25.3047 0.972656 25.082 0.972656 24.8497V22.5243C0.972656 22.2921 1.06491 22.0694 1.22914 21.9051C1.39336 21.7409 1.61609 21.6487 1.84833 21.6487H34.151C34.3833 21.6487 34.606 21.7409 34.7702 21.9051C34.9345 22.0694 35.0267 22.2921 35.0267 22.5243V24.8497C35.0267 25.082 34.9345 25.3047 34.7702 25.4689C34.606 25.6331 34.3833 25.7254 34.151 25.7254Z" fill="#333333"/>
<path d="M19.6735 25.7254H18.2287C18.0996 25.7254 17.9759 25.6742 17.8847 25.5829C17.7934 25.4917 17.7422 25.368 17.7422 25.2389C17.7422 25.1099 17.7934 24.9862 17.8847 24.8949C17.9759 24.8037 18.0996 24.7524 18.2287 24.7524H19.6735C19.8026 24.7524 19.9263 24.8037 20.0175 24.8949C20.1088 24.9862 20.16 25.1099 20.16 25.2389C20.16 25.368 20.1088 25.4917 20.0175 25.5829C19.9263 25.6742 19.8026 25.7254 19.6735 25.7254Z" fill="#333333"/>
<path d="M31.9565 33.4761H28.8547C28.7256 33.4761 28.6019 33.4249 28.5107 33.3336C28.4194 33.2424 28.3682 33.1186 28.3682 32.9896V25.2365C28.3682 25.1075 28.4194 24.9837 28.5107 24.8925C28.6019 24.8013 28.7256 24.75 28.8547 24.75H31.9565C32.0855 24.75 32.2093 24.8013 32.3005 24.8925C32.3917 24.9837 32.443 25.1075 32.443 25.2365V32.9896C32.443 33.1186 32.3917 33.2424 32.3005 33.3336C32.2093 33.4249 32.0855 33.4761 31.9565 33.4761ZM29.3411 32.5031H31.47V25.723H29.3411V32.5031Z" fill="#333333"/>
<path d="M7.14594 33.4761H4.0441C3.91508 33.4761 3.79134 33.4249 3.70011 33.3336C3.60887 33.2424 3.55762 33.1186 3.55762 32.9896V25.2365C3.55762 25.1075 3.60887 24.9837 3.70011 24.8925C3.79134 24.8013 3.91508 24.75 4.0441 24.75H7.14594C7.27496 24.75 7.3987 24.8013 7.48994 24.8925C7.58117 24.9837 7.63243 25.1075 7.63243 25.2365V32.9896C7.63243 33.1186 7.58117 33.2424 7.48994 33.3336C7.3987 33.4249 7.27496 33.4761 7.14594 33.4761ZM4.53059 32.5031H6.65945V25.723H4.53059V32.5031Z" fill="#333333"/>
<path d="M30.4052 7.11485C30.2762 7.11485 30.1525 7.06359 30.0612 6.97236C29.97 6.88113 29.9187 6.75739 29.9187 6.62836V4.56079C29.9128 4.28249 29.798 4.0176 29.5991 3.82288C29.4002 3.62816 29.1329 3.51912 28.8545 3.51912C28.5762 3.51912 28.3089 3.62816 28.11 3.82288C27.911 4.0176 27.7963 4.28249 27.7904 4.56079V6.62836C27.7904 6.75739 27.7391 6.88113 27.6479 6.97236C27.5566 7.06359 27.4329 7.11485 27.3039 7.11485C27.1748 7.11485 27.0511 7.06359 26.9599 6.97236C26.8686 6.88113 26.8174 6.75739 26.8174 6.62836V4.56079C26.8256 4.02596 27.0439 3.51582 27.4251 3.14052C27.8062 2.76523 28.3196 2.55487 28.8545 2.55487C29.3894 2.55487 29.9029 2.76523 30.284 3.14052C30.6652 3.51582 30.8834 4.02596 30.8917 4.56079V6.62836C30.8917 6.75739 30.8404 6.88113 30.7492 6.97236C30.658 7.06359 30.5342 7.11485 30.4052 7.11485Z" fill="#333333"/>
<path d="M30.4052 22.6216H27.3039C27.1748 22.6216 27.0511 22.5704 26.9599 22.4791C26.8686 22.3879 26.8174 22.2642 26.8174 22.1351V15.6162C26.8174 15.4872 26.8686 15.3635 26.9599 15.2722C27.0511 15.181 27.1748 15.1297 27.3039 15.1297C27.4329 15.1297 27.5566 15.181 27.6479 15.2722C27.7391 15.3635 27.7904 15.4872 27.7904 15.6162V21.6486H29.9187V15.6162C29.9187 15.4872 29.97 15.3635 30.0612 15.2722C30.1525 15.181 30.2762 15.1297 30.4052 15.1297C30.5342 15.1297 30.658 15.181 30.7492 15.2722C30.8404 15.3635 30.8917 15.4872 30.8917 15.6162V22.1351C30.8917 22.2642 30.8404 22.3879 30.7492 22.4791C30.658 22.5704 30.5342 22.6216 30.4052 22.6216Z" fill="#333333"/>
<path d="M8.69623 7.11485C8.56721 7.11485 8.44347 7.06359 8.35224 6.97236C8.261 6.88113 8.20975 6.75739 8.20975 6.62836V4.56079C8.2038 4.28249 8.08906 4.0176 7.89014 3.82288C7.69121 3.62816 7.42392 3.51912 7.14556 3.51912C6.86719 3.51912 6.59991 3.62816 6.40098 3.82288C6.20205 4.0176 6.08732 4.28249 6.08137 4.56079V6.62836C6.08137 6.75739 6.03012 6.88113 5.93888 6.97236C5.84765 7.06359 5.72391 7.11485 5.59488 7.11485C5.46586 7.11485 5.34212 7.06359 5.25089 6.97236C5.15965 6.88113 5.1084 6.75739 5.1084 6.62836V4.56079C5.11666 4.02596 5.33493 3.51582 5.71607 3.14052C6.09721 2.76523 6.61066 2.55487 7.14556 2.55487C7.68046 2.55487 8.1939 2.76523 8.57505 3.14052C8.95619 3.51582 9.17445 4.02596 9.18272 4.56079V6.62836C9.18272 6.75739 9.13146 6.88113 9.04023 6.97236C8.949 7.06359 8.82526 7.11485 8.69623 7.11485Z" fill="#333333"/>
<path d="M8.69623 22.6216H5.59488C5.46586 22.6216 5.34212 22.5704 5.25089 22.4791C5.15965 22.3879 5.1084 22.2642 5.1084 22.1351V15.6162C5.1084 15.4872 5.15965 15.3635 5.25089 15.2722C5.34212 15.181 5.46586 15.1297 5.59488 15.1297C5.72391 15.1297 5.84765 15.181 5.93888 15.2722C6.03012 15.3635 6.08137 15.4872 6.08137 15.6162V21.6486H8.20975V15.6162C8.20975 15.4872 8.261 15.3635 8.35224 15.2722C8.44347 15.181 8.56721 15.1297 8.69623 15.1297C8.82526 15.1297 8.949 15.181 9.04023 15.2722C9.13146 15.3635 9.18272 15.4872 9.18272 15.6162V22.1351C9.18272 22.2642 9.13146 22.3879 9.04023 22.4791C8.949 22.5704 8.82526 22.6216 8.69623 22.6216Z" fill="#333333"/>
<path d="M31.6975 16.1027H4.30245C4.0366 16.1025 3.7817 15.9968 3.59358 15.809C3.40546 15.6212 3.29947 15.3664 3.29883 15.1006V7.14553C3.29909 6.87943 3.40491 6.6243 3.59307 6.43615C3.78123 6.24799 4.03635 6.14216 4.30245 6.14191H31.6975C31.9636 6.14216 32.2187 6.24799 32.4069 6.43615C32.595 6.6243 32.7008 6.87943 32.7011 7.14553V15.1006C32.7005 15.3664 32.5945 15.6212 32.4063 15.809C32.2182 15.9968 31.9633 16.1025 31.6975 16.1027ZM4.30245 7.11488L4.2718 7.14553V15.1006L31.6975 15.1307L31.7281 7.14553L4.30245 7.11488Z" fill="#333333"/>
<path d="M32.2146 11.6119H3.78531C3.65629 11.6119 3.53255 11.5607 3.44132 11.4695C3.35008 11.3782 3.29883 11.2545 3.29883 11.1255C3.29883 10.9964 3.35008 10.8727 3.44132 10.7815C3.53255 10.6902 3.65629 10.639 3.78531 10.639H32.2146C32.3436 10.639 32.4674 10.6902 32.5586 10.7815C32.6498 10.8727 32.7011 10.9964 32.7011 11.1255C32.7011 11.2545 32.6498 11.3782 32.5586 11.4695C32.4674 11.5607 32.3436 11.6119 32.2146 11.6119Z" fill="#333333"/>
</g>
</svg>
