<svg width="19" height="19" viewBox="0 0 19 19" fill="none" xmlns="http://www.w3.org/2000/svg">
<path d="M8.00415 9.78869C8.6295 9.11549 9.20541 8.44706 9.79466 7.76315C10.1623 7.33642 10.5352 6.90367 10.9285 6.45996M8.00415 9.78869L2.52322 10.3827C2.72087 12.0535 4.09505 13.7952 5.12457 14.9255L4.56813 15.4284C4.56846 15.4287 4.56878 15.4291 4.5691 15.4294C5.02932 15.9385 5.82155 16.7057 6.8626 16.7474C7.59561 16.7875 8.22067 16.357 8.63339 16.0011C9.02491 15.6635 9.37512 15.2574 9.61607 14.978C9.64516 14.9443 9.67265 14.9124 9.69844 14.8827C10.1713 14.3452 10.5945 13.7799 10.9943 13.2313C11.0812 13.1121 11.1666 12.9941 11.2511 12.8774C11.562 12.4483 11.8612 12.0353 12.1767 11.6354L12.1767 11.6354L12.1806 11.6303C12.5303 11.1792 12.886 10.7266 13.2434 10.2718C13.9648 9.35374 14.6935 8.42646 15.3953 7.48295C15.4533 7.40632 15.5351 7.30526 15.6322 7.18544C15.9809 6.75492 16.5256 6.0823 16.8639 5.43125C17.0849 5.00611 17.2849 4.4752 17.2449 3.92547C17.2 3.30961 16.8637 2.78891 16.2575 2.44653C15.6008 2.07522 14.9577 2.29946 14.5542 2.53461C14.1602 2.76427 13.8217 3.09922 13.6236 3.29535L13.6117 3.30713L13.6116 3.30705L13.6025 3.31636C13.1036 3.82738 12.6484 4.37321 12.215 4.90579C12.126 5.01515 12.0382 5.1236 11.9511 5.23117C11.6083 5.65462 11.2767 6.06422 10.9285 6.45996M8.00415 9.78869C7.99448 9.79886 7.98476 9.80906 7.97501 9.81931C7.61476 10.1979 7.1996 10.6342 6.83236 11.1264L8.00415 9.78869ZM10.9285 6.45996C10.9288 6.4596 10.9291 6.45924 10.9294 6.45888L11.4907 6.95639L10.9276 6.46092C10.9279 6.4606 10.9282 6.46028 10.9285 6.45996Z" fill="#007AAD" stroke="white" stroke-width="1.5"/>
</svg>
