<svg width="70" height="70" viewBox="0 0 70 70" fill="none" xmlns="http://www.w3.org/2000/svg">
<g clip-path="url(#clip0)">
<path d="M46.1441 68.1777C45.7797 68.3008 45.4128 68.4203 45.0435 68.5302C45.414 68.4191 45.7797 68.2996 46.1441 68.1777Z" fill="#F9EDE0"/>
<path d="M47.9727 67.5066C47.5793 67.6635 47.1858 67.818 46.7852 67.9604C47.1858 67.8168 47.5805 67.6635 47.9727 67.5066Z" fill="#F9EDE0"/>
<path d="M35 70C54.33 70 70 54.33 70 35C70 15.67 54.33 0 35 0C15.67 0 0 15.67 0 35C0 54.33 15.67 70 35 70Z" fill="#F9F9F9"/>
<path d="M44.3375 68.7305C43.9803 68.8294 43.6206 68.9236 43.2573 69.0117C43.6206 68.9236 43.9803 68.8294 44.3375 68.7305Z" fill="#F9EDE0"/>
<path d="M32.4644 69.8987C32.0372 69.8685 31.6111 69.8359 31.1899 69.79C31.6124 69.8359 32.0384 69.8685 32.4644 69.8987Z" fill="#F9EDE0"/>
<path d="M26.7413 69.0105C26.3792 68.9224 26.0196 68.8282 25.6611 68.7292C26.0196 68.8294 26.3792 68.9236 26.7413 69.0105Z" fill="#F9EDE0"/>
<path d="M30.4657 69.6983C30.0831 69.6488 29.7017 69.597 29.3228 69.5354C29.7005 69.597 30.0831 69.6476 30.4657 69.6983Z" fill="#F9EDE0"/>
<path d="M35 70.0001C34.3555 70.0001 33.7171 69.9796 33.0811 69.9458C33.7171 69.9796 34.3555 70.0001 35 70.0001Z" fill="#F9EDE0"/>
<path d="M28.5756 69.4013C28.2087 69.3337 27.843 69.2613 27.481 69.1816C27.843 69.2613 28.2087 69.3337 28.5756 69.4013Z" fill="#F9EDE0"/>
<path d="M21.5138 67.3038C20.9695 67.0757 20.4312 66.8367 19.9014 66.5833C20.4324 66.8367 20.9707 67.0769 21.5138 67.3038Z" fill="#F9EDE0"/>
<path d="M23.2135 67.9604C22.814 67.8168 22.4193 67.6635 22.0259 67.5066C22.4193 67.6635 22.814 67.8168 23.2135 67.9604Z" fill="#F9EDE0"/>
<path d="M36.919 69.9458C36.2829 69.9796 35.6445 70.0001 35 70.0001C35.6445 70.0001 36.2829 69.9796 36.919 69.9458Z" fill="#F9EDE0"/>
<path d="M38.8101 69.79C38.3877 69.8359 37.9617 69.8685 37.5356 69.8987C37.9617 69.8685 38.3877 69.8359 38.8101 69.79Z" fill="#F9EDE0"/>
<path d="M42.5199 69.1816C42.1567 69.2613 41.7922 69.3337 41.4253 69.4013C41.791 69.3337 42.1567 69.2613 42.5199 69.1816Z" fill="#F9EDE0"/>
<path d="M40.6781 69.5342C40.2991 69.5957 39.9177 69.6476 39.5352 69.6971C39.9165 69.6476 40.2991 69.5969 40.6781 69.5342Z" fill="#F9EDE0"/>
<path d="M50.091 66.5857C49.5636 66.8379 49.0277 67.0769 48.4858 67.3038C49.0277 67.0769 49.5636 66.8391 50.091 66.5857Z" fill="#F9EDE0"/>
<path d="M24.9562 68.5299C24.5856 68.4189 24.22 68.2994 23.8555 68.1775C24.22 68.2994 24.5856 68.4189 24.9562 68.5299Z" fill="#F9EDE0"/>
<path d="M48.4858 67.3037C48.3169 67.3749 48.1443 67.4377 47.9741 67.5053C48.1431 67.4377 48.3157 67.3749 48.4858 67.3037Z" fill="#F9EDE0"/>
<path d="M50.1391 66.564C50.1234 66.5712 50.1065 66.5784 50.0908 66.5857C50.1065 66.5784 50.1234 66.5724 50.1391 66.564Z" fill="#F9EDE0"/>
<path d="M27.4798 69.1816C27.2324 69.1273 26.9862 69.0706 26.7412 69.0115C26.9862 69.0706 27.2324 69.1273 27.4798 69.1816Z" fill="#F9EDE0"/>
<path d="M29.3213 69.5341C29.0715 69.4931 28.8228 69.4472 28.5742 69.4014C28.824 69.4472 29.0715 69.4943 29.3213 69.5341Z" fill="#F9EDE0"/>
<path d="M33.0811 69.9458C32.8747 69.9349 32.6695 69.9132 32.4644 69.8987C32.6707 69.9132 32.8747 69.9349 33.0811 69.9458Z" fill="#F9EDE0"/>
<path d="M31.1895 69.79C30.9469 69.7634 30.7067 69.7296 30.4653 69.6982C30.7067 69.7296 30.9469 69.7634 31.1895 69.79Z" fill="#F9EDE0"/>
<path d="M19.9028 66.5838C19.8896 66.5777 19.8751 66.5717 19.8618 66.5657C19.8751 66.5717 19.8896 66.5777 19.9028 66.5838Z" fill="#F9EDE0"/>
<path d="M37.5357 69.8987C37.3293 69.9132 37.1253 69.9349 36.9189 69.9458C37.1253 69.9349 37.3293 69.9132 37.5357 69.8987Z" fill="#F9EDE0"/>
<path d="M45.0434 68.53C44.8093 68.6 44.574 68.6652 44.3374 68.7304C44.574 68.6652 44.8093 68.6 45.0434 68.53Z" fill="#F9EDE0"/>
<path d="M46.7864 67.9604C46.5739 68.0365 46.3591 68.1053 46.1455 68.1777C46.3591 68.1053 46.5739 68.0365 46.7864 67.9604Z" fill="#F9EDE0"/>
<path d="M22.0269 67.5065C21.8567 67.4389 21.6841 67.3749 21.5151 67.3049C21.6841 67.3749 21.8567 67.4377 22.0269 67.5065Z" fill="#F9EDE0"/>
<path d="M23.8552 68.1777C23.6416 68.1053 23.4256 68.0365 23.2144 67.9604C23.4256 68.0365 23.6404 68.1053 23.8552 68.1777Z" fill="#F9EDE0"/>
<path d="M39.5342 69.6982C39.2928 69.7296 39.0526 69.7646 38.8101 69.79C39.0526 69.7634 39.2928 69.7296 39.5342 69.6982Z" fill="#F9EDE0"/>
<path d="M43.2586 69.0103C43.0136 69.0694 42.7674 69.1261 42.52 69.1804C42.7674 69.1273 43.0136 69.0706 43.2586 69.0103Z" fill="#F9EDE0"/>
<path d="M41.4243 69.4014C41.1757 69.4472 40.9283 69.4943 40.6772 69.5341C40.9283 69.4943 41.1757 69.4472 41.4243 69.4014Z" fill="#F9EDE0"/>
<path d="M25.6621 68.7304C25.4267 68.6652 25.1902 68.6 24.9561 68.53C25.1902 68.6 25.4255 68.6652 25.6621 68.7304Z" fill="#F9EDE0"/>
<path d="M43.0112 37.4065C46.9106 34.8105 49.4825 30.38 49.4825 25.3448C49.4825 17.3467 42.9979 10.8621 34.9998 10.8621C27.0017 10.8621 20.517 17.3467 20.517 25.3448C20.517 30.38 23.0889 34.8105 26.9884 37.4065C26.9884 37.4065 26.9896 37.4078 26.9908 37.4078C26.9896 37.4078 26.9896 37.4065 26.9896 37.4065C17.6555 40.2198 10.3875 47.7955 8.04736 57.3264L8.04857 57.3276C8.42995 57.7874 8.82581 58.2364 9.23012 58.6769C9.32788 58.7843 9.43047 58.8869 9.53064 58.9919C9.84202 59.3226 10.157 59.6484 10.4805 59.9671C10.6144 60.0986 10.7508 60.2253 10.8872 60.3545C11.1865 60.6393 11.4894 60.9205 11.7984 61.1945C11.9517 61.3296 12.1074 61.4636 12.2618 61.5964C12.5648 61.8559 12.8713 62.1105 13.1839 62.3591C13.3481 62.4907 13.5134 62.6198 13.6787 62.749C13.9949 62.9928 14.316 63.2293 14.6406 63.461C14.8084 63.5805 14.9737 63.7024 15.1439 63.8195C15.4867 64.056 15.8355 64.2829 16.1867 64.5074C16.3448 64.6076 16.4993 64.7114 16.6586 64.8103C17.0641 65.0602 17.4768 65.2991 17.8932 65.5333C18.0031 65.5948 18.1105 65.6612 18.2215 65.7215C18.7598 66.016 19.3065 66.2984 19.8617 66.5652C19.875 66.5712 19.8894 66.5772 19.9027 66.5833C20.4325 66.8367 20.9708 67.0769 21.5151 67.3038C21.6841 67.375 21.8567 67.4377 22.0268 67.5053C22.4203 67.6622 22.8137 67.8167 23.2144 67.9591C23.4268 68.0352 23.6417 68.104 23.8553 68.1764C24.2198 68.2995 24.5867 68.419 24.956 68.5288C25.1901 68.5988 25.4255 68.664 25.662 68.7291C26.0193 68.8281 26.3789 68.9222 26.7422 69.0103C26.9872 69.0695 27.2334 69.1262 27.4808 69.1805C27.8441 69.2602 28.2086 69.3326 28.5755 69.4002C28.8241 69.446 29.0715 69.4931 29.3225 69.5329C29.7015 69.5945 30.0829 69.6464 30.4655 69.6959C30.7068 69.7272 30.947 69.7622 31.1896 69.7876C31.612 69.8334 32.0381 69.866 32.4641 69.8962C32.6705 69.9107 32.8744 69.9324 33.0808 69.9433C33.7168 69.9795 34.3553 70 34.9998 70C35.6443 70 36.2827 69.9795 36.9187 69.9457C37.1251 69.9348 37.3303 69.9131 37.5355 69.8986C37.9627 69.8684 38.3887 69.8359 38.81 69.79C39.0525 69.7634 39.2927 69.7296 39.5341 69.6983C39.9167 69.6488 40.2981 69.5969 40.677 69.5353C40.9268 69.4943 41.1755 69.4484 41.4241 69.4026C41.791 69.335 42.1567 69.2626 42.5187 69.1829C42.7662 69.1286 43.0124 69.0719 43.2574 69.0127C43.6194 68.9246 43.9791 68.8305 44.3375 68.7315C44.5729 68.6664 44.8094 68.6012 45.0436 68.5312C45.4141 68.4202 45.7798 68.3007 46.1443 68.1788C46.3579 68.1064 46.5739 68.0376 46.7851 67.9615C47.1846 67.8179 47.5793 67.6646 47.9727 67.5078C48.1429 67.4402 48.3155 67.3762 48.4844 67.3062C49.0263 67.0793 49.5622 66.8415 50.0896 66.5881C50.1053 66.5809 50.1222 66.5736 50.1379 66.5664C50.6931 66.2996 51.2398 66.0172 51.7781 65.7228C51.8891 65.6624 51.9965 65.596 52.1063 65.5345C52.5227 65.3003 52.9355 65.0614 53.341 64.8115C53.5003 64.7138 53.656 64.61 53.8129 64.5086C54.1641 64.2841 54.5129 64.056 54.8556 63.8207C55.0246 63.7036 55.1912 63.5829 55.3589 63.4622C55.6836 63.2293 56.0046 62.9927 56.3208 62.7502C56.4874 62.6222 56.6515 62.4919 56.8156 62.3603C57.127 62.1117 57.4348 61.8571 57.7377 61.5976C57.8934 61.4648 58.0491 61.3309 58.2012 61.1957C58.5101 60.9217 58.8131 60.6405 59.1124 60.3557C59.2475 60.2265 59.3851 60.0986 59.5191 59.9683C59.8425 59.6496 60.1587 59.3238 60.4689 58.9931C60.5679 58.8869 60.6705 58.7843 60.7694 58.6781C61.1737 58.2376 61.5696 57.7886 61.951 57.3288L61.9522 57.3276C59.6132 47.7955 52.3453 40.2198 43.0112 37.4065Z" fill="#F2F2F2"/>
</g>
<defs>
<clipPath id="clip0">
<rect width="70" height="70" fill="white"/>
</clipPath>
</defs>
</svg>
