<svg width="50" height="20" viewBox="0 0 50 20" fill="none" xmlns="http://www.w3.org/2000/svg">
<path d="M19.9713 7.24459C19.9024 7.03244 19.7191 6.87784 19.4984 6.8458L13.2983 5.94483L10.5254 0.326601C10.4268 0.126601 10.223 0 10 0C9.77699 0 9.57332 0.126601 9.47461 0.326601L6.70165 5.94483L0.501673 6.8458C0.281009 6.87784 0.0976117 7.03244 0.0287057 7.24455C-0.0402394 7.4567 0.0172604 7.68955 0.176986 7.84522L4.66322 12.2184L3.60432 18.3935C3.56658 18.6134 3.65697 18.8355 3.8374 18.9666C3.93947 19.0407 4.06037 19.0785 4.18185 19.0785C4.27513 19.0785 4.36873 19.0562 4.45443 19.0112L10 16.0956L15.5453 19.0111C15.7428 19.1149 15.982 19.0977 16.1624 18.9666C16.3428 18.8355 16.4333 18.6133 16.3956 18.3934L15.3363 12.2184L19.823 7.84518C19.9827 7.68955 20.0403 7.4567 19.9713 7.24459Z" fill="#EBEBEB"/>
<path d="M49.9713 7.59452C49.9024 7.37213 49.7191 7.21005 49.4984 7.17647L43.2983 6.23198L40.5254 0.342376C40.4268 0.132716 40.223 0 40 0C39.777 0 39.5733 0.132716 39.4746 0.342376L36.7016 6.23198L30.5017 7.17647C30.281 7.21005 30.0976 7.37213 30.0287 7.59448C29.9598 7.81688 30.0173 8.06097 30.177 8.22416L34.6632 12.8086L33.6043 19.282C33.5666 19.5124 33.657 19.7453 33.8374 19.8827C33.9395 19.9604 34.0604 20 34.1819 20C34.2751 20 34.3687 19.9767 34.4544 19.9294L40 16.8731L45.5453 19.9294C45.7428 20.0382 45.982 20.0201 46.1624 19.8827C46.3428 19.7453 46.4333 19.5123 46.3956 19.2819L45.3363 12.8086L49.823 8.22411C49.9827 8.06097 50.0403 7.81687 49.9713 7.59452Z" fill="#FF5D46"/>
</svg>
