<svg width="20" height="20" viewBox="0 0 20 20" fill="none" xmlns="http://www.w3.org/2000/svg">
<path d="M19.9713 7.59452C19.9024 7.37213 19.7191 7.21005 19.4984 7.17647L13.2983 6.23198L10.5254 0.342376C10.4268 0.132716 10.223 0 10 0C9.77699 0 9.57332 0.132716 9.47461 0.342376L6.70165 6.23198L0.501673 7.17647C0.281009 7.21005 0.0976117 7.37213 0.0287057 7.59448C-0.0402394 7.81688 0.0172604 8.06097 0.176986 8.22416L4.66322 12.8086L3.60432 19.282C3.56658 19.5124 3.65697 19.7453 3.8374 19.8827C3.93947 19.9604 4.06037 20 4.18185 20C4.27513 20 4.36873 19.9767 4.45443 19.9294L10 16.8731L15.5453 19.9294C15.7428 20.0382 15.982 20.0201 16.1624 19.8827C16.3428 19.7453 16.4333 19.5123 16.3956 19.2819L15.3363 12.8086L19.823 8.22411C19.9827 8.06097 20.0403 7.81687 19.9713 7.59452Z" fill="#FF5D46"/>
</svg>
