<svg width="29" height="29" viewBox="0 0 29 29" fill="none" xmlns="http://www.w3.org/2000/svg">
<path d="M7.96186 26.3793C6.63077 24.8668 5.29974 23.2937 4.45266 21.4181C3.60564 19.4215 3.3636 17.1224 3.78714 14.9443C4.21068 12.7662 5.1787 10.709 6.5703 8.95447C6.44932 10.4671 6.99384 12.0401 8.02238 13.1897C7.41733 10.2856 8.3854 7.13938 10.3215 4.84028C12.2576 2.54118 14.9197 1.02853 17.7028 0C16.3113 1.45207 16.1298 3.75117 16.6743 5.6873C17.2188 7.62338 18.3684 9.31749 19.3969 11.0721C20.4255 12.8266 21.3935 14.6417 21.4541 16.6383C21.9986 15.6098 22.6036 14.5812 22.9667 13.4317C23.3297 12.2821 23.5112 11.0721 23.2087 9.92248C24.2977 11.2536 24.9028 12.5846 25.2053 14.2787C25.5078 15.9728 25.4473 17.7274 25.2658 19.4215C25.0238 21.2971 24.5398 23.2332 23.5112 24.8062C22.3012 26.6818 20.3651 28.0129 18.2475 28.7389C14.4962 29.4045 10.8055 28.86 7.96186 26.3793Z" fill="#F3705A"/>
<path d="M12.5599 28.6179C17.5211 30.554 22.4219 24.6852 19.6992 20.1475C19.6992 20.087 19.6387 20.087 19.6387 20.0265C19.8807 22.5071 19.2757 24.3222 18.1261 25.3508C18.7312 23.8987 18.3076 22.2046 17.5816 20.7525C16.8555 19.361 15.827 18.0904 15.0405 16.7593C14.2539 15.3678 13.6489 13.7947 14.0119 12.2216C12.5599 13.3107 11.5313 14.9443 11.1078 16.6988C10.6842 18.4534 10.9263 20.3895 11.7128 22.0231C10.8053 21.3576 10.1398 20.2685 10.0792 19.119C9.11118 20.2685 8.50618 21.7811 8.56665 23.2937C8.56671 25.6533 10.4423 27.7709 12.5599 28.6179Z" fill="#FFD15C"/>
</svg>
